<svg width="186" height="63" viewBox="0 0 186 63" fill="none" xmlns="http://www.w3.org/2000/svg">
<mask id="mask0" style="mask-type:alpha" maskUnits="userSpaceOnUse" x="0" y="0" width="186" height="63">
<rect width="186" height="63" fill="#C4C4C4"/>
</mask>
<g mask="url(#mask0)">
<path d="M98.612 52.4858C101.11 53.9428 104.857 53.3184 105.481 49.9879C105.689 48.5309 105.273 47.0738 104.857 45.8249C104.232 43.9515 103.608 42.2863 103.191 40.2048C102.359 34.5846 106.522 28.1319 112.766 31.046C115.681 32.295 117.554 35.2091 118.803 37.9151C120.468 41.4537 121.301 44.9923 123.798 48.1146C125.256 49.9879 127.337 51.0287 129.419 49.3635C131.5 47.6983 132.749 44.7841 134.206 42.7026C136.079 40.2048 138.161 37.7069 141.075 36.458C142.324 35.8336 143.573 35.6254 144.822 35.6254C149.193 35.8336 149.818 40.8292 149.609 44.3678C149.401 47.4901 148.569 50.4042 147.528 53.3184C146.903 54.9836 144.822 59.1467 146.487 60.6037C148.36 62.0608 152.107 58.7304 153.772 57.8977C156.27 56.4407 160.225 54.9836 162.931 56.6488C166.678 58.7304 166.053 64.1423 163.556 67.0565C162.099 68.7217 160.225 69.5543 158.352 70.8032C155.021 72.8847 151.899 76.2152 155.854 79.3375C160.017 82.8761 171.674 85.582 167.511 93.2837C166.262 95.7815 163.347 96.8223 160.641 96.8223C158.56 96.8223 156.687 96.406 154.605 96.406C153.981 96.406 153.356 96.406 152.732 96.8223C151.066 98.0712 153.564 101.61 154.397 102.651C155.23 104.108 156.27 105.357 156.895 107.022C158.352 110.352 156.895 113.683 153.356 114.932C145.654 117.429 142.532 110.769 139.41 105.357C138.994 104.524 138.161 103.483 137.12 103.691C136.496 103.899 135.871 104.524 135.871 105.148C135.455 107.438 137.328 109.936 138.369 112.017C139.41 114.515 140.243 117.013 140.867 119.719C141.7 123.258 141.7 127.004 138.369 129.294C136.288 130.751 133.79 131.167 131.292 130.543C124.631 129.086 121.092 122.425 119.219 116.389C118.595 113.891 118.178 110.977 116.721 108.895C116.513 108.479 116.097 108.063 115.68 108.063C114.848 107.854 114.223 108.479 113.807 109.103C108.811 116.805 104.857 128.253 94.2408 129.502C92.3674 129.502 89.8696 128.878 87.9962 127.421C85.7065 125.339 84.8739 121.801 85.4984 118.886C85.9147 115.556 87.5799 112.017 89.4533 109.103C90.2859 107.646 93.2 104.732 92.1592 102.859C91.9511 102.442 91.3266 102.026 90.7022 102.026C86.5391 101.61 82.5842 105.357 78.4212 105.565C74.6744 105.773 71.1358 104.732 69.2625 101.193C66.7646 96.406 68.2217 91.8266 73.2173 89.5369C78.6293 87.0391 84.6657 88.0799 90.0777 85.3739C90.9103 84.9576 91.5348 84.5413 91.7429 83.7087C91.9511 82.8761 91.1185 82.0434 90.2859 81.8353C88.2043 81.0027 85.7065 82.2516 83.625 82.6679C80.919 83.2924 78.213 83.9168 75.2989 83.9168C71.9684 83.9168 68.638 83.0842 65.932 81.0027C63.4342 78.9212 61.7689 75.3826 62.3934 72.2603C63.226 68.3054 67.3891 65.8075 71.5521 65.3912C76.7559 65.1831 81.5435 67.8891 86.7473 68.9298C87.5799 69.138 88.4125 69.138 89.037 68.7217C92.5756 66.432 79.8782 59.9793 78.6293 59.1467C76.7559 57.8977 74.8826 56.2325 74.05 53.9428C72.3847 48.9472 77.1723 44.9923 81.3353 43.3271C89.4533 40.4129 92.7837 49.1553 98.612 52.4858Z" fill="#CD1D1C"/>
<path d="M142.741 -19.5349C140.659 -20.1594 138.161 -18.7023 136.704 -16.829C134.415 -14.123 133.166 -10.7925 131.709 -7.67024C129.627 -3.71534 127.754 0.239561 125.88 4.19446C123.799 8.56567 120.677 14.1858 122.342 19.1815C122.758 20.2222 123.591 21.0548 124.631 21.0548C125.464 21.0548 126.088 20.6385 126.713 20.2222C131.5 17.3081 134.831 11.8961 137.745 7.31675C141.492 1.28032 145.447 -6.62947 145.863 -13.7067C145.863 -14.7474 145.863 -15.9963 145.447 -17.0371C144.614 -18.4942 143.781 -19.3268 142.741 -19.5349Z" fill="#2086BD"/>
<path d="M93.4083 3.77815C92.1593 7.10859 95.2816 12.1042 96.7387 14.8102C99.0284 18.7651 101.734 22.3037 104.648 25.6342C106.106 27.2994 107.563 28.9646 109.228 30.4217C110.685 31.6706 112.142 33.544 114.224 33.9603C114.432 33.9603 114.848 33.9603 115.056 33.9603C119.427 32.2951 111.101 21.0548 109.852 19.1814C107.354 15.4347 104.857 11.6879 102.151 8.3575C100.902 7.10859 95.0735 -0.384907 93.4083 3.77815Z" fill="#2086BD"/>
<path d="M171.258 -1.21762C172.715 -3.71545 174.38 -6.42143 176.67 -8.29481C178.751 -9.96003 180 -8.08666 180 -6.00513C179.584 2.94543 176.878 13.1449 170.009 19.1813C168.968 20.014 167.511 20.8466 166.262 20.2221C165.221 19.5976 165.221 17.9324 165.221 16.6835C165.846 11.0634 167.511 5.85957 170.217 0.863911C170.217 0.447605 170.633 -0.385006 171.258 -1.21762Z" fill="#2086BD"/>
<path d="M141.908 23.1364C144.198 20.2223 150.026 14.6022 153.981 14.8103C158.352 15.0185 155.022 20.6386 153.981 22.512C151.899 26.0506 149.61 29.381 146.904 32.7114C144.614 35.6256 142.324 38.7479 139.202 41.0376C138.369 41.662 137.537 42.0783 136.704 42.0783C133.374 41.8702 135.663 35.0011 136.288 33.3359C137.537 29.381 139.618 26.2587 141.908 23.1364Z" fill="#2086BD"/>
<path d="M11.396 40.4131C8.89812 42.4946 6.81659 44.9925 5.15137 48.1148C1.61277 54.9838 1.19647 64.1425 8.06551 68.93C14.5182 73.3012 23.0525 74.1338 30.3378 72.0523C51.9857 66.224 64.8912 42.7028 68.4298 21.8875C70.095 12.1043 66.5564 4.19454 57.1895 0.0314841C43.8678 -6.00494 27.84 -5.38048 13.4775 -3.92342C6.60844 -3.29896 -0.468753 -1.42558 -5.25626 3.77823C-10.0438 8.7739 -9.00301 16.0592 -3.17474 19.806C3.6943 24.1772 12.2286 22.7201 19.7221 21.4712C22.2199 21.0549 27.84 19.1815 29.5052 22.0957C32.0031 26.4669 22.6362 32.5033 19.9302 34.3767C17.0161 36.25 14.1019 38.1234 11.396 40.4131Z" fill="#A4C629"/>
<path d="M-27.4424 60.5418C-27.0261 59.7092 -26.4017 58.8766 -25.7772 58.2521C-23.6957 55.9625 -20.1571 54.5054 -17.4511 55.7543C-14.7451 57.0032 -13.4962 60.1255 -12.6636 63.0396C-11.831 66.7864 -11.4147 70.7413 -11.831 74.6962C-12.0391 76.5696 -12.2473 78.4429 -11.831 80.1082C-11.4147 81.7734 -9.9576 83.6468 -8.08422 83.6468C-6.62716 83.6468 -5.17009 82.8141 -4.33747 81.3571C-3.50486 80.1082 -3.29671 78.4429 -3.08856 76.9859C-2.4641 70.5331 -3.50486 63.6641 -7.25161 58.4603C-9.12498 55.7543 -11.831 53.6728 -13.9125 51.1749C-15.994 48.6771 -17.8674 45.5548 -17.6592 42.4325C-17.6592 41.1836 -17.2429 40.1428 -16.6185 39.1021C-15.994 38.2695 -14.7451 37.645 -13.4962 37.8532C-12.6636 38.0613 -12.0391 38.4776 -11.4147 39.1021C-9.54129 40.7673 -7.87607 43.057 -7.04346 45.3467C-7.04346 43.057 -6.83531 40.5592 -6.21085 38.4776C-6.0027 37.8532 -5.79454 37.2287 -5.37824 36.6043C-4.75378 35.7716 -3.29671 35.5635 -2.4641 35.9798C-1.42334 36.3961 -0.590727 37.0206 0.0337315 37.8532C2.73972 41.1836 3.78048 45.5548 3.98863 49.926C4.61309 61.5826 1.07449 72.8228 1.4908 84.4794C1.4908 84.8957 1.4908 85.312 1.69895 85.5201C2.11526 85.9364 2.73972 85.9364 3.15602 85.7283C5.23755 85.1038 5.4457 82.1897 5.65385 80.3163C5.862 77.4022 6.27831 74.6962 6.69461 71.9902C7.52723 66.9945 8.56799 61.7907 9.8169 56.7951C12.1066 47.0119 14.3963 37.0206 19.8082 28.4863C21.4735 25.9885 25.4283 23.2825 27.9262 26.4048C28.9669 27.6537 29.1751 29.5271 29.1751 30.9841C29.1751 32.0249 29.3833 33.0657 29.7996 33.8983C30.6322 35.5635 32.0892 35.3553 33.3382 34.5227C33.9626 34.3146 34.5871 33.8983 35.0034 34.3146C35.4197 34.5227 35.6278 34.939 35.836 35.3553C35.836 35.7716 35.836 36.3961 35.6278 36.8124C35.0034 39.1021 33.13 40.9755 31.6729 42.6407C30.0077 44.7222 28.1343 46.5956 26.4691 48.6771C18.5593 58.4603 13.98 70.7413 10.4414 82.606C10.2332 83.0223 10.2332 83.6468 10.4414 84.0631C11.274 85.9364 13.3555 83.6468 13.98 82.8141C19.3919 74.9043 23.1387 66.1619 27.3017 57.6277C28.9669 54.5054 30.6322 51.1749 32.7137 48.2608C33.5463 47.0119 34.5871 45.763 35.836 44.9304C36.4604 44.5141 37.2931 44.0978 37.9175 44.5141C38.542 44.9304 38.542 45.763 38.7501 46.3874C38.9583 49.5097 39.1664 52.632 38.542 55.5462C37.5012 60.9581 34.3789 65.7456 30.8403 70.1168C28.7588 72.6147 26.4691 75.3207 24.1794 77.8185C23.1387 79.0674 21.8898 80.3163 20.849 81.5652C20.0164 82.606 17.1022 84.4794 17.5186 86.1446C17.7267 86.5609 17.9349 86.769 18.143 86.9772C21.8898 91.7647 17.3104 97.1767 12.5229 98.2174C10.0251 98.8419 7.31907 98.4256 4.82124 98.0093C-2.0478 96.5522 -8.50053 93.2218 -15.1614 91.5566C-18.4919 90.724 -22.2386 90.0995 -24.3201 87.3935C-25.1527 86.1446 -25.569 84.4794 -24.3201 83.4386C-22.8631 82.1897 -19.9489 83.8549 -18.7 82.3978C-18.0756 81.5652 -18.2837 80.3163 -19.1163 79.4837C-19.9489 78.6511 -20.9897 78.2348 -21.8223 77.8185C-25.1527 75.9451 -27.8587 72.6147 -28.4832 68.6598C-29.5239 66.1619 -28.8995 63.0396 -27.4424 60.5418Z" fill="#10CFC9"/>
<path d="M84.874 35.0009C85.4985 33.3357 86.7474 31.8786 87.9963 30.6297C89.4534 29.1727 91.3268 27.7156 92.992 26.4667C94.8654 25.0096 91.7431 24.177 90.4941 23.9688C89.2452 23.7607 87.9963 23.9688 86.9556 24.177C84.6659 24.5933 82.5844 25.6341 80.2947 26.2585C79.4621 26.4667 78.6294 26.6748 77.7968 26.2585C77.3805 26.0504 77.1724 25.6341 76.9642 25.4259C76.1316 24.177 75.0909 23.1362 74.0501 22.0955C72.3849 20.4303 70.7196 18.9732 68.8463 17.7243C66.1403 15.8509 63.018 14.602 59.8957 13.7694C56.7734 12.9368 53.2348 12.5205 50.1125 12.9368C49.2799 13.1449 48.4473 13.3531 48.031 14.3938C47.1984 16.2672 49.0718 17.5161 50.3207 18.5569C52.1941 20.2221 54.0674 21.8873 55.5245 23.9688C56.5653 25.6341 57.3979 27.2993 58.0223 29.1727C59.0631 32.7113 58.4386 35.8336 56.3571 38.7477C52.6104 44.1597 46.1576 46.2412 40.1212 47.0738C38.8723 47.282 38.0397 48.739 38.6641 49.9879L42.619 58.1059C43.2435 59.3548 44.7006 59.563 45.7413 58.7303C45.9495 58.5222 46.3658 58.314 46.5739 57.8977C48.8636 56.0244 51.1533 54.151 53.8593 52.9021C56.7734 51.445 60.1039 50.6124 63.2262 51.6531C68.2218 53.3184 70.3033 59.1466 71.136 63.9342C71.5523 67.4728 71.7604 71.2195 71.3441 74.7581C71.3441 75.7989 71.3441 76.8396 71.7604 77.4641C73.4256 79.9619 76.3398 77.6722 77.7968 76.007C80.0865 73.5092 81.9599 70.595 83.2088 67.4728C84.6659 64.1423 85.7066 60.8119 86.5392 57.4814C87.3719 53.5265 87.7882 49.3635 87.1637 45.4086C86.7474 42.9107 85.9148 40.8292 85.0822 38.3314C84.4577 37.4988 84.4577 36.2499 84.874 35.0009Z" fill="white"/>
</g>
</svg>
