
<svg xmlns="http://www.w3.org/2000/svg" version="1.1" xmlns:xlink="http://www.w3.org/1999/xlink" preserveAspectRatio="none" x="0px" y="0px" width="200px" height="80px" viewBox="0 0 200 80">
<defs>
<linearGradient id="Gradient_1" gradientUnits="userSpaceOnUse" x1="279.28749999999997" y1="253.95000000000002" x2="322.1125" y2="-165.45000000000002" spreadMethod="pad">
<stop  offset="0%" stop-color="#F4C821"/>

<stop  offset="100%" stop-color="#FFFF66"/>
</linearGradient>

<g id="Mask_b2e_0_1_MASK_0_FILL">
<path fill="#FFFFFF" stroke="none" d="
M 278.05 -247.95
L 278.05 -167.95 478.05 -167.95 478.05 -247.95 278.05 -247.95 Z"/>
</g>

<g id="b2e_0_Layer1_0_FILL">
<path fill="#52CFC5" stroke="none" d="
M 477.55 217.25
Q 475.75 213.3 472.7 212.95 470.8 212.75 469.3 214.6 467.9 216.25 467.65 219.15 467.55 220.25 467.65 222.85 467.75 225.2 467.55 226.55 467.35 227.9 466.65 227.9 465.9 227.95 465.5 226.7 465.15 225.6 464.8 221.8 464.2 215.7 461.8 210.35 458.85 203.75 455.75 201.25 453.4 199.4 450.45 199.85 447.35 200.35 446.15 203.1 445.25 205.1 445.85 208.35 446.2 210.2 447.2 213.6 447.7 215.6 449.2 220.95 450.5 225.55 451.15 228.25 452.4 234 452.6 235.4 453.15 239.85 452.1 242.5 451.9 243.25 451.4 243.3 450.85 243.35 450.4 242.45 449.15 239.25 448.45 237.7 447.2 235 445.65 233.55 444.75 232.7 443.7 232.4 442.5 232 441.5 232.4 440.3 232.9 439.75 234.35 439.25 235.65 439.25 237.65 439.3 238.15 439.45 240.9 439.4 243.4 438.15 243.45 437.35 243.45 437.05 242.4 436.35 240.15 436.25 236.65 436.25 232.65 436.15 230.75 435.8 223.15 434.05 218.8 432.8 215.5 430.5 214.9 427.25 214.1 424.7 217.95 422.95 220.65 422.05 224.55 420.85 229.8 421.4 237.4 421.65 239.75 420.4 240.2 419.45 240.5 418.75 239.7 418.25 239.2 417.8 238.1 416.15 234.4 414.55 232.75 411.9 230.1 408.9 230.45 406.9 230.65 405.35 232.35 403.85 233.95 403.6 236.05 403.45 237.8 403.95 239.3 404.7 241.7 406.6 243.45 409.3 246 414 247.05 418.95 248.15 425.5 248.4 429.2 248.5 437.1 248.35
L 462.15 247.9
Q 462.95 247.9 467.45 247.95 470.7 248 472.75 247.75 478.75 246.95 479.55 241.6 480.9 232.75 479.4 223.95 478.65 219.65 477.55 217.25 Z"/>
</g>

<g id="b2e_0_Layer1_1_FILL">
<path fill="url(#Gradient_1)" stroke="none" d="
M 23.65 -202.1
Q 20.85 -232.05 15.4 -249.65 -1.1 -304.35 -54 -309.2 -69.45 -310.75 -85.45 -306.2 -127.9 -294.9 -146.25 -261.3 -158.4 -238.65 -164.1 -190.35 -170.95 -133.7 -177.2 -115.2 -189.75 -75.3 -221.65 -56.6 -238.35 -46.65 -255.65 -43.7 -274.85 -40.95 -291.3 -47.45 -300.3 -50.9 -317.6 -63.45 -334.15 -74.7 -344.95 -78.4 -360.6 -83.5 -378.95 -82.65 -397.35 -81.75 -413.3 -75.65 -436.05 -66.7 -452.15 -48.55 -472.95 -25.05 -476.45 3.1 -480.2 34.9 -460.05 61.85 -452.8 71.7 -414.95 106.4 -389.7 129.5 -397.9 149 -398.7 150.85 -408.55 166 -414.95 176.2 -415.3 184.3 -416 209.65 -386.5 218.4 -361.3 225.95 -334.15 218.55 -311.5 212.45 -281.35 187.5 -249.1 160.7 -230.65 153.9 -204.25 143.95 -154.05 151.95 -101.8 160.9 -76.9 153.4 -17.95 136.2 20 64.25 41.55 23.4 83.1 18.25 97.7 16.55 123.8 24.2 153.1517578125 30.483203125 180.2 13.75 207.25 -2.9224609375 221.05 -49.1 234.8484375 -95.224609375 227.2 -123.05 220.45 -146.65 206.15 -160.95 181.1 -186.5 132.75 -174.25 77.95 -155 53.3 -151.15 39.75 -148.85 34.1 -153.25 26.35 -158.6 24.9 -176.15 24.6 -195.65 23.65 -202.1 Z"/>
</g>

<g id="b2e_0_Layer1_2_FILL">
<path fill="#FFFFFF" stroke="none" d="
M 265.15 188.95
Q 269.55 192.25 271.85 195.1 274.15 197.95 275.3 201.15 277.45 207.3 274.25 213 271.6 217.8 266.05 220.8 261.9 223.1 255.25 224.7 254.05 224.95 253.55 226.15 253.05 227.35 253.7 228.45
L 259.2 237.85
Q 259.8 238.85 260.95 239 262.15 239.15 262.95 238.25
L 263.9 237.3
Q 268.35 232.85 272.3 230.5 278.5 226.9 283.55 228.2 287.85 229.35 290.75 233.75 293.1 237.35 294.15 242.4 295.65 249.3 295.45 255.6 295.45 257.8 296.3 258.95 297.8 260.9 300.15 259.7 301.75 258.85 303.5 256.7 306.95 252.45 309.25 245.8 311.55 238.95 312.4 233.35 313.65 225.35 312.15 218.55 311.75 216.6 310.8 214.3 310.8 214.25 309.05 210.2 308.05 207.9 308.6 205.7 308.95 204.3 310 202.75 310.55 201.85 312 200.1 313.4 198.4 317.6 194.6 319 193.3 317.35 192.45 316.1 191.85 314.4 191.8 312.5 191.65 310.1 192.35 308.35 192.85 306.1 193.8 303.5 195 302.2 195.55 300.45 196.35 299.25 195.75 298.95 195.6 298.15 194.8 295.15 191.55 294.45 190.95 291.15 188.1 287.7 186.25 282.7 183.45 276.4 182.35 269.35 181.15 264.4 182.25 262.6 182.65 262 184.15 261.4 185.65 262.65 187 263.05 187.45 265.15 188.95 Z"/>
</g>

<g id="b2e_0_Layer1_3_FILL">
<path fill="#F285B0" stroke="none" d="
M 820.4 1656.3
Q 819.2 1654.3 817.8 1651.25 816.2 1647.75 815.4 1646.05 814.7 1644.45 813.8 1643.55 812.4 1642.3 810.9 1642.8 809.4 1643.3 809 1645.1 808.65 1646.8 809.2 1649.9 810.9 1658.35 810.8 1660.7 810.65 1667.25 805.45 1669.95
L 805.4 1669.95
Q 804.1 1671 802.25 1671.95 801.2 1672.45 798.85 1673.5 798.2 1673.8 794.9 1675.3 792.1 1676.9 792.8 1678.35 793.15 1679.05 794.6 1679.15 799.75 1679.15 805.7 1680.15 808.1 1680.5 809.35 1680.85 811.4 1681.4 812.7 1682.4 814.35 1683.65 816 1685.8 817 1687.05 818.8 1689.7
L 824.95 1698.15
Q 825.9 1699.55 826.8 1699.35 827.3 1699.2 827.7 1698.55 828.5 1697.3 828.7 1695.15 828.85 1694 828.85 1691.55 828.85 1684.5 829.45 1681.15 830.45 1675.4 833.65 1671.8 835 1670.35 837.9 1668.1 840.95 1665.7 842.15 1664.45 842.95 1663.6 842.7 1663 842.5 1662.35 841.3 1662.3 839.9 1662.2 838 1662.5 835.85 1662.85 834.75 1663 830.2 1663.65 826.5 1661.95 822.85 1660.25 820.4 1656.3 Z"/>
</g>

<g id="b2e_0_Layer1_4_FILL">
<path fill="#FAE647" stroke="none" d="
M 435.2 467.1
Q 433.45 467.05 431.7 467.9 429 469.25 427.45 472 424.5 477.2 427.25 484.8 427.95 486.75 430.2 491.4 430.8 492.55 431.9 494.9 432.9 497 433.7 498.35 437.2 504 442.85 504.35 445.7 504.5 449.2 503.55 451.15 503 455.3 501.45 463.25 498.4 470.05 492.85 473.4 490.1 475.2 487.75 477.5 484.7 478.2 481.2 478.65 478.85 478.2 477.2 477.5 474.3 474.4 473.7 470.6 473.45 468.85 472.65 465.5 471.1 465.7 465.7 466.2 461.55 466.05 459.5 465.85 457.15 464.45 455.3 463 453.45 460.75 452.8 456.65 451.55 453.4 454.3 450.5 456.75 449.55 461 449.15 462.95 448.45 467.35 447.6 471.1 445.65 472.9 444.45 474 443.25 473.7 442.15 473.4 441.3 471.9 440.05 469.7 438.9 468.65 437.35 467.25 435.2 467.1 Z"/>
</g>
</defs>

<g transform="matrix( 1, 0, 0, 1, 0,0) ">
<mask id="Mask_Mask_1">
<g transform="matrix( 1, 0, 0, 1, -278.05,247.95) ">
<use xlink:href="#Mask_b2e_0_1_MASK_0_FILL"/>
</g>
</mask>

<g mask="url(#Mask_Mask_1)">
<g transform="matrix( -2.32855224609375, 1.058197021484375, -1.058197021484375, -2.32855224609375, 1328.9,139.4) ">
<use xlink:href="#b2e_0_Layer1_0_FILL"/>
</g>

<g transform="matrix( 1, 0, 0, 1, 2,-4) ">
<use xlink:href="#b2e_0_Layer1_1_FILL"/>
</g>

<g transform="matrix( 0.3695068359375, 0, 0, 0.370208740234375, 52.05,-58.25) ">
<use xlink:href="#b2e_0_Layer1_2_FILL"/>
</g>

<g transform="matrix( 1.0323486328125, -0.0213775634765625, 0.021392822265625, 1.0316314697265625, -848.45,-1646.15) ">
<use xlink:href="#b2e_0_Layer1_3_FILL"/>
</g>

<g transform="matrix( 0.408203125, 0.109619140625, -0.1093597412109375, 0.409210205078125, -5.3,-185.85) ">
<use xlink:href="#b2e_0_Layer1_4_FILL"/>
</g>
</g>
</g>
</svg>
