
<svg xmlns="http://www.w3.org/2000/svg" version="1.1" xmlns:xlink="http://www.w3.org/1999/xlink" preserveAspectRatio="none" x="0px" y="0px" width="200px" height="80px" viewBox="0 0 200 80">
<defs>
<linearGradient id="Gradient_1" gradientUnits="userSpaceOnUse" x1="760.5875" y1="407.2625" x2="720.9125" y2="409.53749999999997" spreadMethod="pad">
<stop  offset="0%" stop-color="#F5CD28"/>

<stop  offset="100%" stop-color="#FFFF66"/>
</linearGradient>

<g id="Mask_b2c______0_1_MASK_0_FILL">
<path fill="#FFFFFF" stroke="none" d="
M -308.95 -82.95
L -308.95 -2.95 -108.95 -2.95 -108.95 -82.95 -308.95 -82.95 Z"/>
</g>

<g id="b2c______0_Layer1_0_FILL">
<path fill="#E73B7E" stroke="none" d="
M 595.5 188.5
Q 591.8 188.95 586.95 192.65 585.8 193.55 583.25 195.75 577.4 200.8 573.7 206.65 568.95 214.25 568.3 224.4 567.9 230.65 568.2 234.7 568.65 240.5 570.6 244.7 572.35 248.4 575.4 248.9 577 249.2 578.75 248.35 581.9 246.9 582.7 243.4 583.1 241.45 582.85 238.4 582.6 235.35 583.25 233.35 583.7 231.8 584.95 231.75 585.7 231.75 586.55 232.25 589 233.75 589.05 237.5 589.05 238.3 588.3 243.6 587.75 247.8 589.1 250.05 590.65 252.8 594.5 253.7 598.3 254.65 600.95 253 603.25 251.55 603.6 248.25 603.85 245.7 603 242.55 602.25 240.2 601.9 239.05 601.2 236.95 601.1 235.4 600.95 233.45 602.5 234.4 604 235.3 604.5 236.5 604.8 237.15 605.1 238.15 605.25 238.75 605.55 239.95 607.1 245.7 612.3 247.25 614.85 248 617.2 247.25 619.6 246.45 621.05 244.3 622.55 242.05 622.25 239.4 622 236.65 620.05 234.85 618.45 233.35 615.8 232.1 612.65 230.75 611.1 230.1 607.6 228.6 605.25 226.6 601.65 223.5 603.2 220.85 604.05 219.35 607 219.75 611.95 220.5 618.3 223.8 625.7 227.7 627.6 228.35 633.6 230.3 637.35 227.3 639.35 225.7 639.65 223.25 640.05 220.35 637.85 217.9 635.4 215.15 630.15 214.4 624.05 214 621.4 213.55 618.85 213.15 617.9 211.9 615.45 208.9 622.4 206.8 622.7 206.7 628.45 205.6 632.1 204.95 634.1 203.35 635.6 202.1 636.05 200.75 637.45 196.6 632.9 195.3 629.35 194.25 625.35 195.2 618 196.95 609.3 201.95 604.75 204.8 602.35 206.1 598.15 208.35 594.7 208.6 593.65 208.7 593 208.3 592.1 207.7 592.3 206.35 592.75 203.35 595.3 199.9 596.7 197.95 599.75 194.25 601.45 191.85 600.65 190.35 600.05 189.2 598.4 188.7 597 188.3 595.5 188.5 Z"/>
</g>

<g id="b2c______0_Layer1_1_FILL">
<path fill="#F8F08E" stroke="none" d="
M 265.15 188.95
Q 269.55 192.25 271.85 195.1 274.15 197.95 275.3 201.15 277.45 207.3 274.25 213 271.6 217.8 266.05 220.8 261.9 223.1 255.25 224.7 254.05 224.95 253.55 226.15 253.05 227.35 253.7 228.45
L 259.2 237.85
Q 259.8 238.85 260.95 239 262.15 239.15 262.95 238.25
L 263.9 237.3
Q 268.35 232.85 272.3 230.5 278.5 226.9 283.55 228.2 287.85 229.35 290.75 233.75 293.1 237.35 294.15 242.4 295.65 249.3 295.45 255.6 295.45 257.8 296.3 258.95 297.8 260.9 300.15 259.7 301.75 258.85 303.5 256.7 306.95 252.45 309.25 245.8 311.55 238.95 312.4 233.35 313.65 225.35 312.15 218.55 311.75 216.6 310.8 214.3 310.8 214.25 309.05 210.2 308.05 207.9 308.6 205.7 308.95 204.3 310 202.75 310.55 201.85 312 200.1 313.4 198.4 317.6 194.6 319 193.3 317.35 192.45 316.1 191.85 314.4 191.8 312.5 191.65 310.1 192.35 308.35 192.85 306.1 193.8 303.5 195 302.2 195.55 300.45 196.35 299.25 195.75 298.95 195.6 298.15 194.8 295.15 191.55 294.45 190.95 291.15 188.1 287.7 186.25 282.7 183.45 276.4 182.35 269.35 181.15 264.4 182.25 262.6 182.65 262 184.15 261.4 185.65 262.65 187 263.05 187.45 265.15 188.95 Z"/>
</g>

<g id="b2c______0_Layer1_2_FILL">
<path fill="url(#Gradient_1)" stroke="none" d="
M 758.55 395.1
Q 759.3 391.7 757.35 389 755.45 386.25 751.95 385.9 749.75 385.7 747.7 386.6 745.7 387.45 744.3 389.15 740.8 393.15 739.6 398.25 739.1 400.45 738.5 404.6 737.75 408.25 736 410.5 735.25 411.5 734.6 411.85 733.6 412.4 732.75 411.95 731.65 411.4 731.75 410.05 731.75 409.3 732.15 408.2 732.75 406.75 732.8 406.4 733.45 403.85 731.4 401.65 729.25 399.4 726.7 400.15 725.3 400.55 724.1 401.85 723.45 402.6 722.25 404.45 720.2 407.5 719.45 410.65
L 719.25 411.6
Q 718.25 417 721.15 422 724 426.85 729.15 429.25 734.85 431.85 741.15 431.3 745.5 430.95 749.3 427.9 753.1 424.85 754.3 420.65 754.75 418.95 754.15 417.95 753.4 416.8 751.8 416.9 750.4 416.95 748.25 417.9 745.7 419 744.75 419.15 742.45 419.65 741.35 418.6 740.1 417.5 740.35 415.2 740.5 413.25 741.55 411.75 742.5 410.4 744.15 409.25 744.95 408.7 747.2 407.35 751.3 405 754.55 401.85 757.85 398.6 758.55 395.1 Z"/>
</g>

<g id="b2c______0_Layer1_3_FILL">
<path fill="#FFFFFF" stroke="none" d="
M 763.7 446.3
Q 759.35 446.25 756.2 449.9 753 453.55 752.1 459.6 751.6 462.75 751.6 470.3 751.6 471.45 751.75 475.1 751.55 478.3 749.8 479 747.05 480.15 743.8 475.5 741.9 472.85 740.05 468.65 737.75 463.25 735.7 460.05 733 455.85 729.5 453.4 724.75 450 719.7 449.7 714 449.35 710.3 453.3 706.8 457.1 705.25 462.5 703.8 467.65 704.45 473 706.15 487.25 718.6 499 729.6 509.35 744.65 514.2 751.3 516.35 756.7 514.6 762.25 512.8 766 507.05 770.95 499.55 773.25 488.3 774.85 480.45 775.45 468.15 775.9 456.4 771 450.1 768.05 446.35 763.7 446.3 Z"/>
</g>

<g id="b2c______0_Layer1_4_FILL">
<path fill="#FAC0C8" stroke="none" d="
M 385.1 593.75
Q 387.1 593.1 390.95 591.85 394.15 590.7 395.45 588.9 397 586.8 396.1 584.6 395.25 582.5 392.75 581.9 390.2 581.3 387 581.95 384 582.6 381.6 584.1 379.15 585.6 376.45 588.45 373.4 591.85 371.85 593.45 367.05 598.55 361 602.1 359.9 602.75 358.05 603.65 355.75 604.85 354.7 605.45 352.9 606.55 351.7 607.7 350.1 609.2 350.45 611.15 350.8 613 352.8 613.95 354.25 614.7 356.8 614.4 359.55 614.05 363.9 612.65 369.25 610.85 370.9 610.45 373.8 609.75 378.5 608.9 384.45 607.8 386.15 607.45 390.2 606.6 393 605.5 396.65 603.95 398.85 601.55 400.1 600.1 399.95 598.85 399.9 598.1 399.3 597.5 398.75 596.95 397.95 596.65 394.5 595.45 388.8 597.6 382.1 600.15 379.6 600.05 378.6 599.95 378.25 599.65 377.85 599.3 377.75 598.7 377.7 598.2 377.95 597.7 378.4 596.9 379.5 596.25 381.65 594.95 385.1 593.75 Z"/>
</g>

<g id="color_0_Layer0_0_MEMBER_0_FILL">
<path fill="#303030" stroke="none" d="
M 682 52.05
L 682 2.05 632 2.05 632 52.05 682 52.05 Z"/>
</g>

<g id="color_0_Layer0_0_MEMBER_1_FILL">
<path fill="#E2E2E2" stroke="none" d="
M 682 52.05
L 682 2.05 632 2.05 632 52.05 682 52.05 Z"/>
</g>

<g id="color_0_Layer0_0_MEMBER_2_FILL">
<path fill="#EE7071" stroke="none" d="
M 682 52.05
L 682 2.05 632 2.05 632 52.05 682 52.05 Z"/>
</g>

<g id="color_0_Layer0_0_MEMBER_3_FILL">
<path fill="#F7DB39" stroke="none" d="
M 682 52.05
L 682 2.05 632 2.05 632 52.05 682 52.05 Z"/>
</g>

<g id="color_0_Layer0_0_MEMBER_4_FILL">
<path fill="#9FC939" stroke="none" d="
M 682 52.05
L 682 2.05 632 2.05 632 52.05 682 52.05 Z"/>
</g>

<g id="color_0_Layer0_0_MEMBER_5_FILL">
<path fill="#F4CE29" stroke="none" d="
M 682 52.05
L 682 2.05 632 2.05 632 52.05 682 52.05 Z"/>
</g>

<g id="color_0_Layer0_0_MEMBER_6_FILL">
<path fill="#FAA7B2" stroke="none" d="
M 682 52.05
L 682 2.05 632 2.05 632 52.05 682 52.05 Z"/>
</g>

<g id="color_0_Layer0_0_MEMBER_7_FILL">
<path fill="#00E7E1" stroke="none" d="
M 682 52.05
L 682 2.05 632 2.05 632 52.05 682 52.05 Z"/>
</g>

<g id="color_0_Layer0_0_MEMBER_8_FILL">
<path fill="#159FD2" stroke="none" d="
M 682 52.05
L 682 2.05 632 2.05 632 52.05 682 52.05 Z"/>
</g>

<g id="color_0_Layer0_0_MEMBER_9_FILL">
<path fill="#9FC939" stroke="none" d="
M 682 52.05
L 682 2.05 632 2.05 632 52.05 682 52.05 Z"/>
</g>

<g id="color_0_Layer0_1_FILL">
<path fill="#303030" stroke="none" d="
M 682 52.05
L 682 2.05 632 2.05 632 52.05 682 52.05 Z"/>
</g>

<g id="color_0_Layer0_2_FILL">
<path fill="#E2E2E2" stroke="none" d="
M 682 52.05
L 682 2.05 632 2.05 632 52.05 682 52.05 Z"/>
</g>

<g id="color_0_Layer0_3_FILL">
<path fill="#8C3232" stroke="none" d="
M 682 52.05
L 682 2.05 632 2.05 632 52.05 682 52.05 Z"/>
</g>

<g id="color_0_Layer0_4_FILL">
<path fill="#4D4082" stroke="none" d="
M 682 52.05
L 682 2.05 632 2.05 632 52.05 682 52.05 Z"/>
</g>

<g id="color_0_Layer0_5_FILL">
<path fill="#638D0F" stroke="none" d="
M 682 52.05
L 682 2.05 632 2.05 632 52.05 682 52.05 Z"/>
</g>

<g id="color_0_Layer0_6_FILL">
<path fill="#C35A42" stroke="none" d="
M 682 52.05
L 682 2.05 632 2.05 632 52.05 682 52.05 Z"/>
</g>

<g id="color_0_Layer0_7_FILL">
<path fill="#A13F56" stroke="none" d="
M 682 52.05
L 682 2.05 632 2.05 632 52.05 682 52.05 Z"/>
</g>

<g id="color_0_Layer0_8_FILL">
<path fill="#45827A" stroke="none" d="
M 682 52.05
L 682 2.05 632 2.05 632 52.05 682 52.05 Z"/>
</g>

<g id="color_0_Layer0_9_FILL">
<path fill="#00576D" stroke="none" d="
M 682 52.05
L 682 2.05 632 2.05 632 52.05 682 52.05 Z"/>
</g>

<g id="color_0_Layer0_10_FILL">
<path fill="#08412C" stroke="none" d="
M 682 52.05
L 682 2.05 632 2.05 632 52.05 682 52.05 Z"/>
</g>

<g id="color_0_Layer0_11_FILL">
<path fill="#FE6F26" stroke="none" d="
M 436 163.85
Q 427.55 172.3 427.55 184.2 427.55 196.15 436 204.6 444.45 213.05 456.4 213.05 468.35 213.05 476.75 204.6 485.2 196.15 485.2 184.2 485.2 172.3 476.75 163.85 468.35 155.4 456.4 155.4 444.45 155.4 436 163.85 Z"/>
</g>

<g id="color_0_Layer0_12_FILL">
<path fill="#422A6E" stroke="none" d="
M 436 257.65
Q 427.55 266.1 427.55 278 427.55 289.95 436 298.4 444.45 306.85 456.4 306.85 468.35 306.85 476.75 298.4 485.2 289.95 485.2 278 485.2 266.1 476.75 257.65 468.35 249.2 456.4 249.2 444.45 249.2 436 257.65 Z"/>
</g>

<g id="color_0_Layer0_13_FILL">
<path fill="#665A97" stroke="none" d="
M 436 351.45
Q 427.55 359.9 427.55 371.8 427.55 383.75 436 392.2 444.45 400.65 456.4 400.65 468.35 400.65 476.75 392.2 485.2 383.75 485.2 371.8 485.2 359.9 476.75 351.45 468.35 343 456.4 343 444.45 343 436 351.45 Z"/>
</g>

<g id="color_0_Layer0_14_FILL">
<path fill="#162C82" stroke="none" d="
M 476.75 445.25
Q 468.35 436.8 456.4 436.8 444.45 436.8 436 445.25 427.55 453.7 427.55 465.6 427.55 477.55 436 486 444.45 494.45 456.4 494.45 468.35 494.45 476.75 486 485.2 477.55 485.2 465.6 485.2 453.7 476.75 445.25 Z"/>
</g>

<g id="color_0_Layer0_15_FILL">
<path fill="#116BC8" stroke="none" d="
M 674.9 184.35
Q 674.9 172.4 666.45 163.95 658.05 155.5 646.1 155.5 634.15 155.5 625.75 163.95 617.3 172.4 617.3 184.35 617.3 196.3 625.75 204.7 634.2 213.15 646.1 213.15 658.05 213.15 666.45 204.7 674.9 196.3 674.9 184.35 Z"/>
</g>

<g id="color_0_Layer0_16_FILL">
<path fill="#00CCC7" stroke="none" d="
M 674.9 278.15
Q 674.9 266.2 666.45 257.75 658.05 249.3 646.1 249.3 634.15 249.3 625.75 257.75 617.3 266.2 617.3 278.15 617.3 290.1 625.75 298.5 634.2 306.95 646.1 306.95 658.05 306.95 666.45 298.5 674.9 290.1 674.9 278.15 Z"/>
</g>

<g id="color_0_Layer0_17_FILL">
<path fill="#B5AE9B" stroke="none" d="
M 666.45 392.3
Q 674.9 383.9 674.9 371.95 674.9 360 666.45 351.55 658.05 343.1 646.1 343.1 634.15 343.1 625.75 351.55 617.3 360 617.3 371.95 617.3 383.9 625.75 392.3 634.2 400.75 646.1 400.75 658.05 400.75 666.45 392.3 Z"/>
</g>

<g id="color_0_Layer0_18_FILL">
<path fill="#00576D" stroke="none" d="
M 666.45 486
Q 674.9 477.55 674.9 465.6 674.9 453.7 666.45 445.25 658.05 436.8 646.1 436.8 634.2 436.8 625.75 445.25 617.3 453.7 617.3 465.6 617.3 477.55 625.75 486 634.15 494.45 646.1 494.45 658.05 494.45 666.45 486 Z"/>
</g>

<g id="color_0_Layer0_19_FILL">
<path fill="#D22F2F" stroke="none" d="
M 264.85 155.4
Q 252.95 155.4 244.5 163.85 236.05 172.3 236.05 184.2 236.05 196.15 244.5 204.6 252.9 213.05 264.85 213.05 276.8 213.05 285.25 204.6 293.7 196.15 293.7 184.2 293.7 172.25 285.25 163.85 276.8 155.4 264.85 155.4 Z"/>
</g>

<g id="color_0_Layer0_20_FILL">
<path fill="#E61B7F" stroke="none" d="
M 264.85 249.2
Q 252.95 249.2 244.5 257.65 236.05 266.1 236.05 278 236.05 289.95 244.5 298.4 252.9 306.85 264.85 306.85 276.8 306.85 285.25 298.4 293.7 289.95 293.7 278 293.7 266.05 285.25 257.65 276.8 249.2 264.85 249.2 Z"/>
</g>

<g id="color_0_Layer0_21_FILL">
<path fill="#FAC0C8" stroke="none" d="
M 285.25 392.2
Q 293.7 383.75 293.7 371.8 293.7 359.85 285.25 351.45 276.8 343 264.85 343 252.95 343 244.5 351.45 236.05 359.9 236.05 371.8 236.05 383.75 244.5 392.2 252.9 400.65 264.85 400.65 276.8 400.65 285.25 392.2 Z"/>
</g>

<g id="color_0_Layer0_23_FILL">
<path fill="#C6CFC7" stroke="none" d="
M 674.9 184.35
Q 674.9 172.4 666.45 163.95 658.05 155.5 646.1 155.5 634.15 155.5 625.75 163.95 617.3 172.4 617.3 184.35 617.3 196.3 625.75 204.7 634.2 213.15 646.1 213.15 658.05 213.15 666.45 204.7 674.9 196.3 674.9 184.35 Z"/>
</g>

<g id="color_0_Layer0_24_FILL">
<path fill="#FF6161" stroke="none" d="
M 674.9 278.15
Q 674.9 266.2 666.45 257.75 658.05 249.3 646.1 249.3 634.15 249.3 625.75 257.75 617.3 266.2 617.3 278.15 617.3 290.1 625.75 298.5 634.2 306.95 646.1 306.95 658.05 306.95 666.45 298.5 674.9 290.1 674.9 278.15 Z"/>
</g>

<g id="color_0_Layer0_25_FILL">
<path fill="#155F6C" stroke="none" d="
M 666.45 392.3
Q 674.9 383.9 674.9 371.95 674.9 360 666.45 351.55 658.05 343.1 646.1 343.1 634.15 343.1 625.75 351.55 617.3 360 617.3 371.95 617.3 383.9 625.75 392.3 634.2 400.75 646.1 400.75 658.05 400.75 666.45 392.3 Z"/>
</g>

<g id="color_0_Layer0_26_FILL">
<path fill="#FFFFFF" stroke="none" d="
M 666.45 486
Q 674.9 477.55 674.9 465.6 674.9 453.7 666.45 445.25 658.05 436.8 646.1 436.8 634.2 436.8 625.75 445.25 617.3 453.7 617.3 465.6 617.3 477.55 625.75 486 634.15 494.45 646.1 494.45 658.05 494.45 666.45 486 Z"/>
</g>

<g id="color_0_Layer0_27_MEMBER_0_FILL">
<path fill="#FFD100" stroke="none" d="
M 482 -127
L 426 -127 426 -71 482 -71 482 -127 Z"/>
</g>

<g id="color_0_Layer0_27_MEMBER_1_FILL">
<path fill="#9CBE1F" stroke="none" d="
M 482 -127
L 426 -127 426 -71 482 -71 482 -127 Z"/>
</g>

<g id="color_0_Layer0_27_MEMBER_2_FILL">
<path fill="#FE4A4A" stroke="none" d="
M 482 -127
L 426 -127 426 -71 482 -71 482 -127 Z"/>
</g>

<g id="color_0_Layer0_27_MEMBER_3_FILL">
<path fill="#11ACF0" stroke="none" d="
M 482 -127
L 426 -127 426 -71 482 -71 482 -127 Z"/>
</g>

<g id="color_0_Layer0_27_MEMBER_4_FILL">
<path fill="#525252" stroke="none" d="
M 482 -127
L 426 -127 426 -71 482 -71 482 -127 Z"/>
</g>

<g id="color_0_Layer0_27_MEMBER_5_FILL">
<path fill="#00E7E1" stroke="none" d="
M 482 -127
L 426 -127 426 -71 482 -71 482 -127 Z"/>
</g>

<g id="color_0_Layer0_27_MEMBER_6_FILL">
<path fill="#009BDE" stroke="none" d="
M 482 -127
L 426 -127 426 -71 482 -71 482 -127 Z"/>
</g>

<g id="color_0_Layer0_27_MEMBER_7_FILL">
<path fill="#686B6E" stroke="none" d="
M 482 -127
L 426 -127 426 -71 482 -71 482 -127 Z"/>
</g>

<g id="color_0_Layer0_27_MEMBER_8_FILL">
<path fill="#9CBE20" stroke="none" d="
M 482 -127
L 426 -127 426 -71 482 -71 482 -127 Z"/>
</g>

<g id="color_0_Layer0_27_MEMBER_9_FILL">
<path fill="#F8CA00" stroke="none" d="
M 482 -127
L 426 -127 426 -71 482 -71 482 -127 Z"/>
</g>

<g id="color_0_Layer0_27_MEMBER_10_FILL">
<path fill="#1090CE" stroke="none" d="
M 482 -127
L 426 -127 426 -71 482 -71 482 -127 Z"/>
</g>

<g id="color_0_Layer0_27_MEMBER_11_FILL">
<path fill="#02BFEA" stroke="none" d="
M 482 -127
L 426 -127 426 -71 482 -71 482 -127 Z"/>
</g>

<g id="color_0_Layer0_27_MEMBER_12_FILL">
<path fill="#FF3333" stroke="none" d="
M 482 -127
L 426 -127 426 -71 482 -71 482 -127 Z"/>
</g>

<g id="color_0_Layer0_27_MEMBER_13_FILL">
<path fill="#7F7F7F" stroke="none" d="
M 482 -127
L 426 -127 426 -71 482 -71 482 -127 Z"/>
</g>

<g id="color_0_Layer0_27_MEMBER_14_FILL">
<path fill="#7FC845" stroke="none" d="
M 482 -127
L 426 -127 426 -71 482 -71 482 -127 Z"/>
</g>

<g id="color_0_Layer0_27_MEMBER_15_FILL">
<path fill="#FFB600" stroke="none" d="
M 482 -127
L 426 -127 426 -71 482 -71 482 -127 Z"/>
</g>

<g id="color_0_Layer0_27_MEMBER_16_FILL">
<path fill="#74C987" stroke="none" d="
M 482 -127
L 426 -127 426 -71 482 -71 482 -127 Z"/>
</g>

<g id="color_0_Layer0_27_MEMBER_17_FILL">
<path fill="#52CFC5" stroke="none" d="
M 482 -127
L 426 -127 426 -71 482 -71 482 -127 Z"/>
</g>

<g id="color_0_Layer0_27_MEMBER_18_FILL">
<path fill="#73ACDA" stroke="none" d="
M 482 -127
L 426 -127 426 -71 482 -71 482 -127 Z"/>
</g>

<g id="color_0_Layer0_27_MEMBER_19_FILL">
<path fill="#FF5433" stroke="none" d="
M 482 -127
L 426 -127 426 -71 482 -71 482 -127 Z"/>
</g>

<g id="color_0_Layer0_27_MEMBER_20_FILL">
<path fill="#000000" stroke="none" d="
M 482 -127
L 426 -127 426 -71 482 -71 482 -127 Z"/>
</g>

<g id="color_0_Layer0_27_MEMBER_21_FILL">
<path fill="#52BC26" stroke="none" d="
M 482 -127
L 426 -127 426 -71 482 -71 482 -127 Z"/>
</g>

<g id="color_0_Layer0_27_MEMBER_22_FILL">
<path fill="#B49A81" stroke="none" d="
M 482 -127
L 426 -127 426 -71 482 -71 482 -127 Z"/>
</g>

<g id="color_0_Layer0_27_MEMBER_23_FILL">
<path fill="#11A188" stroke="none" d="
M 482 -127
L 426 -127 426 -71 482 -71 482 -127 Z"/>
</g>

<g id="color_0_Layer0_27_MEMBER_24_FILL">
<path fill="#2EAEEA" stroke="none" d="
M 482 -127
L 426 -127 426 -71 482 -71 482 -127 Z"/>
</g>

<g id="color_0_Layer0_27_MEMBER_25_FILL">
<path fill="#458ACB" stroke="none" d="
M 482 -127
L 426 -127 426 -71 482 -71 482 -127 Z"/>
</g>

<g id="color_0_Layer0_27_MEMBER_26_FILL">
<path fill="#E5875D" stroke="none" d="
M 482 -127
L 426 -127 426 -71 482 -71 482 -127 Z"/>
</g>

<g id="color_0_Layer0_27_MEMBER_27_FILL">
<path fill="#D572E9" stroke="none" d="
M 482 -127
L 426 -127 426 -71 482 -71 482 -127 Z"/>
</g>

<g id="color_0_Layer0_27_MEMBER_28_FILL">
<path fill="#9B83D7" stroke="none" d="
M 482 -127
L 426 -127 426 -71 482 -71 482 -127 Z"/>
</g>

<g id="color_0_Layer0_27_MEMBER_29_FILL">
<path fill="#F285B0" stroke="none" d="
M 482 -127
L 426 -127 426 -71 482 -71 482 -127 Z"/>
</g>

<g id="color_0_Layer0_27_MEMBER_30_FILL">
<path fill="#E73B7E" stroke="none" d="
M 482 -127
L 426 -127 426 -71 482 -71 482 -127 Z"/>
</g>

<g id="color_0_Layer0_27_MEMBER_31_FILL">
<path fill="#209CCD" stroke="none" d="
M 482 -127
L 426 -127 426 -71 482 -71 482 -127 Z"/>
</g>

<g id="color_0_Layer0_27_MEMBER_32_FILL">
<path fill="#CDD531" stroke="none" d="
M 482 -127
L 426 -127 426 -71 482 -71 482 -127 Z"/>
</g>

<g id="color_0_Layer0_27_MEMBER_33_FILL">
<path fill="#11ACF0" stroke="none" d="
M 482 -127
L 426 -127 426 -71 482 -71 482 -127 Z"/>
</g>

<g id="color_0_Layer0_28_MEMBER_0_FILL">
<path fill="#FAA7B2" stroke="none" d="
M -636.2 -234.9
L -636.2 -273.65 -674.95 -273.65 -674.95 -234.9 -636.2 -234.9 Z"/>
</g>

<g id="color_0_Layer0_28_MEMBER_1_FILL">
<path fill="#FAC0C8" stroke="none" d="
M -636.2 -234.9
L -636.2 -273.65 -674.95 -273.65 -674.95 -234.9 -636.2 -234.9 Z"/>
</g>

<g id="color_0_Layer0_28_MEMBER_2_FILL">
<path fill="#F8F08E" stroke="none" d="
M -636.2 -234.9
L -636.2 -273.65 -674.95 -273.65 -674.95 -234.9 -636.2 -234.9 Z"/>
</g>

<g id="color_0_Layer0_28_MEMBER_3_FILL">
<path fill="#00CCC7" stroke="none" d="
M -636.2 -234.9
L -636.2 -273.65 -674.95 -273.65 -674.95 -234.9 -636.2 -234.9 Z"/>
</g>

<g id="color_0_Layer0_28_MEMBER_4_FILL">
<path fill="#99CC00" stroke="none" d="
M -636.2 -234.9
L -636.2 -273.65 -674.95 -273.65 -674.95 -234.9 -636.2 -234.9 Z"/>
</g>

<g id="color_0_Layer0_28_MEMBER_5_FILL">
<path fill="#99CC00" stroke="none" d="
M -636.2 -234.9
L -636.2 -273.65 -674.95 -273.65 -674.95 -234.9 -636.2 -234.9 Z"/>
</g>

<g id="color_0_Layer0_28_MEMBER_6_FILL">
<path fill="#2DCE89" stroke="none" d="
M -636.2 -234.9
L -636.2 -273.65 -674.95 -273.65 -674.95 -234.9 -636.2 -234.9 Z"/>
</g>

<g id="color_0_Layer0_28_MEMBER_7_FILL">
<path fill="#F5365C" stroke="none" d="
M -636.2 -234.9
L -636.2 -273.65 -674.95 -273.65 -674.95 -234.9 -636.2 -234.9 Z"/>
</g>

<g id="color_0_Layer0_28_MEMBER_8_FILL">
<path fill="#F83C8E" stroke="none" d="
M -636.2 -234.9
L -636.2 -273.65 -674.95 -273.65 -674.95 -234.9 -636.2 -234.9 Z"/>
</g>

<g id="color_0_Layer0_28_MEMBER_9_FILL">
<path fill="#99CC00" stroke="none" d="
M -636.2 -234.9
L -636.2 -273.65 -674.95 -273.65 -674.95 -234.9 -636.2 -234.9 Z"/>
</g>

<g id="color_0_Layer0_28_MEMBER_10_FILL">
<path fill="#99CC00" stroke="none" d="
M -636.2 -234.9
L -636.2 -273.65 -674.95 -273.65 -674.95 -234.9 -636.2 -234.9 Z"/>
</g>

<g id="color_0_Layer0_28_MEMBER_11_FILL">
<path fill="#99CC00" stroke="none" d="
M -636.2 -234.9
L -636.2 -273.65 -674.95 -273.65 -674.95 -234.9 -636.2 -234.9 Z"/>
</g>

<g id="color_0_Layer0_28_MEMBER_12_FILL">
<path fill="#99CC00" stroke="none" d="
M -636.2 -234.9
L -636.2 -273.65 -674.95 -273.65 -674.95 -234.9 -636.2 -234.9 Z"/>
</g>

<g id="color_0_Layer0_28_MEMBER_13_FILL">
<path fill="#99CC00" stroke="none" d="
M -636.2 -234.9
L -636.2 -273.65 -674.95 -273.65 -674.95 -234.9 -636.2 -234.9 Z"/>
</g>

<g id="color_0_Layer0_28_MEMBER_14_FILL">
<path fill="#FD5D5E" stroke="none" d="
M -636.2 -234.9
L -636.2 -273.65 -674.95 -273.65 -674.95 -234.9 -636.2 -234.9 Z"/>
</g>

<g id="color_0_Layer0_28_MEMBER_15_FILL">
<path fill="#99CC00" stroke="none" d="
M -636.2 -234.9
L -636.2 -273.65 -674.95 -273.65 -674.95 -234.9 -636.2 -234.9 Z"/>
</g>

<path id="color_0_Layer0_22_1_STROKES" stroke="#7A7B7B" stroke-width="0.5" stroke-linejoin="miter" stroke-linecap="butt" stroke-miterlimit="10" fill="none" d="
M 331.90195236206057 160.7994255065918
Q 326.4085189819336 160.7994255065918 322.5470260620117 156.91494750976562 318.66254806518555 153.03046951293945 318.66254806518555 147.53703613281252 318.66254806518555 142.06658782958985 322.5470260620117 138.18210983276367 326.4315040588379 134.2976318359375 331.90195236206057 134.2976318359375 337.3953857421875 134.2976318359375 341.27986373901365 138.18210983276367 345.16434173583986 142.04360275268553 345.16434173583986 147.53703613281252 345.16434173583986 153.03046951293945 341.27986373901365 156.91494750976562 337.3953857421875 160.7994255065918 331.90195236206057 160.7994255065918 Z"/>
</defs>

<g transform="matrix( 1, 0, 0, 1, -41.75,-65.3) ">
<mask id="Mask_Mask_1">
<g transform="matrix( 1, 0, 0, 1, 350.7,148.75) ">
<use xlink:href="#Mask_b2c______0_1_MASK_0_FILL"/>
</g>
</mask>

<g mask="url(#Mask_Mask_1)">
<g transform="matrix( 1.458740234375, -0.38287353515625, 0.38287353515625, 1.458740234375, -833.8,60.1) ">
<use xlink:href="#b2c______0_Layer1_0_FILL"/>
</g>

<g transform="matrix( 0.214874267578125, 0, 0, 0.214935302734375, 147.2,37.45) ">
<use xlink:href="#b2c______0_Layer1_1_FILL"/>
</g>

<g transform="matrix( 4.06591796875, 0, 0, 4.06591796875, -2923.35,-1568.9) ">
<use xlink:href="#b2c______0_Layer1_2_FILL"/>
</g>

<g transform="matrix( 0.44940185546875, 0, 0, 0.448883056640625, -219.75,-122.75) ">
<use xlink:href="#b2c______0_Layer1_3_FILL"/>
</g>

<g transform="matrix( 1, 0, 0, 1, -187.35,-461.7) ">
<use xlink:href="#b2c______0_Layer1_4_FILL"/>
</g>

<g transform="matrix( 0.9999847412109375, 0, 0, 0.9999847412109375, -522.8,643.4) ">
<g transform="matrix( 0.704010009765625, 0, 0, 0.704010009765625, -352.85,-3.7) ">
<use xlink:href="#color_0_Layer0_0_MEMBER_0_FILL"/>
</g>

<g transform="matrix( 0.704010009765625, 0, 0, 0.704010009765625, -309.65,-3.7) ">
<use xlink:href="#color_0_Layer0_0_MEMBER_1_FILL"/>
</g>

<g transform="matrix( 0.704010009765625, 0, 0, 0.704010009765625, -266.35,-3.7) ">
<use xlink:href="#color_0_Layer0_0_MEMBER_2_FILL"/>
</g>

<g transform="matrix( 0.704010009765625, 0, 0, 0.704010009765625, -223.05,-3.7) ">
<use xlink:href="#color_0_Layer0_0_MEMBER_3_FILL"/>
</g>

<g transform="matrix( 0.704010009765625, 0, 0, 0.704010009765625, -179.75,-3.7) ">
<use xlink:href="#color_0_Layer0_0_MEMBER_4_FILL"/>
</g>

<g transform="matrix( 0.704010009765625, 0, 0, 0.704010009765625, -352.85,38.25) ">
<use xlink:href="#color_0_Layer0_0_MEMBER_5_FILL"/>
</g>

<g transform="matrix( 0.704010009765625, 0, 0, 0.704010009765625, -309.65,38.25) ">
<use xlink:href="#color_0_Layer0_0_MEMBER_6_FILL"/>
</g>

<g transform="matrix( 0.704010009765625, 0, 0, 0.704010009765625, -266.35,38.25) ">
<use xlink:href="#color_0_Layer0_0_MEMBER_7_FILL"/>
</g>

<g transform="matrix( 0.704010009765625, 0, 0, 0.704010009765625, -223.05,38.25) ">
<use xlink:href="#color_0_Layer0_0_MEMBER_8_FILL"/>
</g>

<g transform="matrix( 0.704010009765625, 0, 0, 0.704010009765625, -179.75,38.25) ">
<use xlink:href="#color_0_Layer0_0_MEMBER_9_FILL"/>
</g>

<g transform="matrix( 0.70404052734375, 0, 0, 0.70404052734375, -352.95,85.55) ">
<use xlink:href="#color_0_Layer0_1_FILL"/>
</g>

<g transform="matrix( 0.70404052734375, 0, 0, 0.70404052734375, -309.65,85.55) ">
<use xlink:href="#color_0_Layer0_2_FILL"/>
</g>

<g transform="matrix( 0.70404052734375, 0, 0, 0.70404052734375, -266.35,85.55) ">
<use xlink:href="#color_0_Layer0_3_FILL"/>
</g>

<g transform="matrix( 0.70404052734375, 0, 0, 0.70404052734375, -223.05,85.55) ">
<use xlink:href="#color_0_Layer0_4_FILL"/>
</g>

<g transform="matrix( 0.70404052734375, 0, 0, 0.70404052734375, -179.75,85.55) ">
<use xlink:href="#color_0_Layer0_5_FILL"/>
</g>

<g transform="matrix( 0.70404052734375, 0, 0, 0.70404052734375, -352.95,127.8) ">
<use xlink:href="#color_0_Layer0_6_FILL"/>
</g>

<g transform="matrix( 0.70404052734375, 0, 0, 0.70404052734375, -309.65,127.8) ">
<use xlink:href="#color_0_Layer0_7_FILL"/>
</g>

<g transform="matrix( 0.70404052734375, 0, 0, 0.70404052734375, -266.35,127.8) ">
<use xlink:href="#color_0_Layer0_8_FILL"/>
</g>

<g transform="matrix( 0.70404052734375, 0, 0, 0.70404052734375, -223.05,127.8) ">
<use xlink:href="#color_0_Layer0_9_FILL"/>
</g>

<g transform="matrix( 0.70404052734375, 0, 0, 0.70404052734375, -179.75,127.8) ">
<use xlink:href="#color_0_Layer0_10_FILL"/>
</g>

<g transform="matrix( 0.4597015380859375, 0, 0, 0.4597015380859375, 163.25,-66.5) ">
<use xlink:href="#color_0_Layer0_11_FILL"/>
</g>

<g transform="matrix( 0.4597015380859375, 0, 0, 0.4597015380859375, 163.25,-66.5) ">
<use xlink:href="#color_0_Layer0_12_FILL"/>
</g>

<g transform="matrix( 0.4597015380859375, 0, 0, 0.4597015380859375, 163.25,-66.5) ">
<use xlink:href="#color_0_Layer0_13_FILL"/>
</g>

<g transform="matrix( 0.4597015380859375, 0, 0, 0.4597015380859375, 163.25,-66.5) ">
<use xlink:href="#color_0_Layer0_14_FILL"/>
</g>

<g transform="matrix( 0.4597015380859375, 0, 0, 0.4597015380859375, 116.35,-66.5) ">
<use xlink:href="#color_0_Layer0_15_FILL"/>
</g>

<g transform="matrix( 0.4597015380859375, 0, 0, 0.4597015380859375, 116.35,-66.5) ">
<use xlink:href="#color_0_Layer0_16_FILL"/>
</g>

<g transform="matrix( 0.4597015380859375, 0, 0, 0.4597015380859375, 116.35,-66.5) ">
<use xlink:href="#color_0_Layer0_17_FILL"/>
</g>

<g transform="matrix( 0.4597015380859375, 0, 0, 0.4597015380859375, 116.35,-66.5) ">
<use xlink:href="#color_0_Layer0_18_FILL"/>
</g>

<g transform="matrix( 0.4597015380859375, 0, 0, 0.4597015380859375, 210.15,-66.5) ">
<use xlink:href="#color_0_Layer0_19_FILL"/>
</g>

<g transform="matrix( 0.4597015380859375, 0, 0, 0.4597015380859375, 210.15,-66.5) ">
<use xlink:href="#color_0_Layer0_20_FILL"/>
</g>

<g transform="matrix( 0.4597015380859375, 0, 0, 0.4597015380859375, 210.15,-66.5) ">
<use xlink:href="#color_0_Layer0_21_FILL"/>
</g>

<g transform="matrix( 0.4597015380859375, 0, 0, 0.4597015380859375, 210.15,-66.5) ">
<use xlink:href="#color_0_Layer0_22_1_STROKES" transform="matrix( 2.175323486328125, 0, 0, 2.175323486328125, -457.1,144.65) "/>
</g>

<g transform="matrix( 0.4597015380859375, 0, 0, 0.4597015380859375, 158.6,-66.5) ">
<use xlink:href="#color_0_Layer0_23_FILL"/>
</g>

<g transform="matrix( 0.4597015380859375, 0, 0, 0.4597015380859375, 158.6,-66.5) ">
<use xlink:href="#color_0_Layer0_24_FILL"/>
</g>

<g transform="matrix( 0.4597015380859375, 0, 0, 0.4597015380859375, 158.6,-66.5) ">
<use xlink:href="#color_0_Layer0_25_FILL"/>
</g>

<g transform="matrix( 0.4597015380859375, 0, 0, 0.4597015380859375, 158.6,-66.5) ">
<use xlink:href="#color_0_Layer0_26_FILL"/>
</g>

<g transform="matrix( 0.499725341796875, 0, 0, 0.499725341796875, 88.9,-117.15) ">
<use xlink:href="#color_0_Layer0_27_MEMBER_0_FILL"/>
</g>

<g transform="matrix( 0.499725341796875, 0, 0, 0.499725341796875, 53.9,-117.15) ">
<use xlink:href="#color_0_Layer0_27_MEMBER_1_FILL"/>
</g>

<g transform="matrix( 0.499725341796875, 0, 0, 0.499725341796875, 123.35,-117.15) ">
<use xlink:href="#color_0_Layer0_27_MEMBER_2_FILL"/>
</g>

<g transform="matrix( 0.499725341796875, 0, 0, 0.499725341796875, -15.7,-117.15) ">
<use xlink:href="#color_0_Layer0_27_MEMBER_3_FILL"/>
</g>

<g transform="matrix( 0.499725341796875, 0, 0, 0.499725341796875, -120.9,-117.15) ">
<use xlink:href="#color_0_Layer0_27_MEMBER_4_FILL"/>
</g>

<g transform="matrix( 0.499725341796875, 0, 0, 0.499725341796875, -50.75,-117.15) ">
<use xlink:href="#color_0_Layer0_27_MEMBER_5_FILL"/>
</g>

<g transform="matrix( 0.499725341796875, 0, 0, 0.499725341796875, 18.4,-82.05) ">
<use xlink:href="#color_0_Layer0_27_MEMBER_6_FILL"/>
</g>

<g transform="matrix( 0.499725341796875, 0, 0, 0.499725341796875, -120.9,-82.05) ">
<use xlink:href="#color_0_Layer0_27_MEMBER_7_FILL"/>
</g>

<g transform="matrix( 0.499725341796875, 0, 0, 0.499725341796875, 53.9,-82.05) ">
<use xlink:href="#color_0_Layer0_27_MEMBER_8_FILL"/>
</g>

<g transform="matrix( 0.499725341796875, 0, 0, 0.499725341796875, 88.9,-82.05) ">
<use xlink:href="#color_0_Layer0_27_MEMBER_9_FILL"/>
</g>

<g transform="matrix( 0.499725341796875, 0, 0, 0.499725341796875, -15.7,-82.05) ">
<use xlink:href="#color_0_Layer0_27_MEMBER_10_FILL"/>
</g>

<g transform="matrix( 0.499725341796875, 0, 0, 0.499725341796875, -50.75,-82.05) ">
<use xlink:href="#color_0_Layer0_27_MEMBER_11_FILL"/>
</g>

<g transform="matrix( 0.499725341796875, 0, 0, 0.499725341796875, 123.85,-82.05) ">
<use xlink:href="#color_0_Layer0_27_MEMBER_12_FILL"/>
</g>

<g transform="matrix( 0.499725341796875, 0, 0, 0.499725341796875, -120.9,-47.2) ">
<use xlink:href="#color_0_Layer0_27_MEMBER_13_FILL"/>
</g>

<g transform="matrix( 0.499725341796875, 0, 0, 0.499725341796875, 53.9,-47.2) ">
<use xlink:href="#color_0_Layer0_27_MEMBER_14_FILL"/>
</g>

<g transform="matrix( 0.499725341796875, 0, 0, 0.499725341796875, 88.9,-47.2) ">
<use xlink:href="#color_0_Layer0_27_MEMBER_15_FILL"/>
</g>

<g transform="matrix( 0.499725341796875, 0, 0, 0.499725341796875, 18.4,-47.2) ">
<use xlink:href="#color_0_Layer0_27_MEMBER_16_FILL"/>
</g>

<g transform="matrix( 0.499725341796875, 0, 0, 0.499725341796875, -15.7,-47.2) ">
<use xlink:href="#color_0_Layer0_27_MEMBER_17_FILL"/>
</g>

<g transform="matrix( 0.499725341796875, 0, 0, 0.499725341796875, -50.75,-47.2) ">
<use xlink:href="#color_0_Layer0_27_MEMBER_18_FILL"/>
</g>

<g transform="matrix( 0.499725341796875, 0, 0, 0.499725341796875, 123.85,-46.35) ">
<use xlink:href="#color_0_Layer0_27_MEMBER_19_FILL"/>
</g>

<g transform="matrix( 0.499725341796875, 0, 0, 0.499725341796875, -120.9,-11.4) ">
<use xlink:href="#color_0_Layer0_27_MEMBER_20_FILL"/>
</g>

<g transform="matrix( 0.499725341796875, 0, 0, 0.499725341796875, 53.9,-11.4) ">
<use xlink:href="#color_0_Layer0_27_MEMBER_21_FILL"/>
</g>

<g transform="matrix( 0.499725341796875, 0, 0, 0.499725341796875, 88.9,-11.4) ">
<use xlink:href="#color_0_Layer0_27_MEMBER_22_FILL"/>
</g>

<g transform="matrix( 0.499725341796875, 0, 0, 0.499725341796875, 18.4,-11.4) ">
<use xlink:href="#color_0_Layer0_27_MEMBER_23_FILL"/>
</g>

<g transform="matrix( 0.499725341796875, 0, 0, 0.499725341796875, -15.7,-11.4) ">
<use xlink:href="#color_0_Layer0_27_MEMBER_24_FILL"/>
</g>

<g transform="matrix( 0.499725341796875, 0, 0, 0.499725341796875, -50.75,-11.4) ">
<use xlink:href="#color_0_Layer0_27_MEMBER_25_FILL"/>
</g>

<g transform="matrix( 0.499725341796875, 0, 0, 0.499725341796875, 123.85,-11.4) ">
<use xlink:href="#color_0_Layer0_27_MEMBER_26_FILL"/>
</g>

<g transform="matrix( 0.499725341796875, 0, 0, 0.499725341796875, -85.95,-117.15) ">
<use xlink:href="#color_0_Layer0_27_MEMBER_27_FILL"/>
</g>

<g transform="matrix( 0.499725341796875, 0, 0, 0.499725341796875, -85.95,-82.05) ">
<use xlink:href="#color_0_Layer0_27_MEMBER_28_FILL"/>
</g>

<g transform="matrix( 0.499725341796875, 0, 0, 0.499725341796875, -85.95,-47.2) ">
<use xlink:href="#color_0_Layer0_27_MEMBER_29_FILL"/>
</g>

<g transform="matrix( 0.499725341796875, 0, 0, 0.499725341796875, -85.95,-11.4) ">
<use xlink:href="#color_0_Layer0_27_MEMBER_30_FILL"/>
</g>

<g transform="matrix( 0.499725341796875, 0, 0, 0.499725341796875, 18.4,-117.15) ">
<use xlink:href="#color_0_Layer0_27_MEMBER_31_FILL"/>
</g>

<g transform="matrix( 0.499725341796875, 0, 0, 0.499725341796875, 53.9,23.55) ">
<use xlink:href="#color_0_Layer0_27_MEMBER_32_FILL"/>
</g>

<g transform="matrix( 0.499725341796875, 0, 0, 0.499725341796875, -15.7,23.55) ">
<use xlink:href="#color_0_Layer0_27_MEMBER_33_FILL"/>
</g>

<g transform="matrix( 0.7942962646484375, 0, 0, 0.7942962646484375, 915.85,36.55) ">
<use xlink:href="#color_0_Layer0_28_MEMBER_0_FILL"/>
</g>

<g transform="matrix( 0.7942962646484375, 0, 0, 0.7942962646484375, 955.55,36.55) ">
<use xlink:href="#color_0_Layer0_28_MEMBER_1_FILL"/>
</g>

<g transform="matrix( 0.7942962646484375, 0, 0, 0.7942962646484375, 915.85,76.35) ">
<use xlink:href="#color_0_Layer0_28_MEMBER_2_FILL"/>
</g>

<g transform="matrix( 0.7942962646484375, 0, 0, 0.7942962646484375, 955.55,76.35) ">
<use xlink:href="#color_0_Layer0_28_MEMBER_3_FILL"/>
</g>

<g transform="matrix( 0.7942962646484375, 0, 0, 0.7942962646484375, 915.85,116) ">
<use xlink:href="#color_0_Layer0_28_MEMBER_4_FILL"/>
</g>

<g transform="matrix( 0.7942962646484375, 0, 0, 0.7942962646484375, 955.55,116) ">
<use xlink:href="#color_0_Layer0_28_MEMBER_5_FILL"/>
</g>

<g transform="matrix( 0.7942962646484375, 0, 0, 0.7942962646484375, 915.85,155.7) ">
<use xlink:href="#color_0_Layer0_28_MEMBER_6_FILL"/>
</g>

<g transform="matrix( 0.7942962646484375, 0, 0, 0.7942962646484375, 955.55,155.7) ">
<use xlink:href="#color_0_Layer0_28_MEMBER_7_FILL"/>
</g>

<g transform="matrix( 0.7942962646484375, 0, 0, 0.7942962646484375, 995.2,36.55) ">
<use xlink:href="#color_0_Layer0_28_MEMBER_8_FILL"/>
</g>

<g transform="matrix( 0.7942962646484375, 0, 0, 0.7942962646484375, 1034.85,36.55) ">
<use xlink:href="#color_0_Layer0_28_MEMBER_9_FILL"/>
</g>

<g transform="matrix( 0.7942962646484375, 0, 0, 0.7942962646484375, 995.2,76.35) ">
<use xlink:href="#color_0_Layer0_28_MEMBER_10_FILL"/>
</g>

<g transform="matrix( 0.7942962646484375, 0, 0, 0.7942962646484375, 1034.85,76.35) ">
<use xlink:href="#color_0_Layer0_28_MEMBER_11_FILL"/>
</g>

<g transform="matrix( 0.7942962646484375, 0, 0, 0.7942962646484375, 995.2,116) ">
<use xlink:href="#color_0_Layer0_28_MEMBER_12_FILL"/>
</g>

<g transform="matrix( 0.7942962646484375, 0, 0, 0.7942962646484375, 1034.85,116) ">
<use xlink:href="#color_0_Layer0_28_MEMBER_13_FILL"/>
</g>

<g transform="matrix( 0.7942962646484375, 0, 0, 0.7942962646484375, 995.2,155.7) ">
<use xlink:href="#color_0_Layer0_28_MEMBER_14_FILL"/>
</g>

<g transform="matrix( 0.7942962646484375, 0, 0, 0.7942962646484375, 1034.85,155.7) ">
<use xlink:href="#color_0_Layer0_28_MEMBER_15_FILL"/>
</g>
</g>
</g>
</g>
</svg>
