<svg width="188" height="63" viewBox="0 0 188 63" fill="none" xmlns="http://www.w3.org/2000/svg">
<mask id="mask0_1045_11108" style="mask-type:alpha" maskUnits="userSpaceOnUse" x="0" y="0" width="188" height="63">
<rect width="188" height="63" fill="#C4C4C4"/>
</mask>
<g mask="url(#mask0_1045_11108)">
<path d="M95.6518 70.7205C94.3271 69.968 93.0025 69.2154 91.6778 68.0866C89.0285 65.8289 86.9468 63.0068 86.1899 59.6202C85.2437 54.9167 87.893 49.6487 92.8132 48.3317C98.4904 46.8266 103.411 51.342 108.898 50.2132C112.872 49.2725 114.008 44.5689 110.412 42.4994C107.195 40.618 102.654 41.1824 100.194 37.984C99.2473 36.667 99.0581 34.9737 99.2473 33.2805C99.6258 31.7753 100.383 30.2702 101.518 29.1414C103.221 27.4481 105.303 26.1311 107.763 25.7548C112.683 25.0023 115.143 28.5769 118.171 31.5872C119.874 33.2805 122.334 32.5279 123.47 30.6465C124.984 28.3888 124.605 25.1904 123.848 22.7446C123.281 20.2987 122.145 18.041 121.767 15.7833C121.01 12.2087 121.767 8.44583 125.362 6.75256C126.687 6.18814 128.201 6 129.715 6C134.824 6 139.934 8.06955 141.447 13.1494C142.204 15.7833 142.015 18.4173 141.637 21.0513C141.258 23.309 140.88 25.5667 141.258 27.8244C141.637 30.0821 143.34 32.3398 145.611 32.9042C150.909 34.2212 150.531 26.5074 153.18 24.0615C155.073 22.3683 157.911 22.1801 160.371 22.7446C162.453 23.1208 164.534 23.6853 166.048 25.0023C169.455 27.8244 169.265 32.3398 168.319 36.2907C167.562 39.6773 165.67 43.8164 167.941 47.0148C169.455 49.2725 172.293 50.025 174.943 50.4013C178.538 50.7776 181.944 51.1539 184.594 53.5997C187.054 55.8574 188 58.8677 188 62.0661C187.811 67.5221 183.269 72.0375 177.781 72.0375C162.074 72.2257 146.178 72.2257 130.472 72.4138C124.984 72.4138 119.496 72.602 113.819 72.602C109.845 72.602 105.681 73.3545 101.707 72.7901C99.6258 72.4138 97.5442 71.6612 95.6518 70.7205Z" fill="#CC316E"/>
<path d="M40.8391 83.3492C31.9481 88.8863 18.7149 92.7827 9.20355 86.6304C6.72233 84.9898 4.65464 82.3238 4.44787 79.4527C3.82757 73.9156 8.99678 69.609 14.166 69.1988C18.0946 68.7887 21.8164 70.0192 25.5383 71.0445C30.0872 72.4801 35.8767 74.3258 40.4256 72.0699C47.4557 68.5836 49.5234 56.8942 50.764 49.9216C51.3843 46.8454 53.2453 40.488 50.9708 37.822C48.4896 35.156 46.2151 40.0779 46.0084 41.9235C45.5948 46.8454 45.5948 51.5622 44.1474 56.484C42.7001 61.8161 40.2188 66.7379 33.809 65.0973C18.9217 61.4059 35.2564 40.8982 35.6699 33.1052C35.6699 32.0798 35.6699 31.0544 35.0496 30.2341C33.6022 28.5935 31.121 29.2087 30.0872 30.8494C29.2601 32.0798 29.0533 33.5154 28.8466 34.9509C28.2263 39.2575 26.9856 43.7692 25.5383 47.8708C24.2977 50.947 22.6435 54.2282 19.3352 55.8688C16.0269 57.3044 11.8915 56.0739 9.41032 53.818C6.10202 50.5368 6.10202 45.6149 7.13586 41.5134C8.37647 36.5915 10.0306 31.8748 12.0983 27.158C12.7186 25.5174 13.5457 23.2615 12.5118 21.6209C11.6848 20.1853 9.61709 19.9803 7.96294 19.7752C0.932804 19.5701 -7.33794 19.9803 -13.9545 16.699C-17.8831 14.8533 -20.9847 11.5721 -21.8117 7.47054C-22.8456 2.75376 -19.5373 -4.01379 -13.9545 -4.01379C-11.8868 -4.01379 -9.81916 -3.19348 -7.75147 -2.57825C-3.40933 -0.937633 1.13957 0.497909 5.68848 1.31822C10.4442 2.34361 15.1998 2.34361 19.9555 2.95884C28.433 3.98422 36.497 6.85531 44.1474 10.5467C50.764 13.6229 57.5874 17.5193 61.516 23.6717C65.4446 29.824 65.6514 37.6169 64.204 44.5896C62.1363 55.6637 57.5874 66.7379 50.3505 75.3512C47.4557 78.4273 44.3542 81.0933 40.8391 83.3492Z" fill="#10CFC9"/>
<path d="M107.419 10.1366C103.904 10.7518 100.595 12.1873 97.287 13.2127C87.9824 16.494 79.2981 14.4432 72.4747 7.06041C68.3394 2.54871 64.8243 -2.57823 61.3092 -7.70516C60.4822 -8.93563 59.2415 -10.1661 58.0009 -11.1915C54.6926 -13.2423 50.9708 -11.1915 50.9708 -7.29501C50.9708 -4.83408 51.7979 -2.16807 52.8317 0.292857C56.7603 9.72642 64.4108 24.0818 52.8317 33.1052C50.1437 36.1814 46.8354 38.4373 43.5271 40.6931C41.6662 42.1287 32.9819 46.8454 35.4632 50.1267C36.0835 50.947 37.5308 50.947 38.5647 50.947C44.3542 49.9216 50.5573 49.3064 56.5536 49.1013C60.4822 48.8962 64.8243 48.8962 68.3394 50.5368C73.095 52.7927 76.6101 56.6891 80.3319 60.1755L92.7381 71.6598C93.5651 72.4801 95.0125 73.5055 96.0464 72.8903C96.6667 72.6852 97.0802 72.07 97.287 71.4547C98.5276 67.9684 97.4937 63.4567 96.8734 60.1755C94.8057 49.5114 92.5313 37.617 98.5276 27.5682C101.629 22.4412 106.385 18.5447 109.693 13.4178C110.727 11.367 110.107 9.72642 107.419 10.1366Z" fill="#FFD100"/>
<path d="M139.468 39.8728C139.054 41.5134 138.641 43.3591 138.227 44.9997C136.366 51.5622 134.299 58.7399 130.784 64.4821C129.336 66.943 126.855 70.4293 123.753 70.8395C118.998 71.6598 117.55 64.6871 116.93 61.2008C115.896 55.0485 116.103 49.1013 116.103 42.9489C116.31 37.0017 116.723 30.8494 118.998 25.3123C115.896 29.6189 112.795 33.9255 109.28 38.2322C103.904 44.7946 98.3208 51.5622 91.0839 56.0739C90.6704 56.279 90.2569 56.4841 90.0501 56.6891C87.5689 58.1247 84.0538 59.5602 81.159 57.7145C70.2003 50.5368 99.1479 18.7498 107.212 15.8787C107.212 15.8787 67.0988 29.4138 63.7905 17.9295C62.1363 12.3924 71.8545 7.47055 75.5763 5.62485C82.8132 1.93346 90.4636 -0.73255 98.5276 -2.57825C106.178 -4.42394 114.242 -5.85949 122.306 -5.03918C127.268 -4.62902 132.438 -2.9884 135.332 1.11315C143.81 12.5975 142.569 26.9529 139.468 39.8728Z" fill="#0071CE"/>
<path d="M110.107 44.7947C110.107 49.5114 104.317 51.7673 100.595 49.1013C92.9449 43.7693 103.697 34.3357 108.866 41.1033C109.693 42.3337 110.107 43.5642 110.107 44.7947Z" fill="#F5C2CB"/>
<path d="M74.5424 22.0311C73.3018 24.6971 67.0987 26.953 68.1326 21.6209C68.5461 19.9803 70.407 18.3397 72.2679 18.9549C74.7492 19.5702 75.1627 20.8006 74.5424 22.0311Z" fill="#F5C2CB"/>
<path d="M11.2712 10.1365C11.2712 11.5721 10.8577 12.8026 9.82381 13.8279C6.51551 16.9041 1.75984 13.0076 1.9666 9.11116C2.17337 5.62484 5.68844 3.98422 8.5832 5.62484C10.2373 6.65023 11.0644 8.49592 11.2712 10.1365Z" fill="#FFD100"/>
<path d="M17.8878 37.4119C17.0607 35.7713 17.6811 34.1307 19.3352 33.3104C20.1623 32.9002 21.1961 32.6951 22.0232 32.9002C25.1247 33.7205 24.7112 37.617 22.23 38.8475C20.5758 39.6678 18.7149 39.0525 17.8878 37.4119Z" fill="#FFD100"/>
</g>
</svg>
