<svg xmlns="http://www.w3.org/2000/svg" width="320" height="175" fill="none" viewBox="0 0 320 175">
    <path fill="#fff" stroke="#999" stroke-width=".914" d="M0.457 0.457H319.543V174.543H0.457z"/>
    <path fill="#999" d="M19.666 43.188v10.176c0 .256-.102.346-.37.346-.244.013-1.166.026-2.1-.013.154.269.333.717.397.986 1.19.013 1.984-.013 2.445-.167.448-.166.64-.448.64-1.152V43.188h-1.012zm3.06 3.226c1.088 1.83 2.112 4.211 2.419 5.722l.998-.423c-.32-1.523-1.395-3.853-2.521-5.645l-.896.346zm-6.4-.256c-.308 1.715-1.012 3.917-2.15 5.26.255.103.665.334.895.5 1.152-1.42 1.895-3.712 2.304-5.568l-1.05-.192zm19.315-.922h-1.178v-.883h1.178v.883zm1.958 2.317h-1.254V45.98h1.254v1.574zm-4.992-1.574h1.152v1.574h-1.152V45.98zm3.034 0v1.574h-1.19V45.98h1.19zm-1.959-.743h-1.881v3.047h6.63v-3.047H36.41v-.883h2.355v-.793h-7.36v.793h2.278v.883zm4.43 4.544v-.73h-5.978v.73h5.977zm-6.708-.012c-.218-.346-1.165-1.767-1.523-2.24v-.884h1.433v-.883h-1.433v-2.765h-.87v2.765h-1.793v.883h1.69c-.371 1.741-1.152 3.738-1.946 4.8.154.218.384.576.487.82.589-.832 1.139-2.176 1.561-3.572v5.978h.87v-6.016c.372.627.82 1.408 1 1.818l.524-.704zm1.408 2.01c-.422.64-1.203 1.407-1.946 1.894.205.153.461.396.59.576.767-.538 1.574-1.306 2.086-2.074l-.73-.397zm5.952-.295v-.768H31.34v.768h3.238v2.253c0 .128-.038.179-.192.179h-1.254c.115.217.243.537.282.78.806 0 1.318-.012 1.65-.14.32-.128.398-.371.398-.807v-2.265h3.302zm-2.38.768c.64.614 1.394 1.472 1.766 2.01l.704-.513c-.372-.537-1.165-1.356-1.805-1.932l-.666.435zM49.99 46.99h-3.047v-.96h3.047v.96zm0 1.613h-3.047v-.947h3.047v.947zm0 1.638h-3.047v-.96h3.047v.96zm-3.904-4.915v5.62h4.787v-5.62h-2.368c.115-.294.243-.64.358-.973h2.522v-.73h-5.786v.73h2.381c-.077.32-.18.666-.282.973h-1.612zm2.828 6.195c.704.474 1.536 1.203 1.959 1.715l.691-.448c-.422-.486-1.254-1.19-1.997-1.638l-.653.371zm-1.766-.358c-.486.589-1.306 1.165-2.112 1.536.192.128.5.448.64.601.806-.46 1.715-1.177 2.266-1.881l-.794-.256zm-3.098-5.978h-2.496v-.947h2.496v.947zm0 1.639h-2.496v-.973h2.496v.973zm.87-3.29h-4.223v3.994h4.224v-3.994zm-1.625 7.77h2.163v-.73h-2.163v-1.37h2.381v-.742h-5.734v.742h2.534v3.405c-.384-.307-.704-.717-.947-1.241.051-.474.077-.973.102-1.46h-.793c-.064 1.562-.282 3.277-1.05 4.199.205.14.486.435.602.614.486-.589.793-1.408.972-2.33 1.152 1.716 3.06 2.023 5.824 2.023h4.11c.05-.256.204-.614.345-.82-.743.026-3.891.026-4.455.026-1.574-.012-2.88-.09-3.89-.524v-1.792zm11.43 4.928h.833c-.606-.982-1.041-1.955-1.306-2.919-.256-.964-.384-1.984-.384-3.059 0-1.05.128-2.052.384-3.008s.691-1.92 1.306-2.893h-.832c-.666.88-1.17 1.83-1.51 2.855-.334 1.024-.5 2.039-.5 3.046 0 .563.047 1.1.14 1.613.095.512.227 1.011.398 1.497.179.487.392.965.64 1.434.247.478.524.956.832 1.434zm11.083-9.87c-.5.858-1.204 1.69-1.997 2.433-.294-.282-.666-.602-1.075-.909.55-.64 1.177-1.498 1.702-2.24l-.128-.051h3.405v-.883h-3.072v-1.703h-.947v1.703H60.7v.883h2.623c-.332.576-.793 1.254-1.228 1.817-.243-.179-.474-.345-.704-.486l-.576.614c.768.525 1.69 1.268 2.29 1.856-.767.615-1.6 1.152-2.444 1.562.23.192.5.486.653.717 2.086-1.088 4.109-2.919 5.338-4.954l-.845-.358zm-5.71-2.918h-3.506v.768h3.507v-.768zm.372 1.677h-4.505v.781h4.505v-.78zm-.333 1.728h-3.61v.755h3.61v-.755zm-3.61 2.458h3.61v-.768h-3.61v.768zm2.804 1.728v2.15h-2.01v-2.15h2.01zm.82-.781h-3.636v4.288h.806v-.589h2.83v-3.699zm6.489-1.331c-1.242 2.227-3.61 4.032-6.336 4.992.23.205.499.55.627.768 1.408-.538 2.7-1.28 3.814-2.189.87.742 1.843 1.626 2.343 2.214l.717-.652c-.513-.59-1.51-1.447-2.381-2.15.832-.769 1.536-1.64 2.086-2.586l-.87-.397zm12.441-5.94c-.205.666-.601 1.626-.934 2.215l.78.218c.346-.576.73-1.447 1.063-2.202l-.909-.23zm-2.227 2.177c-.115-.576-.5-1.421-.921-2.061l-.756.256c.384.653.755 1.523.87 2.112l.807-.307zm-3.481 5.632v2.368H71.03v-2.368h2.343zm-.141-4.237v1.267h-1.754c.09-.41.166-.832.23-1.267h1.524zm0-2.087v1.28H71.81c.051-.41.09-.844.128-1.28h1.293zm-2.394 5.492c.166-.41.32-.845.435-1.306h2.855v-2.1h.755v-.806h-.755v-2.112H69.48v.832h1.55c-.027.436-.078.87-.116 1.28h-2.087v.807H70.8c-.064.435-.141.857-.23 1.267h-1.153v.832h.935c-.371 1.229-.91 2.253-1.716 3.02.193.18.525.551.64.743.333-.345.628-.717.884-1.113v3.379h.87v-.691h3.277V49.96h-3.469zm9.69.844h-2.496v-1.856h1.97v-.87h-1.97V46.35h2.201v-.87h-5.222v.87h2.1v1.728h-1.92v.87h1.92v1.856h-2.395v.896h2.394v2.996h.922V51.7h2.496v-.896zm1.702-.55c-.14 1.126-.41 2.266-.832 3.046.205.064.589.244.743.359.422-.82.73-2.048.908-3.251l-.819-.154zm3.43-.934c.116.268.193.512.244.73l.755-.36c-.18-.69-.743-1.778-1.267-2.598l-.704.308c.217.345.435.742.627 1.139-.704.025-1.408.064-2.048.09.883-1.101 1.907-2.612 2.65-3.815l-.82-.358c-.358.69-.844 1.523-1.37 2.33-.204-.27-.473-.577-.78-.884.486-.691 1.024-1.715 1.46-2.573l-.846-.32c-.269.704-.717 1.664-1.139 2.381-.128-.115-.256-.23-.384-.333l-.486.627c.601.538 1.28 1.255 1.676 1.83-.281.423-.575.807-.857 1.14-.294.013-.589.026-.845.026l.077.857 2.086-.102v5.273h.858v-5.324l1.114-.064zm-.652 1.113c.345.794.704 1.818.819 2.483l.755-.256c-.115-.665-.486-1.676-.857-2.457l-.717.23zm3.174.576h3.251v2.445h-3.25v-2.445zm3.251-6.425v2.355h-3.25v-2.355h3.25zm0 5.568h-3.25v-2.356h3.25v2.356zm.935 3.302v-9.728H87.26v9.728h-1.356v.87h7.45v-.87h-.986zm6.566-.154v-3.148h5.248V53.3h-5.248zm3.174-8.166c-.55 1.114-1.356 2.125-2.303 2.995-.59-.64-1.562-1.459-2.42-2.06.333-.295.627-.615.91-.935h3.813zm3.034 4.147h-5.235c1.485-1.254 2.739-2.829 3.494-4.723l-.627-.333-.179.051h-3.61c.27-.37.512-.742.73-1.1l-1.063-.218c-.742 1.382-2.201 3.02-4.3 4.16.217.166.537.512.665.73.615-.359 1.165-.756 1.677-1.165.845.627 1.78 1.446 2.343 2.099-1.447 1.14-3.124 1.984-4.75 2.458.206.179.449.576.564.832 1.062-.346 2.125-.832 3.149-1.434v4.045h.934v-.512h5.248v.537h.96v-5.427zm6.515.627c-.243-.307-1.293-1.408-1.651-1.728v-.627h1.562v-.768c.217.115.486.256.614.346.461-.64.896-1.587 1.216-2.573 1.574-.14 3.354-.371 4.621-.691l-.717-.666c-.922.23-2.458.474-3.904.627l-.717-.153c-.281 1.113-.729 2.227-1.318 2.995h-1.357v-2.202c.576-.153 1.126-.32 1.574-.524l-.716-.666c-.832.41-2.356.768-3.687.998.115.192.243.5.282.704.525-.076 1.101-.179 1.651-.294v1.984h-1.869v.883h1.715c-.409 1.447-1.164 3.123-1.868 4.032.166.23.396.602.499.87.537-.78 1.088-2.009 1.523-3.263v5.516h.896v-5.606c.41.512.896 1.178 1.088 1.523l.563-.717zm5.12-5.337c.525.742 1.063 1.792 1.293 2.457l.819-.37c-.243-.666-.793-1.652-1.331-2.394l-.781.307zm-.998 1.805c-.077-.487-.32-1.216-.602-1.754l-.793.205c.268.563.499 1.305.55 1.779l.845-.23zm-.179 5.017v-1.229h1.804v1.23H115.6zm-2.548-1.229h1.677v1.23h-1.677v-1.23zm1.677-1.92v1.204h-1.677v-1.204h1.677zm2.675 0v1.204H115.6v-1.204h1.804zm1.588 3.15h-.704v-3.918H115.6v-.832h-.871v.832h-2.547v3.917h-.909v.794h.909v2.483h.87v-2.483h4.352v1.472c0 .153-.064.192-.23.205-.154 0-.704.012-1.306-.013.128.217.282.589.333.832.807 0 1.319-.013 1.639-.154.345-.14.448-.41.448-.87v-1.472h.704v-.794zm.32 4.838h.819c.665-.88 1.165-1.827 1.497-2.842.342-1.024.512-2.04.512-3.046 0-.564-.046-1.101-.14-1.613-.094-.512-.231-1.011-.41-1.498-.171-.495-.38-.977-.627-1.446-.248-.478-.525-.956-.832-1.434h-.819c.597.981 1.024 1.959 1.28 2.931.264.965.396 1.984.396 3.06 0 1.04-.128 2.043-.384 3.008-.256.955-.686 1.915-1.292 2.88zM32.602 23.047v-1.529h-8.307c.281-2.112.301-4.103.321-5.712h-1.609c-.02 1.589 0 3.6-.302 5.712h-7.663v1.529h7.422c-.825 3.801-2.836 7.663-7.824 9.836.422.301.905.824 1.126 1.227 4.888-2.233 7.06-6.095 8.026-9.957 1.589 4.566 4.143 8.126 8.005 9.957.262-.443.764-1.066 1.126-1.408-3.882-1.59-6.496-5.23-7.904-9.655h7.583zm15.568-3.762h-1.85v-1.387h1.85v1.387zm3.078 3.641h-1.972v-2.474h1.972v2.474zm-7.845-2.474h1.81v2.474h-1.81v-2.474zm4.767 0v2.474H46.3v-2.474h1.87zm-3.077-1.167h-2.957v4.788h10.419v-4.788h-3.178v-1.387h3.701V16.65H41.512v1.248h3.58v1.387zm6.96 7.141V25.28h-9.394v1.146h9.393zm-10.54-.02c-.343-.543-1.831-2.776-2.394-3.52v-1.388h2.252V20.11H39.12v-4.345H37.75v4.345h-2.816v1.388h2.655c-.583 2.735-1.81 5.873-3.057 7.543.241.342.603.905.764 1.287.925-1.307 1.79-3.42 2.454-5.612v9.394h1.368v-9.454c.583.986 1.287 2.213 1.569 2.856l.824-1.106zm2.212 3.158c-.664 1.006-1.89 2.212-3.058 2.977.322.241.725.623.926.905 1.207-.845 2.474-2.052 3.278-3.259l-1.146-.623zm9.353-.463v-1.207H41.412v1.207H46.5v3.54c0 .201-.06.282-.302.282h-1.971c.18.342.382.845.442 1.227 1.267 0 2.072-.02 2.595-.221.503-.202.623-.584.623-1.268v-3.56h5.19zm-3.741 1.207c1.005.965 2.192 2.313 2.775 3.158l1.107-.805c-.584-.844-1.83-2.132-2.836-3.037l-1.046.684zm21.381-8.267h-4.787v-1.509h4.787v1.51zm0 2.535h-4.787v-1.489h4.787v1.489zm0 2.574h-4.787v-1.508h4.787v1.508zm-6.135-7.724v8.83h7.523v-8.83h-3.721c.181-.462.382-1.005.563-1.528h3.963V16.75h-9.092v1.146h3.741c-.12.503-.281 1.047-.442 1.53h-2.535zm4.446 9.736c1.106.744 2.413 1.89 3.077 2.695l1.086-.704c-.663-.764-1.97-1.87-3.137-2.575l-1.026.584zm-2.776-.564c-.764.926-2.052 1.83-3.319 2.414.302.201.785.704 1.006.945 1.267-.724 2.695-1.85 3.56-2.956l-1.247-.403zm-4.868-9.393h-3.922v-1.488h3.922v1.488zm0 2.575h-3.922v-1.53h3.922v1.53zm1.368-5.17h-6.638v6.276h6.638V16.61zm-2.554 12.21h3.399v-1.147h-3.4v-2.152h3.742v-1.167h-9.011v1.167h3.982v5.35c-.603-.482-1.106-1.126-1.488-1.95.08-.745.12-1.53.16-2.294h-1.246c-.101 2.454-.443 5.15-1.65 6.598.322.22.765.683.946.965.764-.925 1.247-2.212 1.528-3.66 1.81 2.695 4.807 3.177 9.152 3.177h6.457c.08-.402.322-.965.543-1.287-1.167.04-6.115.04-7 .04-2.474-.02-4.526-.14-6.114-.824V28.82zM64.465 88.617v1.502h-2.853v-1.502h2.853zm.798 2.183v-2.864h-4.426v3.58h.775V90.8h3.65zm-3.557-6.316c-.106-.34-.317-.833-.552-1.232h3.663c-.165.399-.411.892-.61 1.232h-2.501zm6.34-1.232v-.799h-4.65V81.35h-.88v1.103h-4.543v.799h2.242c.2.364.422.857.552 1.232h-2.301v7.56h.822v-6.797h2.1c-.116 1.092-.54 1.632-2.018 1.937.152.141.352.435.422.61 1.714-.41 2.242-1.138 2.383-2.547h1.397v1.174c0 .728.2.916 1.022.916h1.209c.622 0 .833-.235.916-1.174-.223-.047-.54-.153-.67-.27-.035.693-.082.775-.34.775h-1.021c-.294 0-.34-.024-.34-.258v-1.163H66.8v5.73c0 .187-.059.246-.258.246-.212.011-.916.023-1.68-.012.13.223.259.622.294.845.963 0 1.609-.011 1.996-.14.376-.141.493-.423.493-.94v-6.492h-2.477c.211-.352.446-.786.67-1.232h2.206zm9.038 1.643h-4.66v-2.219h4.66v2.22zm.881-3.052h-6.386v3.886h6.386v-3.886zm-4.801 5.964v2.782H70.71v-2.782h2.454zm-3.288 4.261h.834v-.634h2.454v.528h.856v-5h-4.144v5.106zm6.27-1.48v-2.781h2.664v2.782h-2.665zm-.846-3.627v5.107h.845v-.634h2.665v.552h.857V86.96H75.3zm9.99 3.827V87.9h4.814v2.888H85.29zm2.912-7.49c-.505 1.022-1.245 1.95-2.113 2.748-.54-.587-1.433-1.339-2.219-1.89.305-.27.575-.564.834-.857h3.498zm2.782 3.804h-4.801c1.361-1.15 2.512-2.594 3.204-4.332l-.575-.305-.164.047h-3.31c.246-.34.469-.68.669-1.01l-.975-.2c-.68 1.269-2.019 2.771-3.944 3.816.2.153.493.47.61.67.564-.33 1.068-.693 1.538-1.069.775.575 1.632 1.327 2.148 1.925-1.326 1.045-2.864 1.82-4.355 2.254.188.165.41.529.517.763.974-.317 1.948-.763 2.887-1.314v3.71h.857v-.47h4.814v.493h.88v-4.978zm5.976.575c-.224-.281-1.186-1.29-1.515-1.584v-.576h1.432v-.704c.2.106.446.235.564.317.422-.587.822-1.456 1.115-2.36 1.444-.129 3.076-.34 4.238-.634l-.657-.61c-.846.211-2.254.434-3.581.575l-.657-.14c-.259 1.02-.67 2.042-1.21 2.746h-1.244v-2.019c.528-.14 1.033-.293 1.444-.481l-.657-.61c-.763.375-2.16.704-3.381.915.105.176.223.458.258.646.481-.07 1.01-.165 1.514-.27v1.82H92.91v.81h1.573c-.375 1.326-1.068 2.864-1.713 3.697.152.212.363.552.457.799.493-.716.998-1.843 1.397-2.994v5.06h.822v-5.142c.376.47.822 1.08.998 1.397l.517-.658zm4.695-4.895c.482.681.975 1.644 1.186 2.254l.751-.34c-.223-.61-.728-1.515-1.221-2.196l-.716.282zm-.915 1.655c-.071-.446-.294-1.115-.552-1.608l-.728.188c.247.516.458 1.197.505 1.632l.775-.212zm-.165 4.602v-1.127h1.655v1.127h-1.655zm-2.336-1.127h1.538v1.127h-1.538v-1.127zm1.538-1.76v1.103h-1.538V86.15h1.538zm2.453 0v1.103h-1.655V86.15h1.655zm1.456 2.887h-.645v-3.592h-2.466v-.763h-.798v.763H97.44v3.592h-.834v.728h.834v2.278h.798v-2.278h3.991v1.35c0 .141-.058.176-.211.188-.141 0-.645.012-1.197-.012.117.2.258.54.305.763.74 0 1.209-.011 1.503-.14.317-.13.411-.376.411-.799v-1.35h.645v-.728z"/>
    <path stroke="#999" stroke-width="1.038" d="M14.233 66.711H54.260999999999996V106.422H14.233z"/>
    <path fill="#999" d="M158.331 88.617v1.502h-2.853v-1.502h2.853zm.798 2.183v-2.864h-4.426v3.58h.775V90.8h3.651zm-3.557-6.316c-.106-.34-.317-.833-.552-1.232h3.663c-.165.399-.411.892-.611 1.232h-2.5zm6.339-1.232v-.799h-4.649V81.35h-.88v1.103h-4.543v.799h2.242c.199.364.423.857.552 1.232h-2.301v7.56h.821v-6.797h2.102c-.118 1.092-.54 1.632-2.019 1.937.152.141.352.435.422.61 1.714-.41 2.243-1.138 2.383-2.547h1.397v1.174c0 .728.2.916 1.022.916h1.209c.622 0 .833-.235.916-1.174-.223-.047-.54-.153-.67-.27-.035.693-.082.775-.34.775h-1.021c-.294 0-.341-.024-.341-.258v-1.163h2.454v5.73c0 .187-.059.246-.259.246-.211.011-.915.023-1.678-.012.129.223.258.622.293.845.963 0 1.609-.011 1.996-.14.376-.141.493-.423.493-.94v-6.492h-2.477c.211-.352.446-.786.669-1.232h2.207zm9.04 1.643h-4.661v-2.219h4.661v2.22zm.88-3.052h-6.386v3.886h6.386v-3.886zm-4.801 5.964v2.782h-2.454v-2.782h2.454zm-3.288 4.261h.834v-.634h2.454v.528h.857v-5h-4.145v5.106zm6.269-1.48v-2.781h2.665v2.782h-2.665zm-.845-3.627v5.107h.845v-.634h2.665v.552h.857V86.96h-4.367zm9.99 3.827V87.9h4.814v2.888h-4.814zm2.912-7.49c-.505 1.022-1.245 1.95-2.113 2.748-.54-.587-1.433-1.339-2.219-1.89.305-.27.575-.564.833-.857h3.499zm2.782 3.804h-4.801c1.361-1.15 2.512-2.594 3.204-4.332l-.575-.305-.164.047h-3.311c.247-.34.47-.68.67-1.01l-.975-.2c-.681 1.269-2.019 2.771-3.944 3.816.199.153.493.47.61.67.564-.33 1.068-.693 1.538-1.069.775.575 1.632 1.327 2.148 1.925-1.326 1.045-2.864 1.82-4.355 2.254.188.165.411.529.517.763.974-.317 1.948-.763 2.887-1.314v3.71h.857v-.47h4.814v.493h.88v-4.978zm5.975.575c-.223-.281-1.185-1.29-1.514-1.584v-.576h1.432v-.704c.2.106.446.235.564.317.422-.587.822-1.456 1.115-2.36 1.444-.129 3.076-.34 4.238-.634l-.657-.61c-.846.211-2.254.434-3.581.575l-.657-.14c-.259 1.02-.67 2.042-1.21 2.746h-1.244v-2.019c.528-.14 1.033-.293 1.444-.481l-.657-.61c-.763.375-2.16.704-3.381.915.105.176.223.458.258.646.481-.07 1.009-.165 1.514-.27v1.82h-1.714v.81h1.573c-.375 1.326-1.068 2.864-1.714 3.697.153.212.364.552.458.799.493-.716.998-1.843 1.397-2.994v5.06h.822v-5.142c.376.47.822 1.08.998 1.397l.516-.658zm4.696-4.895c.482.681.975 1.644 1.186 2.254l.751-.34c-.223-.61-.728-1.515-1.221-2.196l-.716.282zm-.915 1.655c-.071-.446-.294-1.115-.552-1.608l-.728.188c.246.516.458 1.197.505 1.632l.775-.212zm-.165 4.602v-1.127h1.655v1.127h-1.655zm-2.336-1.127h1.538v1.127h-1.538v-1.127zm1.538-1.76v1.103h-1.538V86.15h1.538zm2.453 0v1.103h-1.655V86.15h1.655zm1.456 2.887h-.646v-3.592h-2.465v-.763h-.798v.763h-2.336v3.592h-.834v.728h.834v2.278h.798v-2.278h3.991v1.35c0 .141-.058.176-.211.188-.141 0-.646.012-1.197-.012.117.2.258.54.305.763.74 0 1.209-.011 1.503-.14.317-.13.41-.376.41-.799v-1.35h.646v-.728z"/>
    <path stroke="#999" stroke-width="1.038" d="M108.1 66.711H148.128V106.422H108.1z"/>
    <path fill="#999" d="M252.197 88.617v1.502h-2.853v-1.502h2.853zm.798 2.183v-2.864h-4.426v3.58h.775V90.8h3.651zm-3.557-6.316c-.106-.34-.317-.833-.552-1.232h3.663c-.165.399-.411.892-.611 1.232h-2.5zm6.339-1.232v-.799h-4.649V81.35h-.88v1.103h-4.543v.799h2.242c.199.364.422.857.552 1.232h-2.301v7.56h.821v-6.797h2.102c-.118 1.092-.54 1.632-2.019 1.937.152.141.352.435.422.61 1.714-.41 2.242-1.138 2.383-2.547h1.397v1.174c0 .728.2.916 1.022.916h1.209c.622 0 .833-.235.916-1.174-.224-.047-.54-.153-.67-.27-.035.693-.082.775-.34.775h-1.021c-.294 0-.341-.024-.341-.258v-1.163h2.454v5.73c0 .187-.059.246-.259.246-.211.011-.915.023-1.678-.012.129.223.258.622.293.845.963 0 1.608-.011 1.996-.14.376-.141.493-.423.493-.94v-6.492h-2.477c.211-.352.446-.786.669-1.232h2.207zm9.039 1.643h-4.66v-2.219h4.66v2.22zm.881-3.052h-6.386v3.886h6.386v-3.886zm-4.802 5.964v2.782h-2.453v-2.782h2.453zm-3.287 4.261h.834v-.634h2.453v.528h.857v-5h-4.144v5.106zm6.269-1.48v-2.781h2.665v2.782h-2.665zm-.845-3.627v5.107h.845v-.634h2.665v.552h.857V86.96h-4.367zm9.99 3.827V87.9h4.814v2.888h-4.814zm2.912-7.49c-.505 1.022-1.245 1.95-2.113 2.748-.54-.587-1.433-1.339-2.219-1.89.305-.27.575-.564.833-.857h3.499zm2.782 3.804h-4.801c1.361-1.15 2.512-2.594 3.204-4.332l-.575-.305-.164.047h-3.311c.247-.34.47-.68.669-1.01l-.974-.2c-.681 1.269-2.019 2.771-3.944 3.816.199.153.493.47.61.67.564-.33 1.068-.693 1.538-1.069.775.575 1.632 1.327 2.148 1.925-1.326 1.045-2.864 1.82-4.355 2.254.188.165.411.529.516.763.975-.317 1.949-.763 2.888-1.314v3.71h.857v-.47h4.814v.493h.88v-4.978zm5.975.575c-.223-.281-1.185-1.29-1.514-1.584v-.576h1.432v-.704c.2.106.446.235.564.317.422-.587.821-1.456 1.115-2.36 1.444-.129 3.076-.34 4.238-.634l-.657-.61c-.846.211-2.254.434-3.581.575l-.657-.14c-.259 1.02-.67 2.042-1.21 2.746h-1.244v-2.019c.528-.14 1.033-.293 1.444-.481l-.657-.61c-.764.375-2.161.704-3.381.915.105.176.223.458.258.646.481-.07 1.009-.165 1.514-.27v1.82h-1.714v.81h1.573c-.375 1.326-1.068 2.864-1.714 3.697.153.212.364.552.458.799.493-.716.998-1.843 1.397-2.994v5.06h.822v-5.142c.376.47.822 1.08.998 1.397l.516-.658zm4.696-4.895c.482.681.975 1.644 1.186 2.254l.751-.34c-.223-.61-.728-1.515-1.221-2.196l-.716.282zm-.915 1.655c-.071-.446-.294-1.115-.552-1.608l-.728.188c.246.516.458 1.197.505 1.632l.775-.212zm-.165 4.602v-1.127h1.655v1.127h-1.655zm-2.336-1.127h1.538v1.127h-1.538v-1.127zm1.538-1.76v1.103h-1.538V86.15h1.538zm2.453 0v1.103h-1.655V86.15h1.655zm1.456 2.887h-.646v-3.592h-2.465v-.763h-.798v.763h-2.336v3.592h-.834v.728h.834v2.278h.798v-2.278h3.991v1.35c0 .141-.058.176-.211.188-.141 0-.646.012-1.197-.012.117.2.258.54.305.763.74 0 1.209-.011 1.503-.14.317-.13.41-.376.41-.799v-1.35h.646v-.728z"/>
    <path stroke="#999" stroke-width="1.038" d="M201.965 66.711H241.993V106.422H201.965z"/>
    <path fill="#999" d="M64.465 141.008v1.503h-2.853v-1.503h2.853zm.798 2.184v-2.865h-4.426v3.581h.775v-.716h3.65zm-3.557-6.316c-.106-.341-.317-.834-.552-1.233h3.663c-.165.399-.411.892-.61 1.233h-2.501zm6.34-1.233v-.798h-4.65v-1.104h-.88v1.104h-4.543v.798h2.242c.2.364.422.857.552 1.233h-2.301v7.56h.822v-6.797h2.1c-.116 1.092-.54 1.632-2.018 1.937.152.141.352.434.422.61 1.714-.41 2.242-1.138 2.383-2.547h1.397v1.174c0 .728.2.916 1.022.916h1.209c.622 0 .833-.235.916-1.174-.223-.047-.54-.153-.67-.27-.035.692-.082.774-.34.774h-1.021c-.294 0-.34-.023-.34-.258v-1.162H66.8v5.729c0 .188-.059.246-.258.246-.212.012-.916.024-1.68-.011.13.223.259.622.294.845.963 0 1.609-.012 1.996-.141.376-.141.493-.423.493-.939v-6.492h-2.477c.211-.352.446-.787.67-1.233h2.206zm9.038 1.644h-4.66v-2.219h4.66v2.219zm.881-3.052h-6.386v3.885h6.386v-3.885zm-4.801 5.963v2.782H70.71v-2.782h2.454zm-3.288 4.262h.834v-.634h2.454v.528h.856v-5.001h-4.144v5.107zm6.27-1.48v-2.782h2.664v2.782h-2.665zm-.846-3.627v5.107h.845v-.634h2.665v.551h.857v-5.024H75.3zm9.99 3.827v-2.888h4.814v2.888H85.29zm2.912-7.49c-.505 1.022-1.245 1.949-2.113 2.747-.54-.587-1.433-1.338-2.219-1.89.305-.27.575-.563.834-.857h3.498zm2.782 3.804h-4.801c1.361-1.151 2.512-2.595 3.204-4.332l-.575-.305-.164.047h-3.31c.246-.341.469-.681.669-1.01l-.975-.199c-.68 1.267-2.019 2.77-3.944 3.815.2.152.493.469.61.669.564-.329 1.068-.693 1.538-1.068.775.575 1.632 1.326 2.148 1.925-1.326 1.045-2.864 1.82-4.355 2.254.188.164.41.528.517.763.974-.317 1.948-.763 2.887-1.315v3.71h.857v-.47h4.814v.493h.88v-4.977zm5.976.575c-.224-.282-1.186-1.291-1.515-1.585v-.575h1.432v-.704c.2.105.446.234.564.317.422-.587.822-1.456 1.115-2.36 1.444-.129 3.076-.341 4.238-.634l-.657-.61c-.846.211-2.254.434-3.581.575l-.657-.141c-.259 1.021-.67 2.043-1.21 2.747h-1.244v-2.019c.528-.141 1.033-.294 1.444-.482l-.657-.61c-.763.376-2.16.704-3.381.916.105.176.223.458.258.645.481-.07 1.01-.164 1.514-.27v1.82H92.91v.81h1.573c-.375 1.327-1.068 2.864-1.713 3.698.152.211.363.552.457.798.493-.716.998-1.843 1.397-2.993v5.059h.822v-5.142c.376.47.822 1.08.998 1.397l.517-.657zm4.695-4.895c.482.681.975 1.643 1.186 2.254l.751-.341c-.223-.61-.728-1.514-1.221-2.195l-.716.282zm-.915 1.655c-.071-.446-.294-1.115-.552-1.608l-.728.187c.247.517.458 1.198.505 1.632l.775-.211zm-.165 4.602v-1.127h1.655v1.127h-1.655zm-2.336-1.127h1.538v1.127h-1.538v-1.127zm1.538-1.761v1.103h-1.538v-1.103h1.538zm2.453 0v1.103h-1.655v-1.103h1.655zm1.456 2.888h-.645v-3.592h-2.466v-.764h-.798v.764H97.44v3.592h-.834v.728h.834v2.277h.798v-2.277h3.991v1.35c0 .141-.058.176-.211.188-.141 0-.645.011-1.197-.012.117.199.258.54.305.763.74 0 1.209-.012 1.503-.141.317-.129.411-.376.411-.798v-1.35h.645v-.728z"/>
    <path stroke="#999" stroke-width="1.038" d="M14.233 119.104H54.260999999999996V158.815H14.233z"/>
    <path fill="#999" d="M158.331 141.008v1.503h-2.853v-1.503h2.853zm.798 2.184v-2.865h-4.426v3.581h.775v-.716h3.651zm-3.557-6.316c-.106-.341-.317-.834-.552-1.233h3.663c-.165.399-.411.892-.611 1.233h-2.5zm6.339-1.233v-.798h-4.649v-1.104h-.88v1.104h-4.543v.798h2.242c.199.364.423.857.552 1.233h-2.301v7.56h.821v-6.797h2.102c-.118 1.092-.54 1.632-2.019 1.937.152.141.352.434.422.61 1.714-.41 2.243-1.138 2.383-2.547h1.397v1.174c0 .728.2.916 1.022.916h1.209c.622 0 .833-.235.916-1.174-.223-.047-.54-.153-.67-.27-.035.692-.082.774-.34.774h-1.021c-.294 0-.341-.023-.341-.258v-1.162h2.454v5.729c0 .188-.059.246-.259.246-.211.012-.915.024-1.678-.011.129.223.258.622.293.845.963 0 1.609-.012 1.996-.141.376-.141.493-.423.493-.939v-6.492h-2.477c.211-.352.446-.787.669-1.233h2.207zm9.04 1.644h-4.661v-2.219h4.661v2.219zm.88-3.052h-6.386v3.885h6.386v-3.885zm-4.801 5.963v2.782h-2.454v-2.782h2.454zm-3.288 4.262h.834v-.634h2.454v.528h.857v-5.001h-4.145v5.107zm6.269-1.48v-2.782h2.665v2.782h-2.665zm-.845-3.627v5.107h.845v-.634h2.665v.551h.857v-5.024h-4.367zm9.99 3.827v-2.888h4.814v2.888h-4.814zm2.912-7.49c-.505 1.022-1.245 1.949-2.113 2.747-.54-.587-1.433-1.338-2.219-1.89.305-.27.575-.563.833-.857h3.499zm2.782 3.804h-4.801c1.361-1.151 2.512-2.595 3.204-4.332l-.575-.305-.164.047h-3.311c.247-.341.47-.681.67-1.01l-.975-.199c-.681 1.267-2.019 2.77-3.944 3.815.199.152.493.469.61.669.564-.329 1.068-.693 1.538-1.068.775.575 1.632 1.326 2.148 1.925-1.326 1.045-2.864 1.82-4.355 2.254.188.164.411.528.517.763.974-.317 1.948-.763 2.887-1.315v3.71h.857v-.47h4.814v.493h.88v-4.977zm5.975.575c-.223-.282-1.185-1.291-1.514-1.585v-.575h1.432v-.704c.2.105.446.234.564.317.422-.587.822-1.456 1.115-2.36 1.444-.129 3.076-.341 4.238-.634l-.657-.61c-.846.211-2.254.434-3.581.575l-.657-.141c-.259 1.021-.67 2.043-1.21 2.747h-1.244v-2.019c.528-.141 1.033-.294 1.444-.482l-.657-.61c-.763.376-2.16.704-3.381.916.105.176.223.458.258.645.481-.07 1.009-.164 1.514-.27v1.82h-1.714v.81h1.573c-.375 1.327-1.068 2.864-1.714 3.698.153.211.364.552.458.798.493-.716.998-1.843 1.397-2.993v5.059h.822v-5.142c.376.47.822 1.08.998 1.397l.516-.657zm4.696-4.895c.482.681.975 1.643 1.186 2.254l.751-.341c-.223-.61-.728-1.514-1.221-2.195l-.716.282zm-.915 1.655c-.071-.446-.294-1.115-.552-1.608l-.728.187c.246.517.458 1.198.505 1.632l.775-.211zm-.165 4.602v-1.127h1.655v1.127h-1.655zm-2.336-1.127h1.538v1.127h-1.538v-1.127zm1.538-1.761v1.103h-1.538v-1.103h1.538zm2.453 0v1.103h-1.655v-1.103h1.655zm1.456 2.888h-.646v-3.592h-2.465v-.764h-.798v.764h-2.336v3.592h-.834v.728h.834v2.277h.798v-2.277h3.991v1.35c0 .141-.058.176-.211.188-.141 0-.646.011-1.197-.012.117.199.258.54.305.763.74 0 1.209-.012 1.503-.141.317-.129.41-.376.41-.798v-1.35h.646v-.728z"/>
    <path stroke="#999" stroke-width="1.038" d="M108.1 119.104H148.128V158.815H108.1z"/>
    <path fill="#999" d="M252.197 141.008v1.503h-2.853v-1.503h2.853zm.798 2.184v-2.865h-4.426v3.581h.775v-.716h3.651zm-3.557-6.316c-.106-.341-.317-.834-.552-1.233h3.663c-.165.399-.411.892-.611 1.233h-2.5zm6.339-1.233v-.798h-4.649v-1.104h-.88v1.104h-4.543v.798h2.242c.199.364.422.857.552 1.233h-2.301v7.56h.821v-6.797h2.102c-.118 1.092-.54 1.632-2.019 1.937.152.141.352.434.422.61 1.714-.41 2.242-1.138 2.383-2.547h1.397v1.174c0 .728.2.916 1.022.916h1.209c.622 0 .833-.235.916-1.174-.224-.047-.54-.153-.67-.27-.035.692-.082.774-.34.774h-1.021c-.294 0-.341-.023-.341-.258v-1.162h2.454v5.729c0 .188-.059.246-.259.246-.211.012-.915.024-1.678-.011.129.223.258.622.293.845.963 0 1.608-.012 1.996-.141.376-.141.493-.423.493-.939v-6.492h-2.477c.211-.352.446-.787.669-1.233h2.207zm9.039 1.644h-4.66v-2.219h4.66v2.219zm.881-3.052h-6.386v3.885h6.386v-3.885zm-4.802 5.963v2.782h-2.453v-2.782h2.453zm-3.287 4.262h.834v-.634h2.453v.528h.857v-5.001h-4.144v5.107zm6.269-1.48v-2.782h2.665v2.782h-2.665zm-.845-3.627v5.107h.845v-.634h2.665v.551h.857v-5.024h-4.367zm9.99 3.827v-2.888h4.814v2.888h-4.814zm2.912-7.49c-.505 1.022-1.245 1.949-2.113 2.747-.54-.587-1.433-1.338-2.219-1.89.305-.27.575-.563.833-.857h3.499zm2.782 3.804h-4.801c1.361-1.151 2.512-2.595 3.204-4.332l-.575-.305-.164.047h-3.311c.247-.341.47-.681.669-1.01l-.974-.199c-.681 1.267-2.019 2.77-3.944 3.815.199.152.493.469.61.669.564-.329 1.068-.693 1.538-1.068.775.575 1.632 1.326 2.148 1.925-1.326 1.045-2.864 1.82-4.355 2.254.188.164.411.528.516.763.975-.317 1.949-.763 2.888-1.315v3.71h.857v-.47h4.814v.493h.88v-4.977zm5.975.575c-.223-.282-1.185-1.291-1.514-1.585v-.575h1.432v-.704c.2.105.446.234.564.317.422-.587.821-1.456 1.115-2.36 1.444-.129 3.076-.341 4.238-.634l-.657-.61c-.846.211-2.254.434-3.581.575l-.657-.141c-.259 1.021-.67 2.043-1.21 2.747h-1.244v-2.019c.528-.141 1.033-.294 1.444-.482l-.657-.61c-.764.376-2.161.704-3.381.916.105.176.223.458.258.645.481-.07 1.009-.164 1.514-.27v1.82h-1.714v.81h1.573c-.375 1.327-1.068 2.864-1.714 3.698.153.211.364.552.458.798.493-.716.998-1.843 1.397-2.993v5.059h.822v-5.142c.376.47.822 1.08.998 1.397l.516-.657zm4.696-4.895c.482.681.975 1.643 1.186 2.254l.751-.341c-.223-.61-.728-1.514-1.221-2.195l-.716.282zm-.915 1.655c-.071-.446-.294-1.115-.552-1.608l-.728.187c.246.517.458 1.198.505 1.632l.775-.211zm-.165 4.602v-1.127h1.655v1.127h-1.655zm-2.336-1.127h1.538v1.127h-1.538v-1.127zm1.538-1.761v1.103h-1.538v-1.103h1.538zm2.453 0v1.103h-1.655v-1.103h1.655zm1.456 2.888h-.646v-3.592h-2.465v-.764h-.798v.764h-2.336v3.592h-.834v.728h.834v2.277h.798v-2.277h3.991v1.35c0 .141-.058.176-.211.188-.141 0-.646.011-1.197-.012.117.199.258.54.305.763.74 0 1.209-.012 1.503-.141.317-.129.41-.376.41-.798v-1.35h.646v-.728z"/>
    <path stroke="#999" stroke-width="1.038" d="M201.965 119.104H241.993V158.815H201.965z"/>
</svg>
