<svg xmlns="http://www.w3.org/2000/svg" width="320" height="175" fill="none" viewBox="0 0 320 175">
    <path fill="#fff" stroke="#999" stroke-width=".914" d="M0.457 0.457H319.543V174.543H0.457z"/>
    <path stroke="#999" stroke-width=".914" d="M0 65.734L320 65.734M68.114 66.191L68.114 175M0 92.03L67.657 92.03M0 120.139L67.657 120.139M0 148.247L67.657 148.247"/>
    <path fill="#999" d="M32.602 23.047v-1.529h-8.307c.281-2.112.301-4.103.321-5.712h-1.609c-.02 1.589 0 3.6-.302 5.712h-7.663v1.529h7.422c-.825 3.801-2.836 7.663-7.824 9.836.422.301.905.824 1.126 1.227 4.888-2.233 7.06-6.095 8.026-9.957 1.589 4.566 4.143 8.126 8.005 9.957.262-.443.764-1.066 1.126-1.408-3.882-1.59-6.496-5.23-7.904-9.655h7.583zm15.568-3.762h-1.85v-1.387h1.85v1.387zm3.078 3.641h-1.972v-2.474h1.972v2.474zm-7.845-2.474h1.81v2.474h-1.81v-2.474zm4.767 0v2.474H46.3v-2.474h1.87zm-3.077-1.167h-2.957v4.788h10.419v-4.788h-3.178v-1.387h3.701V16.65H41.512v1.248h3.58v1.387zm6.96 7.141V25.28h-9.394v1.146h9.393zm-10.54-.02c-.343-.543-1.831-2.776-2.394-3.52v-1.388h2.252V20.11H39.12v-4.345H37.75v4.345h-2.816v1.388h2.655c-.583 2.735-1.81 5.873-3.057 7.543.241.342.603.905.764 1.287.925-1.307 1.79-3.42 2.454-5.612v9.394h1.368v-9.454c.583.986 1.287 2.213 1.569 2.856l.824-1.106zm2.212 3.158c-.664 1.006-1.89 2.212-3.058 2.977.322.241.725.623.926.905 1.207-.845 2.474-2.052 3.278-3.259l-1.146-.623zm9.353-.463v-1.207H41.412v1.207H46.5v3.54c0 .201-.06.282-.302.282h-1.971c.18.342.382.845.442 1.227 1.267 0 2.072-.02 2.595-.221.503-.202.623-.584.623-1.268v-3.56h5.19zm-3.741 1.207c1.005.965 2.192 2.313 2.775 3.158l1.107-.805c-.584-.844-1.83-2.132-2.836-3.037l-1.046.684zm21.381-8.267h-4.787v-1.509h4.787v1.51zm0 2.535h-4.787v-1.489h4.787v1.489zm0 2.574h-4.787v-1.508h4.787v1.508zm-6.135-7.724v8.83h7.523v-8.83h-3.721c.181-.462.382-1.005.563-1.528h3.963V16.75h-9.092v1.146h3.741c-.12.503-.281 1.047-.442 1.53h-2.535zm4.446 9.736c1.106.744 2.413 1.89 3.077 2.695l1.086-.704c-.663-.764-1.97-1.87-3.137-2.575l-1.026.584zm-2.776-.564c-.764.926-2.052 1.83-3.319 2.414.302.201.785.704 1.006.945 1.267-.724 2.695-1.85 3.56-2.956l-1.247-.403zm-4.868-9.393h-3.922v-1.488h3.922v1.488zm0 2.575h-3.922v-1.53h3.922v1.53zm1.368-5.17h-6.638v6.276h6.638V16.61zm-2.554 12.21h3.399v-1.147h-3.4v-2.152h3.742v-1.167h-9.011v1.167h3.982v5.35c-.603-.482-1.106-1.126-1.488-1.95.08-.745.12-1.53.16-2.294h-1.246c-.101 2.454-.443 5.15-1.65 6.598.322.22.765.683.946.965.764-.925 1.247-2.212 1.528-3.66 1.81 2.695 4.807 3.177 9.152 3.177h6.457c.08-.402.322-.965.543-1.287-1.167.04-6.115.04-7 .04-2.474-.02-4.526-.14-6.114-.824V28.82zM19.666 43.188v10.176c0 .256-.102.346-.37.346-.244.013-1.166.026-2.1-.013.154.269.333.717.397.986 1.19.013 1.984-.013 2.445-.167.448-.166.64-.448.64-1.152V43.188h-1.012zm3.06 3.226c1.088 1.83 2.112 4.211 2.419 5.722l.998-.423c-.32-1.523-1.395-3.853-2.521-5.645l-.896.346zm-6.4-.256c-.308 1.715-1.012 3.917-2.15 5.26.255.103.665.334.895.5 1.152-1.42 1.895-3.712 2.304-5.568l-1.05-.192zm19.315-.922h-1.178v-.883h1.178v.883zm1.958 2.317h-1.254V45.98h1.254v1.574zm-4.992-1.574h1.152v1.574h-1.152V45.98zm3.034 0v1.574h-1.19V45.98h1.19zm-1.959-.743h-1.881v3.047h6.63v-3.047H36.41v-.883h2.355v-.793h-7.36v.793h2.278v.883zm4.43 4.544v-.73h-5.978v.73h5.977zm-6.708-.012c-.218-.346-1.165-1.767-1.523-2.24v-.884h1.433v-.883h-1.433v-2.765h-.87v2.765h-1.793v.883h1.69c-.371 1.741-1.152 3.738-1.946 4.8.154.218.384.576.487.82.589-.832 1.139-2.176 1.561-3.572v5.978h.87v-6.016c.372.627.82 1.408 1 1.818l.524-.704zm1.408 2.01c-.422.64-1.203 1.407-1.946 1.894.205.153.461.396.59.576.767-.538 1.574-1.306 2.086-2.074l-.73-.397zm5.952-.295v-.768H31.34v.768h3.238v2.253c0 .128-.038.179-.192.179h-1.254c.115.217.243.537.282.78.806 0 1.318-.012 1.65-.14.32-.128.398-.371.398-.807v-2.265h3.302zm-2.38.768c.64.614 1.394 1.472 1.766 2.01l.704-.513c-.372-.537-1.165-1.356-1.805-1.932l-.666.435zM49.99 46.99h-3.047v-.96h3.047v.96zm0 1.613h-3.047v-.947h3.047v.947zm0 1.638h-3.047v-.96h3.047v.96zm-3.904-4.915v5.62h4.787v-5.62h-2.368c.115-.294.243-.64.358-.973h2.522v-.73h-5.786v.73h2.381c-.077.32-.18.666-.282.973h-1.612zm2.828 6.195c.704.474 1.536 1.203 1.959 1.715l.691-.448c-.422-.486-1.254-1.19-1.997-1.638l-.653.371zm-1.766-.358c-.486.589-1.306 1.165-2.112 1.536.192.128.5.448.64.601.806-.46 1.715-1.177 2.266-1.881l-.794-.256zm-3.098-5.978h-2.496v-.947h2.496v.947zm0 1.639h-2.496v-.973h2.496v.973zm.87-3.29h-4.223v3.994h4.224v-3.994zm-1.625 7.77h2.163v-.73h-2.163v-1.37h2.381v-.742h-5.734v.742h2.534v3.405c-.384-.307-.704-.717-.947-1.241.051-.474.077-.973.102-1.46h-.793c-.064 1.562-.282 3.277-1.05 4.199.205.14.486.435.602.614.486-.589.793-1.408.972-2.33 1.152 1.716 3.06 2.023 5.824 2.023h4.11c.05-.256.204-.614.345-.82-.743.026-3.891.026-4.455.026-1.574-.012-2.88-.09-3.89-.524v-1.792zm11.43 4.928h.833c-.606-.982-1.041-1.955-1.306-2.919-.256-.964-.384-1.984-.384-3.059 0-1.05.128-2.052.384-3.008s.691-1.92 1.306-2.893h-.832c-.666.88-1.17 1.83-1.51 2.855-.334 1.024-.5 2.039-.5 3.046 0 .563.047 1.1.14 1.613.095.512.227 1.011.398 1.497.179.487.392.965.64 1.434.247.478.524.956.832 1.434zm11.083-9.87c-.5.858-1.204 1.69-1.997 2.433-.294-.282-.666-.602-1.075-.909.55-.64 1.177-1.498 1.702-2.24l-.128-.051h3.405v-.883h-3.072v-1.703h-.947v1.703H60.7v.883h2.623c-.332.576-.793 1.254-1.228 1.817-.243-.179-.474-.345-.704-.486l-.576.614c.768.525 1.69 1.268 2.29 1.856-.767.615-1.6 1.152-2.444 1.562.23.192.5.486.653.717 2.086-1.088 4.109-2.919 5.338-4.954l-.845-.358zm-5.71-2.918h-3.506v.768h3.507v-.768zm.372 1.677h-4.505v.781h4.505v-.78zm-.333 1.728h-3.61v.755h3.61v-.755zm-3.61 2.458h3.61v-.768h-3.61v.768zm2.804 1.728v2.15h-2.01v-2.15h2.01zm.82-.781h-3.636v4.288h.806v-.589h2.83v-3.699zm6.489-1.331c-1.242 2.227-3.61 4.032-6.336 4.992.23.205.499.55.627.768 1.408-.538 2.7-1.28 3.814-2.189.87.742 1.843 1.626 2.343 2.214l.717-.652c-.513-.59-1.51-1.447-2.381-2.15.832-.769 1.536-1.64 2.086-2.586l-.87-.397zm12.441-5.94c-.205.666-.601 1.626-.934 2.215l.78.218c.346-.576.73-1.447 1.063-2.202l-.909-.23zm-2.227 2.177c-.115-.576-.5-1.421-.921-2.061l-.756.256c.384.653.755 1.523.87 2.112l.807-.307zm-3.481 5.632v2.368H71.03v-2.368h2.343zm-.141-4.237v1.267h-1.754c.09-.41.166-.832.23-1.267h1.524zm0-2.087v1.28H71.81c.051-.41.09-.844.128-1.28h1.293zm-2.394 5.492c.166-.41.32-.845.435-1.306h2.855v-2.1h.755v-.806h-.755v-2.112H69.48v.832h1.55c-.027.436-.078.87-.116 1.28h-2.087v.807H70.8c-.064.435-.141.857-.23 1.267h-1.153v.832h.935c-.371 1.229-.91 2.253-1.716 3.02.193.18.525.551.64.743.333-.345.628-.717.884-1.113v3.379h.87v-.691h3.277V49.96h-3.469zm9.69.844h-2.496v-1.856h1.97v-.87h-1.97V46.35h2.201v-.87h-5.222v.87h2.1v1.728h-1.92v.87h1.92v1.856h-2.395v.896h2.394v2.996h.922V51.7h2.496v-.896zm1.702-.55c-.14 1.126-.41 2.266-.832 3.046.205.064.589.244.743.359.422-.82.73-2.048.908-3.251l-.819-.154zm3.43-.934c.116.268.193.512.244.73l.755-.36c-.18-.69-.743-1.778-1.267-2.598l-.704.308c.217.345.435.742.627 1.139-.704.025-1.408.064-2.048.09.883-1.101 1.907-2.612 2.65-3.815l-.82-.358c-.358.69-.844 1.523-1.37 2.33-.204-.27-.473-.577-.78-.884.486-.691 1.024-1.715 1.46-2.573l-.846-.32c-.269.704-.717 1.664-1.139 2.381-.128-.115-.256-.23-.384-.333l-.486.627c.601.538 1.28 1.255 1.676 1.83-.281.423-.575.807-.857 1.14-.294.013-.589.026-.845.026l.077.857 2.086-.102v5.273h.858v-5.324l1.114-.064zm-.652 1.113c.345.794.704 1.818.819 2.483l.755-.256c-.115-.665-.486-1.676-.857-2.457l-.717.23zm3.174.576h3.251v2.445h-3.25v-2.445zm3.251-6.425v2.355h-3.25v-2.355h3.25zm0 5.568h-3.25v-2.356h3.25v2.356zm.935 3.302v-9.728H87.26v9.728h-1.356v.87h7.45v-.87h-.986zm6.566-.154v-3.148h5.248V53.3h-5.248zm3.174-8.166c-.55 1.114-1.356 2.125-2.303 2.995-.59-.64-1.562-1.459-2.42-2.06.333-.295.627-.615.91-.935h3.813zm3.034 4.147h-5.235c1.485-1.254 2.739-2.829 3.494-4.723l-.627-.333-.179.051h-3.61c.27-.37.512-.742.73-1.1l-1.063-.218c-.742 1.382-2.201 3.02-4.3 4.16.217.166.537.512.665.73.615-.359 1.165-.756 1.677-1.165.845.627 1.78 1.446 2.343 2.099-1.447 1.14-3.124 1.984-4.75 2.458.206.179.449.576.564.832 1.062-.346 2.125-.832 3.149-1.434v4.045h.934v-.512h5.248v.537h.96v-5.427zm6.515.627c-.243-.307-1.293-1.408-1.651-1.728v-.627h1.562v-.768c.217.115.486.256.614.346.461-.64.896-1.587 1.216-2.573 1.574-.14 3.354-.371 4.621-.691l-.717-.666c-.922.23-2.458.474-3.904.627l-.717-.153c-.281 1.113-.729 2.227-1.318 2.995h-1.357v-2.202c.576-.153 1.126-.32 1.574-.524l-.716-.666c-.832.41-2.356.768-3.687.998.115.192.243.5.282.704.525-.076 1.101-.179 1.651-.294v1.984h-1.869v.883h1.715c-.409 1.447-1.164 3.123-1.868 4.032.166.23.396.602.499.87.537-.78 1.088-2.009 1.523-3.263v5.516h.896v-5.606c.41.512.896 1.178 1.088 1.523l.563-.717zm5.12-5.337c.525.742 1.063 1.792 1.293 2.457l.819-.37c-.243-.666-.793-1.652-1.331-2.394l-.781.307zm-.998 1.805c-.077-.487-.32-1.216-.602-1.754l-.793.205c.268.563.499 1.305.55 1.779l.845-.23zm-.179 5.017v-1.229h1.804v1.23H115.6zm-2.548-1.229h1.677v1.23h-1.677v-1.23zm1.677-1.92v1.204h-1.677v-1.204h1.677zm2.675 0v1.204H115.6v-1.204h1.804zm1.588 3.15h-.704v-3.918H115.6v-.832h-.871v.832h-2.547v3.917h-.909v.794h.909v2.483h.87v-2.483h4.352v1.472c0 .153-.064.192-.23.205-.154 0-.704.012-1.306-.013.128.217.282.589.333.832.807 0 1.319-.013 1.639-.154.345-.14.448-.41.448-.87v-1.472h.704v-.794zm.32 4.838h.819c.665-.88 1.165-1.827 1.497-2.842.342-1.024.512-2.04.512-3.046 0-.564-.046-1.101-.14-1.613-.094-.512-.231-1.011-.41-1.498-.171-.495-.38-.977-.627-1.446-.248-.478-.525-.956-.832-1.434h-.819c.597.981 1.024 1.959 1.28 2.931.264.965.396 1.984.396 3.06 0 1.04-.128 2.043-.384 3.008-.256.955-.686 1.915-1.292 2.88zM17.148 75.971h-1.755v-1.395h1.755v1.395zm0 2.048h-1.755v-1.395h1.755v1.395zm0 2.07h-1.755v-1.418h1.755v1.418zm.754-6.2h-3.24v6.898h3.24V73.89zm-4.287-.607c-.54 1.733-1.428 3.443-2.396 4.568.135.203.36.642.439.844.371-.439.72-.945 1.057-1.508v6.3h.8V75.69c.337-.709.63-1.451.877-2.194l-.777-.214zm1.7 7.74c-.27.62-.833 1.441-1.373 1.925.168.124.461.349.596.472.529-.506 1.125-1.338 1.496-2.047l-.72-.35zm1.304.316c.372.585.8 1.373.968 1.856l.653-.382c-.192-.473-.63-1.227-1.013-1.8l-.608.326zm2.903-6.964h-.742v6.581h.742v-6.581zm1.137-1.002v9.125c0 .169-.068.225-.226.225-.168 0-.663.011-1.237-.011.112.213.225.573.247.787.788 0 1.283-.022 1.564-.157.293-.124.405-.372.405-.855v-9.114h-.753zm4.354 3.038h1.147v-.765h-1.147v-2.43h-.754v2.43H22.84v.765h1.34c-.305 1.519-.935 3.297-1.576 4.23.135.18.326.495.416.698.462-.72.9-1.868 1.238-3.06v5.198h.754v-5.277c.315.563.686 1.283.843 1.643l.428-.608c-.18-.304-.979-1.553-1.271-1.969v-.855zm3.499-2.171v.753h-1.463v-.753h1.463zm-1.463 2.115v-.788h1.463v.788h-1.463zm2.127.641v-3.398h-2.847v9.901h.72v-6.503h2.127zm1.237-.641v-.788h1.497v.788h-1.497zm1.497-2.115v.753h-1.497v-.753h1.497zm-3.612 5.85h.923v.506h-.923v-.506zm0-.934h.923v.484h-.923v-.484zm2.408.484h-.957v-.484h.957v.484zm0 .956h-.957v-.506h.957v.506zm1.946-6.998H29.75v3.398h2.16v5.637c0 .135-.044.169-.168.18h-.495c.112-.135.259-.293.382-.383-.54-.281-1.147-.832-1.541-1.361h1.17v-2.385h-1.485v-.439h1.733v-.506h-1.733v-.552h-.596v.552H27.51v.506h1.665v.439h-1.417v2.385h1.159c-.439.574-1.092 1.136-1.7 1.418.147.112.35.326.44.472.517-.292 1.08-.799 1.507-1.339v1.61h.63v-1.7c.35.484.822.957 1.25 1.272h-.158c.1.19.202.517.236.708.608 0 .956-.022 1.215-.146.236-.112.315-.337.315-.72v-9.046zm5.31 8.675v-2.768h4.613v2.768h-4.613zm2.79-7.178c-.483.979-1.192 1.867-2.024 2.632-.518-.562-1.373-1.282-2.127-1.811.293-.259.552-.54.799-.821h3.353zm2.667 3.645h-4.601c1.305-1.103 2.407-2.487 3.071-4.152l-.551-.292-.158.045h-3.172c.236-.326.45-.653.64-.968l-.933-.191c-.653 1.215-1.935 2.655-3.78 3.657.191.146.472.45.585.64.54-.314 1.024-.663 1.474-1.023.742.551 1.563 1.271 2.059 1.845-1.272 1.002-2.746 1.744-4.175 2.16.18.158.394.507.495.732.934-.304 1.868-.732 2.768-1.26v3.555h.822v-.45h4.612v.472h.844v-4.77zm5.727.551c-.214-.27-1.136-1.237-1.451-1.519v-.55h1.372v-.676c.191.101.428.225.54.304.405-.563.788-1.395 1.07-2.262 1.383-.123 2.947-.326 4.06-.607l-.63-.585c-.81.202-2.16.416-3.43.551l-.63-.135c-.248.979-.642 1.958-1.16 2.633h-1.192v-1.935c.506-.135.99-.282 1.383-.462l-.63-.585c-.73.36-2.07.675-3.24.878.101.169.214.439.248.619.461-.068.967-.158 1.451-.26v1.745h-1.643v.776h1.508c-.36 1.272-1.024 2.745-1.643 3.544.147.203.35.529.44.765.472-.686.956-1.766 1.338-2.869v4.85h.788v-4.928c.36.45.787 1.035.956 1.338l.495-.63zm4.5-4.691c.462.652.934 1.575 1.137 2.16l.72-.326c-.214-.586-.698-1.452-1.17-2.104l-.687.27zm-.877 1.586c-.068-.428-.281-1.069-.529-1.541l-.698.18c.237.495.44 1.147.484 1.564l.743-.203zm-.158 4.41v-1.08h1.587v1.08H52.61zm-2.239-1.08h1.474v1.08h-1.474v-1.08zm1.474-1.687v1.057h-1.474v-1.057h1.474zm2.352 0v1.057H52.61v-1.057h1.587zm1.395 2.767h-.619v-3.442h-2.363v-.732h-.765v.732h-2.239v3.442h-.798v.698h.798v2.183h.765v-2.183h3.826v1.294c0 .135-.056.169-.203.18-.135 0-.619.011-1.147-.011.112.19.247.517.292.73.709 0 1.159-.01 1.44-.134.304-.124.394-.36.394-.765v-1.294h.619v-.698zM17.148 104.08h-1.755v-1.395h1.755v1.395zm0 2.048h-1.755v-1.395h1.755v1.395zm0 2.07h-1.755v-1.418h1.755v1.418zm.754-6.199h-3.24v6.897h3.24v-6.897zm-4.287-.608c-.54 1.733-1.428 3.443-2.396 4.568.135.203.36.641.439.844.371-.439.72-.945 1.057-1.508v6.301h.8v-7.797c.337-.709.63-1.452.877-2.194l-.777-.214zm1.7 7.741c-.27.619-.833 1.44-1.373 1.924.168.124.461.349.596.472.529-.506 1.125-1.339 1.496-2.047l-.72-.349zm1.304.315c.372.585.8 1.372.968 1.856l.653-.382c-.192-.473-.63-1.227-1.013-1.8l-.608.326zm2.903-6.965h-.742v6.582h.742v-6.582zm1.137-1.001v9.125c0 .168-.068.225-.226.225-.168 0-.663.011-1.237-.012.112.214.225.574.247.788.788 0 1.283-.022 1.564-.157.293-.124.405-.372.405-.856v-9.113h-.753zm4.354 3.038h1.147v-.765h-1.147v-2.43h-.754v2.43H22.84v.765h1.34c-.305 1.519-.935 3.296-1.576 4.23.135.18.326.495.416.698.462-.72.9-1.868 1.238-3.06v5.198h.754v-5.277c.315.562.686 1.282.843 1.642l.428-.607c-.18-.304-.979-1.553-1.271-1.969v-.855zm3.499-2.172v.754h-1.463v-.754h1.463zm-1.463 2.116v-.788h1.463v.788h-1.463zm2.127.641v-3.398h-2.847v9.901h.72v-6.503h2.127zm1.237-.641v-.788h1.497v.788h-1.497zm1.497-2.116v.754h-1.497v-.754h1.497zm-3.612 5.851h.923v.506h-.923v-.506zm0-.934h.923v.484h-.923v-.484zm2.408.484h-.957v-.484h.957v.484zm0 .956h-.957v-.506h.957v.506zm1.946-6.998H29.75v3.398h2.16v5.637c0 .135-.044.168-.168.18h-.495c.112-.135.259-.293.382-.383-.54-.281-1.147-.832-1.541-1.361h1.17v-2.385h-1.485v-.439h1.733v-.506h-1.733v-.552h-.596v.552H27.51v.506h1.665v.439h-1.417v2.385h1.159c-.439.574-1.092 1.136-1.7 1.417.147.113.35.327.44.473.517-.293 1.08-.799 1.507-1.339v1.609h.63v-1.699c.35.484.822.956 1.25 1.271h-.158c.1.192.202.518.236.709.608 0 .956-.022 1.215-.146.236-.112.315-.337.315-.72v-9.046zm5.31 8.675v-2.768h4.613v2.768h-4.613zm2.79-7.178c-.483.978-1.192 1.867-2.024 2.632-.518-.562-1.373-1.282-2.127-1.811.293-.259.552-.54.799-.821h3.353zm2.667 3.645h-4.601c1.305-1.103 2.407-2.487 3.071-4.152l-.551-.292-.158.045h-3.172c.236-.327.45-.653.64-.968l-.933-.191c-.653 1.215-1.935 2.655-3.78 3.656.191.147.472.451.585.642.54-.315 1.024-.664 1.474-1.024.742.551 1.563 1.271 2.059 1.845-1.272 1.001-2.746 1.744-4.175 2.16.18.158.394.507.495.732.934-.304 1.868-.732 2.768-1.261v3.556h.822v-.45h4.612v.472h.844v-4.77zm5.727.551c-.214-.27-1.136-1.237-1.451-1.519v-.551h1.372v-.675c.191.101.428.225.54.304.405-.563.788-1.395 1.07-2.262 1.383-.123 2.947-.326 4.06-.607l-.63-.585c-.81.202-2.16.416-3.43.551l-.63-.135c-.248.979-.642 1.958-1.16 2.633h-1.192v-1.935c.506-.136.99-.282 1.383-.462l-.63-.585c-.73.36-2.07.675-3.24.878.101.169.214.439.248.619.461-.068.967-.158 1.451-.259v1.744h-1.643v.776h1.508c-.36 1.271-1.024 2.745-1.643 3.544.147.203.35.529.44.765.472-.686.956-1.766 1.338-2.869v4.849h.788v-4.928c.36.45.787 1.035.956 1.339l.495-.63zm4.5-4.691c.462.652.934 1.575 1.137 2.16l.72-.327c-.214-.585-.698-1.451-1.17-2.104l-.687.271zm-.877 1.586c-.068-.428-.281-1.069-.529-1.541l-.698.18c.237.495.44 1.147.484 1.563l.743-.202zm-.158 4.41v-1.08h1.587v1.08H52.61zm-2.239-1.08h1.474v1.08h-1.474v-1.08zm1.474-1.687v1.057h-1.474v-1.057h1.474zm2.352 0v1.057H52.61v-1.057h1.587zm1.395 2.767h-.619v-3.443h-2.363v-.731h-.765v.731h-2.239v3.443h-.798v.698h.798v2.183h.765v-2.183h3.826v1.294c0 .135-.056.168-.203.18-.135 0-.619.011-1.147-.012.112.192.247.518.292.732.709 0 1.159-.011 1.44-.135.304-.124.394-.36.394-.765v-1.294h.619v-.698zM17.148 132.189h-1.755v-1.395h1.755v1.395zm0 2.048h-1.755v-1.395h1.755v1.395zm0 2.07h-1.755v-1.418h1.755v1.418zm.754-6.199h-3.24v6.896h3.24v-6.896zm-4.287-.608c-.54 1.733-1.428 3.443-2.396 4.568.135.202.36.641.439.844.371-.439.72-.945 1.057-1.508v6.301h.8v-7.797c.337-.709.63-1.452.877-2.194l-.777-.214zm1.7 7.741c-.27.619-.833 1.44-1.373 1.924.168.123.461.348.596.472.529-.506 1.125-1.339 1.496-2.048l-.72-.348zm1.304.315c.372.585.8 1.372.968 1.856l.653-.382c-.192-.473-.63-1.227-1.013-1.801l-.608.327zm2.903-6.965h-.742v6.582h.742v-6.582zm1.137-1.001v9.125c0 .168-.068.225-.226.225-.168 0-.663.011-1.237-.012.112.214.225.574.247.788.788 0 1.283-.023 1.564-.158.293-.123.405-.371.405-.855v-9.113h-.753zm4.354 3.038h1.147v-.765h-1.147v-2.43h-.754v2.43H22.84v.765h1.34c-.305 1.519-.935 3.296-1.576 4.23.135.18.326.495.416.698.462-.72.9-1.868 1.238-3.061v5.198h.754v-5.276c.315.562.686 1.282.843 1.642l.428-.607c-.18-.304-.979-1.553-1.271-1.969v-.855zm3.499-2.172v.754h-1.463v-.754h1.463zm-1.463 2.116v-.788h1.463v.788h-1.463zm2.127.641v-3.398h-2.847v9.901h.72v-6.503h2.127zm1.237-.641v-.788h1.497v.788h-1.497zm1.497-2.116v.754h-1.497v-.754h1.497zm-3.612 5.851h.923v.506h-.923v-.506zm0-.934h.923v.484h-.923v-.484zm2.408.484h-.957v-.484h.957v.484zm0 .956h-.957v-.506h.957v.506zm1.946-6.998H29.75v3.398h2.16v5.637c0 .135-.044.168-.168.18h-.495c.112-.135.259-.293.382-.383-.54-.281-1.147-.832-1.541-1.361h1.17v-2.385h-1.485v-.439h1.733v-.507h-1.733v-.551h-.596v.551H27.51v.507h1.665v.439h-1.417v2.385h1.159c-.439.574-1.092 1.136-1.7 1.417.147.113.35.327.44.473.517-.293 1.08-.799 1.507-1.339v1.609h.63v-1.699c.35.484.822.956 1.25 1.271h-.158c.1.192.202.518.236.709.608 0 .956-.022 1.215-.146.236-.113.315-.338.315-.72v-9.046zm5.31 8.675v-2.768h4.613v2.768h-4.613zm2.79-7.179c-.483.979-1.192 1.868-2.024 2.633-.518-.562-1.373-1.282-2.127-1.811.293-.259.552-.54.799-.822h3.353zm2.667 3.646h-4.601c1.305-1.103 2.407-2.487 3.071-4.152l-.551-.292-.158.045h-3.172c.236-.327.45-.653.64-.968l-.933-.191c-.653 1.215-1.935 2.655-3.78 3.656.191.147.472.45.585.642.54-.315 1.024-.664 1.474-1.024.742.551 1.563 1.271 2.059 1.845-1.272 1.001-2.746 1.744-4.175 2.16.18.158.394.506.495.731.934-.303 1.868-.731 2.768-1.26v3.556h.822v-.45h4.612v.472h.844v-4.77zm5.727.551c-.214-.27-1.136-1.238-1.451-1.519v-.551h1.372v-.675c.191.101.428.225.54.304.405-.563.788-1.396 1.07-2.262 1.383-.124 2.947-.326 4.06-.607l-.63-.585c-.81.202-2.16.416-3.43.551l-.63-.135c-.248.979-.642 1.958-1.16 2.633h-1.192v-1.936c.506-.135.99-.281 1.383-.461l-.63-.585c-.73.36-2.07.675-3.24.878.101.168.214.438.248.618.461-.067.967-.157 1.451-.258v1.744h-1.643v.776h1.508c-.36 1.271-1.024 2.745-1.643 3.544.147.202.35.529.44.765.472-.686.956-1.766 1.338-2.869v4.849h.788v-4.928c.36.45.787 1.035.956 1.339l.495-.63zm4.5-4.692c.462.653.934 1.576 1.137 2.161l.72-.327c-.214-.585-.698-1.451-1.17-2.104l-.687.27zm-.877 1.587c-.068-.428-.281-1.069-.529-1.542l-.698.18c.237.495.44 1.148.484 1.564l.743-.202zm-.158 4.41v-1.08h1.587v1.08H52.61zm-2.239-1.08h1.474v1.08h-1.474v-1.08zm1.474-1.688v1.058h-1.474v-1.058h1.474zm2.352 0v1.058H52.61v-1.058h1.587zm1.395 2.768h-.619v-3.443h-2.363v-.731h-.765v.731h-2.239v3.443h-.798v.698h.798v2.182h.765v-2.182h3.826v1.294c0 .135-.056.168-.203.18-.135 0-.619.011-1.147-.012.112.192.247.518.292.732.709 0 1.159-.012 1.44-.135.304-.124.394-.36.394-.765v-1.294h.619v-.698zM17.148 160.298h-1.755v-1.395h1.755v1.395zm0 2.048h-1.755v-1.395h1.755v1.395zm0 2.07h-1.755v-1.417h1.755v1.417zm.754-6.199h-3.24v6.897h3.24v-6.897zm-4.287-.608c-.54 1.733-1.428 3.443-2.396 4.568.135.203.36.642.439.844.371-.439.72-.945 1.057-1.507v6.3h.8v-7.797c.337-.709.63-1.451.877-2.194l-.777-.214zm1.7 7.741c-.27.619-.833 1.44-1.373 1.924.168.124.461.349.596.473.529-.507 1.125-1.339 1.496-2.048l-.72-.349zm1.304.315c.372.585.8 1.373.968 1.857l.653-.383c-.192-.473-.63-1.226-1.013-1.8l-.608.326zm2.903-6.964h-.742v6.582h.742v-6.582zm1.137-1.002v9.125c0 .169-.068.225-.226.225-.168 0-.663.011-1.237-.011.112.214.225.574.247.787.788 0 1.283-.022 1.564-.157.293-.124.405-.371.405-.855v-9.114h-.753zm4.354 3.038h1.147v-.765h-1.147v-2.43h-.754v2.43H22.84v.765h1.34c-.305 1.519-.935 3.297-1.576 4.231.135.18.326.495.416.697.462-.72.9-1.868 1.238-3.06v5.198h.754v-5.277c.315.563.686 1.283.843 1.643l.428-.608c-.18-.304-.979-1.552-1.271-1.969v-.855zm3.499-2.171v.754h-1.463v-.754h1.463zm-1.463 2.115v-.788h1.463v.788h-1.463zm2.127.641v-3.398h-2.847v9.901h.72v-6.503h2.127zm1.237-.641v-.788h1.497v.788h-1.497zm1.497-2.115v.754h-1.497v-.754h1.497zm-3.612 5.85h.923v.507h-.923v-.507zm0-.934h.923v.484h-.923v-.484zm2.408.484h-.957v-.484h.957v.484zm0 .957h-.957v-.507h.957v.507zm1.946-6.999H29.75v3.398h2.16v5.637c0 .135-.044.169-.168.18h-.495c.112-.135.259-.293.382-.383-.54-.281-1.147-.832-1.541-1.361h1.17v-2.385h-1.485v-.439h1.733v-.506h-1.733v-.551h-.596v.551H27.51v.506h1.665v.439h-1.417v2.385h1.159c-.439.574-1.092 1.136-1.7 1.418.147.112.35.326.44.472.517-.292 1.08-.799 1.507-1.339v1.609h.63v-1.699c.35.484.822.957 1.25 1.272h-.158c.1.191.202.517.236.709.608 0 .956-.023 1.215-.147.236-.112.315-.337.315-.72v-9.046zm5.31 8.675v-2.768h4.613v2.768h-4.613zm2.79-7.178c-.483.979-1.192 1.867-2.024 2.633-.518-.563-1.373-1.283-2.127-1.812.293-.259.552-.54.799-.821h3.353zm2.667 3.645h-4.601c1.305-1.102 2.407-2.486 3.071-4.151l-.551-.293-.158.045h-3.172c.236-.326.45-.653.64-.968l-.933-.191c-.653 1.215-1.935 2.655-3.78 3.657.191.146.472.45.585.641.54-.315 1.024-.664 1.474-1.024.742.551 1.563 1.272 2.059 1.845-1.272 1.002-2.746 1.744-4.175 2.161.18.157.394.506.495.731.934-.304 1.868-.731 2.768-1.26v3.555h.822v-.45h4.612v.473h.844v-4.771zm5.727.551c-.214-.27-1.136-1.237-1.451-1.518v-.552h1.372v-.675c.191.101.428.225.54.304.405-.563.788-1.395 1.07-2.261 1.383-.124 2.947-.327 4.06-.608l-.63-.585c-.81.202-2.16.416-3.43.551l-.63-.135c-.248.979-.642 1.958-1.16 2.633h-1.192v-1.935c.506-.135.99-.282 1.383-.462l-.63-.585c-.73.36-2.07.675-3.24.878.101.169.214.439.248.619.461-.068.967-.158 1.451-.259v1.744h-1.643v.776h1.508c-.36 1.272-1.024 2.746-1.643 3.544.147.203.35.529.44.765.472-.686.956-1.766 1.338-2.869v4.85h.788v-4.928c.36.45.787 1.035.956 1.338l.495-.63zm4.5-4.691c.462.652.934 1.575 1.137 2.16l.72-.326c-.214-.585-.698-1.452-1.17-2.104l-.687.27zm-.877 1.586c-.068-.427-.281-1.069-.529-1.541l-.698.18c.237.495.44 1.147.484 1.564l.743-.203zm-.158 4.411v-1.081h1.587v1.081H52.61zm-2.239-1.081h1.474v1.081h-1.474v-1.081zm1.474-1.687v1.057h-1.474v-1.057h1.474zm2.352 0v1.057H52.61v-1.057h1.587zm1.395 2.768h-.619v-3.443h-2.363v-.732h-.765v.732h-2.239v3.443h-.798v.697h.798v2.183h.765v-2.183h3.826v1.294c0 .135-.056.169-.203.18-.135 0-.619.011-1.147-.011.112.191.247.517.292.731.709 0 1.159-.011 1.44-.135.304-.124.394-.36.394-.765v-1.294h.619v-.697zM119.152 101.14v1.254h-2.381v-1.254h2.381zm.666 1.822v-2.39h-3.693v2.988h.646v-.598h3.047zm-2.968-5.27c-.089-.284-.265-.696-.461-1.029h3.057c-.137.333-.343.745-.51 1.029h-2.086zm5.29-1.029v-.666h-3.88v-.92h-.734v.92h-3.792v.666h1.871c.167.304.353.715.461 1.029h-1.92V104h.685v-5.672h1.754c-.098.91-.451 1.361-1.685 1.616.127.118.294.363.353.509 1.43-.342 1.871-.95 1.988-2.125h1.166v.98c0 .607.167.763.853.763h1.009c.519 0 .695-.196.764-.98-.186-.038-.451-.127-.559-.225-.029.578-.068.647-.284.647h-.852c-.245 0-.284-.02-.284-.216v-.97h2.047v4.781c0 .157-.049.206-.215.206-.177.01-.764.02-1.401-.01.108.186.215.52.245.706.803 0 1.342-.01 1.665-.118.314-.117.412-.353.412-.784v-5.417h-2.067c.176-.294.372-.657.558-1.029h1.842zm7.543 1.372h-3.889v-1.852h3.889v1.852zm.735-2.547h-5.329v3.242h5.329v-3.243zm-4.007 4.976v2.322h-2.047v-2.322h2.047zm-2.743 3.556h.696v-.529h2.047v.441h.715v-4.173h-3.458v4.261zm5.232-1.234v-2.322h2.223v2.322H128.9zm-.706-3.027v4.261h.706v-.529h2.223v.461h.716v-4.193h-3.645zm8.337 3.194v-2.41h4.017v2.41h-4.017zm2.43-6.25c-.422.852-1.039 1.626-1.764 2.292-.45-.49-1.195-1.117-1.851-1.578.254-.225.48-.47.695-.715h2.92zm2.322 3.173h-4.007c1.136-.96 2.096-2.165 2.674-3.615l-.48-.254-.137.039h-2.763c.206-.284.392-.568.559-.843l-.813-.166c-.569 1.058-1.685 2.312-3.292 3.184.166.127.411.392.509.558.471-.274.892-.578 1.284-.891.646.48 1.361 1.107 1.793 1.606-1.108.872-2.391 1.519-3.635 1.881.157.137.343.441.431.637.813-.264 1.626-.637 2.41-1.097v3.096h.715v-.392h4.017v.411h.735v-4.154zm4.986.48c-.186-.235-.989-1.077-1.264-1.322v-.48h1.196v-.588c.166.088.372.196.47.265.352-.49.686-1.215.93-1.97 1.205-.107 2.567-.284 3.537-.529l-.549-.509c-.705.176-1.881.362-2.988.48l-.548-.118c-.216.853-.559 1.705-1.009 2.293h-1.039v-1.685c.441-.118.862-.245 1.205-.402l-.548-.51c-.637.314-1.803.589-2.822.765.088.147.186.382.216.539.401-.059.842-.137 1.264-.226v1.519h-1.431v.676h1.313c-.314 1.107-.892 2.39-1.43 3.086.127.176.303.46.382.666.411-.598.832-1.538 1.166-2.498v4.222h.685v-4.29c.314.391.686.901.833 1.165l.431-.549zm3.919-4.085c.401.569.813 1.372.989 1.881l.627-.284c-.186-.51-.607-1.264-1.019-1.832l-.597.235zm-.764 1.382c-.059-.373-.245-.931-.461-1.343l-.607.157c.206.431.382 1 .421 1.362l.647-.176zm-.138 3.84v-.941h1.382v.941h-1.382zm-1.949-.941h1.283v.941h-1.283v-.941zm1.283-1.47v.922h-1.283v-.921h1.283zm2.048 0v.922h-1.382v-.921h1.382zm1.215 2.411h-.539v-2.998h-2.058v-.637h-.666v.637h-1.949v2.998h-.696v.607h.696v1.901h.666V102.1h3.331v1.127c0 .117-.049.147-.177.157-.117 0-.538.009-.999-.01.098.166.216.451.255.637.617 0 1.009-.01 1.254-.118.264-.108.343-.313.343-.666V102.1h.539v-.607z"/>
    <path stroke="#999" stroke-width=".867" d="M77.234 82.04H110.638V115.179H77.234z"/>
    <path fill="#999" d="M197.484 101.14v1.254h-2.381v-1.254h2.381zm.666 1.822v-2.39h-3.693v2.988h.646v-.598h3.047zm-2.968-5.27c-.088-.284-.265-.696-.461-1.029h3.057c-.137.333-.343.745-.509 1.029h-2.087zm5.29-1.029v-.666h-3.879v-.92h-.735v.92h-3.792v.666h1.872c.166.304.352.715.46 1.029h-1.92V104h.686v-5.672h1.753c-.098.91-.45 1.361-1.685 1.616.128.118.294.363.353.509 1.43-.342 1.871-.95 1.989-2.125h1.165v.98c0 .607.167.763.853.763h1.009c.519 0 .695-.196.764-.98-.186-.038-.451-.127-.558-.225-.03.578-.069.647-.285.647h-.852c-.245 0-.284-.02-.284-.216v-.97h2.048v4.781c0 .157-.049.206-.216.206-.176.01-.764.02-1.401-.01.108.186.216.52.245.706.803 0 1.342-.01 1.665-.118.314-.117.412-.353.412-.784v-5.417h-2.067c.176-.294.372-.657.558-1.029h1.842zm7.544 1.372h-3.89v-1.852h3.89v1.852zm.734-2.547h-5.329v3.242h5.329v-3.243zm-4.007 4.976v2.322h-2.047v-2.322h2.047zM202 104.02h.696v-.529h2.047v.441h.716v-4.173H202v4.261zm5.232-1.234v-2.322h2.224v2.322h-2.224zm-.706-3.027v4.261h.706v-.529h2.224v.461h.715v-4.193h-3.645zm8.337 3.194v-2.41h4.017v2.41h-4.017zm2.43-6.25c-.421.852-1.038 1.626-1.763 2.292-.451-.49-1.196-1.117-1.852-1.578.255-.225.48-.47.696-.715h2.919zm2.322 3.173h-4.007c1.136-.96 2.096-2.165 2.674-3.615l-.48-.254-.137.039h-2.762c.205-.284.391-.568.558-.843l-.813-.166c-.568 1.058-1.685 2.312-3.292 3.184.167.127.412.392.51.558.47-.274.891-.578 1.283-.891.647.48 1.362 1.107 1.793 1.606-1.107.872-2.391 1.519-3.635 1.881.157.137.343.441.431.637.813-.264 1.627-.637 2.41-1.097v3.096h.715v-.392h4.017v.411h.735v-4.154zm4.986.48c-.186-.235-.989-1.077-1.263-1.322v-.48h1.195v-.588c.166.088.372.196.47.265.353-.49.686-1.215.931-1.97 1.205-.107 2.566-.284 3.536-.529l-.548-.509c-.706.176-1.881.362-2.988.48l-.549-.118c-.215.853-.558 1.705-1.009 2.293h-1.038v-1.685c.44-.118.862-.245 1.205-.402l-.549-.51c-.637.314-1.803.589-2.821.765.088.147.186.382.215.539.402-.059.843-.137 1.264-.226v1.519h-1.431v.676h1.313c-.313 1.107-.891 2.39-1.43 3.086.127.176.304.46.382.666.411-.598.833-1.538 1.166-2.498v4.222h.686v-4.29c.313.391.685.901.832 1.165l.431-.549zm3.919-4.085c.402.569.813 1.372.99 1.881l.627-.284c-.187-.51-.608-1.264-1.019-1.832l-.598.235zm-.764 1.382c-.059-.373-.245-.931-.461-1.343l-.607.157c.206.431.382 1 .421 1.362l.647-.176zm-.137 3.84v-.941H229v.941h-1.381zm-1.95-.941h1.284v.941h-1.284v-.941zm1.284-1.47v.922h-1.284v-.921h1.284zm2.047 0v.922h-1.381v-.921H229zm1.215 2.411h-.539v-2.998h-2.057v-.637h-.666v.637h-1.95v2.998h-.696v.607h.696v1.901h.666V102.1H229v1.127c0 .117-.049.147-.176.157-.118 0-.539.009-1-.01.098.166.216.451.255.637.617 0 1.009-.01 1.254-.118.265-.108.343-.313.343-.666V102.1h.539v-.607z"/>
    <path stroke="#999" stroke-width=".867" d="M155.566 82.039H188.97V115.178H155.566z"/>
    <path fill="#999" d="M275.816 101.14v1.254h-2.381v-1.254h2.381zm.666 1.822v-2.39h-3.693v2.988h.646v-.598h3.047zm-2.968-5.27c-.088-.284-.265-.696-.461-1.029h3.057c-.137.333-.343.745-.509 1.029h-2.087zm5.29-1.029v-.666h-3.879v-.92h-.735v.92h-3.792v.666h1.872c.166.304.352.715.46 1.029h-1.92V104h.686v-5.672h1.753c-.098.91-.45 1.361-1.685 1.616.128.118.294.363.353.509 1.43-.342 1.871-.95 1.989-2.125h1.166v.98c0 .607.166.763.852.763h1.009c.519 0 .695-.196.764-.98-.186-.038-.451-.127-.558-.225-.03.578-.069.647-.284.647h-.853c-.245 0-.284-.02-.284-.216v-.97h2.048v4.781c0 .157-.049.206-.216.206-.176.01-.764.02-1.401-.01.108.186.216.52.245.706.803 0 1.342-.01 1.666-.118.313-.117.411-.353.411-.784v-5.417h-2.067c.176-.294.372-.657.558-1.029h1.842zm7.544 1.372h-3.89v-1.852h3.89v1.852zm.734-2.547h-5.329v3.242h5.329v-3.243zm-4.007 4.976v2.322h-2.047v-2.322h2.047zm-2.743 3.556h.696v-.529h2.047v.441h.716v-4.173h-3.459v4.261zm5.232-1.234v-2.322h2.224v2.322h-2.224zm-.706-3.027v4.261h.706v-.529h2.224v.461h.715v-4.193h-3.645zm8.337 3.194v-2.41h4.017v2.41h-4.017zm2.43-6.25c-.421.852-1.038 1.626-1.763 2.292-.451-.49-1.196-1.117-1.852-1.578.255-.225.48-.47.696-.715h2.919zm2.322 3.173h-4.007c1.136-.96 2.097-2.165 2.675-3.615l-.481-.254-.137.039h-2.762c.205-.284.392-.568.558-.843l-.813-.166c-.568 1.058-1.685 2.312-3.292 3.184.167.127.412.392.51.558.47-.274.891-.578 1.283-.891.647.48 1.362 1.107 1.793 1.606-1.107.872-2.391 1.519-3.635 1.881.157.137.343.441.431.637.813-.264 1.627-.637 2.41-1.097v3.096h.715v-.392h4.017v.411h.735v-4.154zm4.986.48c-.186-.235-.989-1.077-1.263-1.322v-.48h1.195v-.588c.166.088.372.196.47.265.353-.49.686-1.215.931-1.97 1.205-.107 2.566-.284 3.536-.529l-.548-.509c-.706.176-1.881.362-2.988.48l-.549-.118c-.215.853-.558 1.705-1.009 2.293h-1.038v-1.685c.44-.118.862-.245 1.205-.402l-.549-.51c-.637.314-1.803.589-2.821.765.088.147.186.382.215.539.402-.059.843-.137 1.264-.226v1.519h-1.43v.676h1.312c-.313 1.107-.891 2.39-1.43 3.086.127.176.304.46.382.666.412-.598.833-1.538 1.166-2.498v4.222h.686v-4.29c.313.391.685.901.832 1.165l.431-.549zm3.919-4.085c.402.569.813 1.372.99 1.881l.627-.284c-.187-.51-.608-1.264-1.019-1.832l-.598.235zm-.764 1.382c-.059-.373-.245-.931-.46-1.343l-.608.157c.206.431.382 1 .421 1.362l.647-.176zm-.137 3.84v-.941h1.381v.941h-1.381zm-1.95-.941h1.284v.941h-1.284v-.941zm1.284-1.47v.922h-1.284v-.921h1.284zm2.047 0v.922h-1.381v-.921h1.381zm1.215 2.411h-.539v-2.998h-2.057v-.637h-.666v.637h-1.95v2.998h-.696v.607h.696v1.901h.666V102.1h3.331v1.127c0 .117-.049.147-.176.157-.118 0-.539.009-.999-.01.097.166.215.451.254.637.617 0 1.009-.01 1.254-.118.265-.108.343-.313.343-.666V102.1h.539v-.607z"/>
    <path stroke="#999" stroke-width=".867" d="M233.898 82.039H267.302V115.178H233.898z"/>
    <path fill="#999" d="M119.152 144.861v1.254h-2.381v-1.254h2.381zm.666 1.822v-2.39h-3.693v2.988h.646v-.598h3.047zm-2.968-5.271c-.089-.284-.265-.695-.461-1.028h3.057c-.137.333-.343.744-.51 1.028h-2.086zm5.29-1.028v-.666h-3.88v-.921h-.734v.921h-3.792v.666h1.871c.167.304.353.715.461 1.028h-1.92v6.31h.685v-5.673h1.754c-.098.911-.451 1.362-1.685 1.617.127.117.294.362.353.509 1.43-.343 1.871-.95 1.988-2.126h1.166v.98c0 .607.167.764.853.764h1.009c.519 0 .695-.196.764-.98-.186-.039-.451-.127-.559-.225-.029.578-.068.647-.284.647h-.852c-.245 0-.284-.02-.284-.216v-.97h2.047v4.781c0 .157-.049.206-.215.206-.177.01-.764.019-1.401-.01.108.186.215.519.245.705.803 0 1.342-.009 1.665-.117.314-.118.412-.353.412-.784v-5.418h-2.067c.176-.293.372-.656.558-1.028h1.842zm7.543 1.371h-3.889v-1.851h3.889v1.851zm.735-2.547h-5.329v3.243h5.329v-3.243zm-4.007 4.977v2.322h-2.047v-2.322h2.047zm-2.743 3.556h.696v-.529h2.047v.441h.715v-4.173h-3.458v4.261zm5.232-1.234v-2.322h2.223v2.322H128.9zm-.706-3.027v4.261h.706v-.529h2.223v.461h.716v-4.193h-3.645zm8.337 3.193v-2.41h4.017v2.41h-4.017zm2.43-6.25c-.422.852-1.039 1.626-1.764 2.292-.45-.489-1.195-1.116-1.851-1.577.254-.225.48-.47.695-.715h2.92zm2.322 3.174h-4.007c1.136-.96 2.096-2.165 2.674-3.615l-.48-.255-.137.04h-2.763c.206-.284.392-.569.559-.843l-.813-.166c-.569 1.058-1.685 2.312-3.292 3.184.166.127.411.391.509.558.471-.274.892-.578 1.284-.892.646.48 1.361 1.107 1.793 1.607-1.108.872-2.391 1.519-3.635 1.881.157.137.343.441.431.637.813-.265 1.626-.637 2.41-1.097v3.095h.715v-.392h4.017v.412h.735v-4.154zm4.986.48c-.186-.235-.989-1.077-1.264-1.322v-.48h1.196v-.588c.166.088.372.196.47.264.352-.49.686-1.214.93-1.969 1.205-.108 2.567-.284 3.537-.529l-.549-.509c-.705.176-1.881.362-2.988.48l-.548-.118c-.216.852-.559 1.705-1.009 2.293h-1.039v-1.685c.441-.118.862-.245 1.205-.402l-.548-.51c-.637.314-1.803.588-2.822.765.088.147.186.382.216.538.401-.058.842-.137 1.264-.225v1.519h-1.431v.676h1.313c-.314 1.107-.892 2.39-1.43 3.086.127.176.303.46.382.666.411-.598.832-1.538 1.166-2.498v4.222h.685v-4.291c.314.392.686.901.833 1.166l.431-.549zm3.919-4.085c.401.568.813 1.371.989 1.881l.627-.284c-.186-.51-.607-1.264-1.019-1.832l-.597.235zm-.764 1.381c-.059-.372-.245-.93-.461-1.342l-.607.157c.206.431.382.999.421 1.362l.647-.177zm-.138 3.841v-.941h1.382v.941h-1.382zm-1.949-.941h1.283v.941h-1.283v-.941zm1.283-1.469v.921h-1.283v-.921h1.283zm2.048 0v.921h-1.382v-.921h1.382zm1.215 2.41h-.539v-2.998h-2.058v-.637h-.666v.637h-1.949v2.998h-.696v.607h.696v1.901h.666v-1.901h3.331v1.127c0 .117-.049.147-.177.156-.117 0-.538.01-.999-.009.098.166.216.45.255.636.617 0 1.009-.009 1.254-.117.264-.108.343-.314.343-.666v-1.127h.539v-.607z"/>
    <path stroke="#999" stroke-width=".867" d="M77.233 125.761H110.637V158.9H77.233z"/>
    <path fill="#999" d="M197.484 144.861v1.254h-2.381v-1.254h2.381zm.666 1.822v-2.39h-3.693v2.988h.646v-.598h3.047zm-2.968-5.271c-.088-.284-.265-.695-.461-1.028h3.057c-.137.333-.343.744-.509 1.028h-2.087zm5.29-1.028v-.666h-3.879v-.921h-.735v.921h-3.792v.666h1.872c.166.304.352.715.46 1.028h-1.92v6.31h.686v-5.673h1.753c-.098.911-.45 1.362-1.685 1.617.128.117.294.362.353.509 1.43-.343 1.871-.95 1.989-2.126h1.165v.98c0 .607.167.764.853.764h1.009c.519 0 .695-.196.764-.98-.186-.039-.451-.127-.558-.225-.03.578-.069.647-.285.647h-.852c-.245 0-.284-.02-.284-.216v-.97h2.048v4.781c0 .157-.049.206-.216.206-.176.01-.764.019-1.401-.01.108.186.216.519.245.705.803 0 1.342-.009 1.665-.117.314-.118.412-.353.412-.784v-5.418h-2.067c.176-.293.372-.656.558-1.028h1.842zm7.544 1.371h-3.89v-1.851h3.89v1.851zm.734-2.547h-5.329v3.243h5.329v-3.243zm-4.007 4.977v2.322h-2.047v-2.322h2.047zM202 147.741h.696v-.529h2.047v.441h.716v-4.173H202v4.261zm5.232-1.234v-2.322h2.224v2.322h-2.224zm-.706-3.027v4.261h.706v-.529h2.224v.461h.715v-4.193h-3.645zm8.337 3.193v-2.41h4.017v2.41h-4.017zm2.43-6.25c-.421.852-1.038 1.626-1.763 2.292-.451-.489-1.196-1.116-1.852-1.577.255-.225.48-.47.696-.715h2.919zm2.322 3.174h-4.007c1.136-.96 2.096-2.165 2.674-3.615l-.48-.255-.137.04h-2.762c.205-.284.391-.569.558-.843l-.813-.166c-.568 1.058-1.685 2.312-3.292 3.184.167.127.412.391.51.558.47-.274.891-.578 1.283-.892.647.48 1.362 1.107 1.793 1.607-1.107.872-2.391 1.519-3.635 1.881.157.137.343.441.431.637.813-.265 1.627-.637 2.41-1.097v3.095h.715v-.392h4.017v.412h.735v-4.154zm4.986.48c-.186-.235-.989-1.077-1.263-1.322v-.48h1.195v-.588c.166.088.372.196.47.264.353-.49.686-1.214.931-1.969 1.205-.108 2.566-.284 3.536-.529l-.548-.509c-.706.176-1.881.362-2.988.48l-.549-.118c-.215.852-.558 1.705-1.009 2.293h-1.038v-1.685c.44-.118.862-.245 1.205-.402l-.549-.51c-.637.314-1.803.588-2.821.765.088.147.186.382.215.538.402-.058.843-.137 1.264-.225v1.519h-1.431v.676h1.313c-.313 1.107-.891 2.39-1.43 3.086.127.176.304.46.382.666.411-.598.833-1.538 1.166-2.498v4.222h.686v-4.291c.313.392.685.901.832 1.166l.431-.549zm3.919-4.085c.402.568.813 1.371.99 1.881l.627-.284c-.187-.51-.608-1.264-1.019-1.832l-.598.235zm-.764 1.381c-.059-.372-.245-.93-.461-1.342l-.607.157c.206.431.382.999.421 1.362l.647-.177zm-.137 3.841v-.941H229v.941h-1.381zm-1.95-.941h1.284v.941h-1.284v-.941zm1.284-1.469v.921h-1.284v-.921h1.284zm2.047 0v.921h-1.381v-.921H229zm1.215 2.41h-.539v-2.998h-2.057v-.637h-.666v.637h-1.95v2.998h-.696v.607h.696v1.901h.666v-1.901H229v1.127c0 .117-.049.147-.176.156-.118 0-.539.01-1-.009.098.166.216.45.255.636.617 0 1.009-.009 1.254-.117.265-.108.343-.314.343-.666v-1.127h.539v-.607z"/>
    <path stroke="#999" stroke-width=".867" d="M155.566 125.761H188.97V158.9H155.566z"/>
    <path fill="#999" d="M275.816 144.861v1.254h-2.381v-1.254h2.381zm.666 1.822v-2.39h-3.693v2.988h.646v-.598h3.047zm-2.968-5.271c-.088-.284-.265-.695-.461-1.028h3.057c-.137.333-.343.744-.509 1.028h-2.087zm5.29-1.028v-.666h-3.879v-.921h-.735v.921h-3.792v.666h1.872c.166.304.352.715.46 1.028h-1.92v6.31h.686v-5.673h1.753c-.098.911-.45 1.362-1.685 1.617.128.117.294.362.353.509 1.43-.343 1.871-.95 1.989-2.126h1.166v.98c0 .607.166.764.852.764h1.009c.519 0 .695-.196.764-.98-.186-.039-.451-.127-.558-.225-.03.578-.069.647-.284.647h-.853c-.245 0-.284-.02-.284-.216v-.97h2.048v4.781c0 .157-.049.206-.216.206-.176.01-.764.019-1.401-.01.108.186.216.519.245.705.803 0 1.342-.009 1.666-.117.313-.118.411-.353.411-.784v-5.418h-2.067c.176-.293.372-.656.558-1.028h1.842zm7.544 1.371h-3.89v-1.851h3.89v1.851zm.734-2.547h-5.329v3.243h5.329v-3.243zm-4.007 4.977v2.322h-2.047v-2.322h2.047zm-2.743 3.556h.696v-.529h2.047v.441h.716v-4.173h-3.459v4.261zm5.232-1.234v-2.322h2.224v2.322h-2.224zm-.706-3.027v4.261h.706v-.529h2.224v.461h.715v-4.193h-3.645zm8.337 3.193v-2.41h4.017v2.41h-4.017zm2.43-6.25c-.421.852-1.038 1.626-1.763 2.292-.451-.489-1.196-1.116-1.852-1.577.255-.225.48-.47.696-.715h2.919zm2.322 3.174h-4.007c1.136-.96 2.097-2.165 2.675-3.615l-.481-.255-.137.04h-2.762c.205-.284.392-.569.558-.843l-.813-.166c-.568 1.058-1.685 2.312-3.292 3.184.167.127.412.391.51.558.47-.274.891-.578 1.283-.892.647.48 1.362 1.107 1.793 1.607-1.107.872-2.391 1.519-3.635 1.881.157.137.343.441.431.637.813-.265 1.627-.637 2.41-1.097v3.095h.715v-.392h4.017v.412h.735v-4.154zm4.986.48c-.186-.235-.989-1.077-1.263-1.322v-.48h1.195v-.588c.166.088.372.196.47.264.353-.49.686-1.214.931-1.969 1.205-.108 2.566-.284 3.536-.529l-.548-.509c-.706.176-1.881.362-2.988.48l-.549-.118c-.215.852-.558 1.705-1.009 2.293h-1.038v-1.685c.44-.118.862-.245 1.205-.402l-.549-.51c-.637.314-1.803.588-2.821.765.088.147.186.382.215.538.402-.058.843-.137 1.264-.225v1.519h-1.43v.676h1.312c-.313 1.107-.891 2.39-1.43 3.086.127.176.304.46.382.666.412-.598.833-1.538 1.166-2.498v4.222h.686v-4.291c.313.392.685.901.832 1.166l.431-.549zm3.919-4.085c.402.568.813 1.371.99 1.881l.627-.284c-.187-.51-.608-1.264-1.019-1.832l-.598.235zm-.764 1.381c-.059-.372-.245-.93-.46-1.342l-.608.157c.206.431.382.999.421 1.362l.647-.177zm-.137 3.841v-.941h1.381v.941h-1.381zm-1.95-.941h1.284v.941h-1.284v-.941zm1.284-1.469v.921h-1.284v-.921h1.284zm2.047 0v.921h-1.381v-.921h1.381zm1.215 2.41h-.539v-2.998h-2.057v-.637h-.666v.637h-1.95v2.998h-.696v.607h.696v1.901h.666v-1.901h3.331v1.127c0 .117-.049.147-.176.156-.118 0-.539.01-.999-.009.097.166.215.45.254.636.617 0 1.009-.009 1.254-.117.265-.108.343-.314.343-.666v-1.127h.539v-.607z"/>
    <path stroke="#999" stroke-width=".867" d="M233.898 125.761H267.302V158.9H233.898z"/>
</svg>
