<svg xmlns="http://www.w3.org/2000/svg" width="320" height="175" fill="none" viewBox="0 0 320 175">
    <path fill="#fff" stroke="#999" stroke-width=".914" d="M0.457 0.457H319.543V174.543H0.457z"/>
    <path fill="#999" d="M32.602 23.047v-1.529h-8.307c.281-2.112.301-4.103.321-5.712h-1.609c-.02 1.589 0 3.6-.302 5.712h-7.663v1.529h7.422c-.825 3.801-2.836 7.663-7.824 9.836.422.301.905.824 1.126 1.227 4.888-2.233 7.06-6.095 8.026-9.957 1.589 4.566 4.143 8.126 8.005 9.957.262-.443.764-1.066 1.126-1.408-3.882-1.59-6.496-5.23-7.904-9.655h7.583zm15.568-3.762h-1.85v-1.387h1.85v1.387zm3.078 3.641h-1.972v-2.474h1.972v2.474zm-7.845-2.474h1.81v2.474h-1.81v-2.474zm4.767 0v2.474H46.3v-2.474h1.87zm-3.077-1.167h-2.957v4.788h10.419v-4.788h-3.178v-1.387h3.701V16.65H41.512v1.248h3.58v1.387zm6.96 7.141V25.28h-9.394v1.146h9.393zm-10.54-.02c-.343-.543-1.831-2.776-2.394-3.52v-1.388h2.252V20.11H39.12v-4.345H37.75v4.345h-2.816v1.388h2.655c-.583 2.735-1.81 5.873-3.057 7.543.241.342.603.905.764 1.287.925-1.307 1.79-3.42 2.454-5.612v9.394h1.368v-9.454c.583.986 1.287 2.213 1.569 2.856l.824-1.106zm2.212 3.158c-.664 1.006-1.89 2.212-3.058 2.977.322.241.725.623.926.905 1.207-.845 2.474-2.052 3.278-3.259l-1.146-.623zm9.353-.463v-1.207H41.412v1.207H46.5v3.54c0 .201-.06.282-.302.282h-1.971c.18.342.382.845.442 1.227 1.267 0 2.072-.02 2.595-.221.503-.202.623-.584.623-1.268v-3.56h5.19zm-3.741 1.207c1.005.965 2.192 2.313 2.775 3.158l1.107-.805c-.584-.844-1.83-2.132-2.836-3.037l-1.046.684zm21.381-8.267h-4.787v-1.509h4.787v1.51zm0 2.535h-4.787v-1.489h4.787v1.489zm0 2.574h-4.787v-1.508h4.787v1.508zm-6.135-7.724v8.83h7.523v-8.83h-3.721c.181-.462.382-1.005.563-1.528h3.963V16.75h-9.092v1.146h3.741c-.12.503-.281 1.047-.442 1.53h-2.535zm4.446 9.736c1.106.744 2.413 1.89 3.077 2.695l1.086-.704c-.663-.764-1.97-1.87-3.137-2.575l-1.026.584zm-2.776-.564c-.764.926-2.052 1.83-3.319 2.414.302.201.785.704 1.006.945 1.267-.724 2.695-1.85 3.56-2.956l-1.247-.403zm-4.868-9.393h-3.922v-1.488h3.922v1.488zm0 2.575h-3.922v-1.53h3.922v1.53zm1.368-5.17h-6.638v6.276h6.638V16.61zm-2.554 12.21h3.399v-1.147h-3.4v-2.152h3.742v-1.167h-9.011v1.167h3.982v5.35c-.603-.482-1.106-1.126-1.488-1.95.08-.745.12-1.53.16-2.294h-1.246c-.101 2.454-.443 5.15-1.65 6.598.322.22.765.683.946.965.764-.925 1.247-2.212 1.528-3.66 1.81 2.695 4.807 3.177 9.152 3.177h6.457c.08-.402.322-.965.543-1.287-1.167.04-6.115.04-7 .04-2.474-.02-4.526-.14-6.114-.824V28.82zM24.775 147.863v1.329h-2.523v-1.329h2.523zm.706 1.931v-2.533h-3.914v3.167h.685v-.634h3.23zm-3.146-5.586c-.093-.301-.28-.737-.488-1.09h3.24c-.145.353-.363.789-.54 1.09h-2.212zm5.607-1.09v-.706h-4.111v-.976h-.78v.976h-4.017v.706h1.983c.176.322.373.758.488 1.09H19.47v6.687h.726v-6.012h1.859c-.104.966-.478 1.443-1.786 1.713.135.125.312.384.374.54 1.516-.363 1.983-1.007 2.108-2.253h1.235v1.038c0 .644.177.81.904.81h1.07c.55 0 .736-.207.809-1.038-.197-.042-.478-.135-.592-.239-.031.613-.073.685-.301.685h-.903c-.26 0-.301-.02-.301-.228v-1.028h2.17v5.067c0 .166-.052.218-.229.218-.187.011-.81.021-1.485-.01.115.197.229.55.26.747.851 0 1.422-.01 1.765-.124.332-.125.436-.374.436-.831v-5.742H25.4c.186-.311.394-.695.591-1.09h1.952zm7.995 1.454h-4.122v-1.963h4.122v1.963zm.779-2.7h-5.648v3.437h5.648v-3.437zm-4.247 5.275v2.46H30.3v-2.46h2.17zm-2.907 3.769h.737v-.561h2.17v.467h.758v-4.423h-3.665v4.517zm5.545-1.309v-2.46h2.357v2.46h-2.357zm-.748-3.208v4.517h.748v-.561h2.357v.488h.758v-4.444h-3.863zm8.836 3.385v-2.554h4.257v2.554h-4.257zm2.575-6.625c-.446.904-1.1 1.724-1.869 2.43-.477-.519-1.267-1.184-1.962-1.672.27-.238.509-.498.737-.758h3.094zm2.461 3.365h-4.247c1.205-1.018 2.222-2.295 2.835-3.832l-.509-.27-.145.042h-2.928c.218-.301.415-.602.591-.893l-.861-.177c-.602 1.122-1.786 2.451-3.489 3.375.176.135.436.415.54.592.498-.291.945-.613 1.36-.945.685.509 1.443 1.173 1.9 1.703-1.173.924-2.533 1.609-3.852 1.993.166.146.363.467.457.675.862-.28 1.723-.675 2.554-1.163v3.281h.758v-.415h4.257v.436h.779v-4.402zm5.285.508c-.197-.249-1.049-1.142-1.34-1.401v-.509h1.267v-.623c.177.093.395.208.499.28.373-.519.727-1.287.986-2.087 1.277-.114 2.72-.301 3.748-.56l-.581-.54c-.748.187-1.994.384-3.167.508l-.581-.124c-.229.903-.592 1.806-1.07 2.429h-1.1v-1.785c.467-.125.913-.26 1.277-.426l-.582-.54c-.675.332-1.91.623-2.99.81.093.156.197.405.228.571.426-.062.893-.145 1.34-.239v1.609h-1.516v.717h1.391c-.332 1.173-.945 2.533-1.516 3.271.135.186.322.488.405.706.436-.634.883-1.631 1.236-2.648v4.475h.727v-4.548c.332.416.726.956.882 1.236l.457-.582zm4.153-4.329c.426.602.862 1.453 1.049 1.993l.664-.301c-.197-.54-.643-1.339-1.08-1.942l-.633.25zm-.81 1.464c-.062-.395-.26-.987-.488-1.423l-.643.166c.218.457.405 1.059.446 1.444l.685-.187zm-.145 4.07v-.997h1.464v.997h-1.464zm-2.066-.997h1.36v.997h-1.36v-.997zm1.36-1.557v.976h-1.36v-.976h1.36zm2.17 0v.976h-1.464v-.976h1.464zm1.288 2.554h-.572v-3.177h-2.18v-.675h-.706v.675h-2.066v3.177h-.737v.644h.737v2.014h.706v-2.014h3.53v1.194c0 .124-.052.155-.187.166-.124 0-.57.01-1.059-.011.104.177.228.478.27.675.654 0 1.07-.01 1.33-.124.28-.114.363-.333.363-.706v-1.194h.57v-.644z"/>
    <path stroke="#999" stroke-width=".914" d="M24.229 108.359H53.486000000000004V137.367H24.229z"/>
    <path fill="#999" d="M218.604 147.863v1.329h-2.523v-1.329h2.523zm.706 1.931v-2.533h-3.915v3.167h.686v-.634h3.229zm-3.146-5.586c-.094-.301-.281-.737-.488-1.09h3.239c-.145.353-.363.789-.54 1.09h-2.211zm5.607-1.09v-.706h-4.112v-.976h-.779v.976h-4.018v.706h1.983c.177.322.374.758.488 1.09h-2.035v6.687h.727v-6.012h1.858c-.103.966-.477 1.443-1.786 1.713.135.125.312.384.374.54 1.516-.363 1.983-1.007 2.108-2.253h1.236v1.038c0 .644.176.81.903.81h1.069c.551 0 .738-.207.81-1.038-.197-.042-.477-.135-.592-.239-.031.613-.072.685-.301.685h-.903c-.26 0-.301-.02-.301-.228v-1.028h2.17v5.067c0 .166-.052.218-.228.218-.187.011-.81.021-1.485-.01.114.197.228.55.259.747.852 0 1.423-.01 1.765-.124.333-.125.437-.374.437-.831v-5.742h-2.191c.187-.311.394-.695.592-1.09h1.952zm7.995 1.454h-4.122v-1.963h4.122v1.963zm.778-2.7h-5.648v3.437h5.648v-3.437zm-4.246 5.275v2.46h-2.17v-2.46h2.17zm-2.908 3.769h.738v-.561h2.17v.467h.758v-4.423h-3.666v4.517zm5.545-1.309v-2.46h2.357v2.46h-2.357zm-.748-3.208v4.517h.748v-.561h2.357v.488h.758v-4.444h-3.863zm8.837 3.385v-2.554h4.257v2.554h-4.257zm2.575-6.625c-.447.904-1.101 1.724-1.869 2.43-.478-.519-1.267-1.184-1.963-1.672.27-.238.509-.498.737-.758h3.095zm2.46 3.365h-4.246c1.204-1.018 2.222-2.295 2.834-3.832l-.509-.27-.145.042h-2.928c.218-.301.415-.602.592-.893l-.862-.177c-.602 1.122-1.786 2.451-3.489 3.375.177.135.436.415.54.592.499-.291.945-.613 1.36-.945.686.509 1.444 1.173 1.901 1.703-1.174.924-2.534 1.609-3.853 1.993.167.146.364.467.457.675.862-.28 1.724-.675 2.555-1.163v3.281h.758v-.415h4.257v.436h.778v-4.402zm5.285.508c-.197-.249-1.048-1.142-1.339-1.401v-.509h1.267v-.623c.176.093.394.208.498.28.374-.519.727-1.287.987-2.087 1.277-.114 2.72-.301 3.748-.56l-.582-.54c-.747.187-1.993.384-3.166.508l-.582-.124c-.228.903-.592 1.806-1.069 2.429h-1.101v-1.785c.467-.125.914-.26 1.277-.426l-.581-.54c-.675.332-1.911.623-2.991.81.094.156.198.405.229.571.425-.062.893-.145 1.339-.239v1.609h-1.516v.717h1.392c-.333 1.173-.945 2.533-1.516 3.271.135.186.321.488.405.706.436-.634.882-1.631 1.235-2.648v4.475h.727v-4.548c.332.416.727.956.883 1.236l.456-.582zm4.154-4.329c.425.602.861 1.453 1.048 1.993l.665-.301c-.197-.54-.644-1.339-1.08-1.942l-.633.25zm-.81 1.464c-.063-.395-.26-.987-.488-1.423l-.644.166c.218.457.405 1.059.446 1.444l.686-.187zm-.146 4.07v-.997h1.464v.997h-1.464zm-2.066-.997h1.36v.997h-1.36v-.997zm1.36-1.557v.976h-1.36v-.976h1.36zm2.17 0v.976h-1.464v-.976h1.464zm1.288 2.554h-.571v-3.177h-2.181v-.675h-.706v.675h-2.066v3.177h-.737v.644h.737v2.014h.706v-2.014h3.53v1.194c0 .124-.051.155-.186.166-.125 0-.572.01-1.06-.011.104.177.229.478.27.675.655 0 1.07-.01 1.329-.124.281-.114.364-.333.364-.706v-1.194h.571v-.644z"/>
    <path stroke="#999" stroke-width=".914" d="M218.057 108.359H247.314V137.367H218.057z"/>
    <path fill="#999" d="M267.061 147.863v1.329h-2.523v-1.329h2.523zm.706 1.931v-2.533h-3.915v3.167h.686v-.634h3.229zm-3.146-5.586c-.094-.301-.281-.737-.488-1.09h3.239c-.145.353-.363.789-.54 1.09h-2.211zm5.607-1.09v-.706h-4.112v-.976h-.779v.976h-4.018v.706h1.983c.177.322.374.758.488 1.09h-2.035v6.687h.727v-6.012h1.858c-.103.966-.477 1.443-1.786 1.713.135.125.312.384.374.54 1.516-.363 1.983-1.007 2.108-2.253h1.236v1.038c0 .644.176.81.903.81h1.069c.551 0 .738-.207.81-1.038-.197-.042-.477-.135-.591-.239-.032.613-.073.685-.302.685h-.903c-.26 0-.301-.02-.301-.228v-1.028h2.17v5.067c0 .166-.052.218-.228.218-.187.011-.81.021-1.485-.01.114.197.228.55.259.747.852 0 1.423-.01 1.766-.124.332-.125.436-.374.436-.831v-5.742h-2.191c.187-.311.394-.695.592-1.09h1.952zm7.995 1.454h-4.122v-1.963h4.122v1.963zm.778-2.7h-5.648v3.437h5.648v-3.437zm-4.246 5.275v2.46h-2.17v-2.46h2.17zm-2.908 3.769h.738v-.561h2.17v.467h.758v-4.423h-3.666v4.517zm5.545-1.309v-2.46h2.357v2.46h-2.357zm-.748-3.208v4.517h.748v-.561h2.357v.488h.758v-4.444h-3.863zm8.837 3.385v-2.554h4.257v2.554h-4.257zm2.575-6.625c-.447.904-1.101 1.724-1.869 2.43-.478-.519-1.267-1.184-1.963-1.672.27-.238.509-.498.737-.758h3.095zm2.46 3.365h-4.246c1.204-1.018 2.222-2.295 2.834-3.832l-.508-.27-.146.042h-2.928c.218-.301.415-.602.592-.893l-.862-.177c-.602 1.122-1.786 2.451-3.489 3.375.177.135.436.415.54.592.499-.291.945-.613 1.36-.945.686.509 1.444 1.173 1.901 1.703-1.174.924-2.534 1.609-3.853 1.993.167.146.364.467.457.675.862-.28 1.724-.675 2.555-1.163v3.281h.758v-.415h4.257v.436h.778v-4.402zm5.285.508c-.197-.249-1.048-1.142-1.339-1.401v-.509h1.267v-.623c.176.093.394.208.498.28.374-.519.727-1.287.987-2.087 1.277-.114 2.72-.301 3.748-.56l-.582-.54c-.747.187-1.993.384-3.166.508l-.582-.124c-.228.903-.592 1.806-1.069 2.429h-1.101v-1.785c.467-.125.914-.26 1.277-.426l-.581-.54c-.675.332-1.911.623-2.991.81.094.156.198.405.229.571.425-.062.893-.145 1.339-.239v1.609h-1.516v.717h1.392c-.333 1.173-.945 2.533-1.516 3.271.135.186.322.488.405.706.436-.634.882-1.631 1.235-2.648v4.475h.727v-4.548c.332.416.727.956.883 1.236l.456-.582zm4.154-4.329c.425.602.862 1.453 1.048 1.993l.665-.301c-.197-.54-.644-1.339-1.08-1.942l-.633.25zm-.81 1.464c-.062-.395-.26-.987-.488-1.423l-.644.166c.218.457.405 1.059.447 1.444l.685-.187zm-.146 4.07v-.997h1.464v.997h-1.464zm-2.066-.997h1.36v.997h-1.36v-.997zm1.36-1.557v.976h-1.36v-.976h1.36zm2.17 0v.976h-1.464v-.976h1.464zm1.288 2.554h-.571v-3.177h-2.181v-.675h-.706v.675h-2.066v3.177h-.737v.644h.737v2.014h.706v-2.014h3.53v1.194c0 .124-.051.155-.186.166-.125 0-.571.01-1.059-.011.103.177.228.478.269.675.655 0 1.07-.01 1.33-.124.28-.114.363-.333.363-.706v-1.194h.571v-.644z"/>
    <path stroke="#999" stroke-width=".914" d="M266.514 108.359H295.771V137.367H266.514z"/>
    <path fill="#999" d="M170.146 147.863v1.329h-2.523v-1.329h2.523zm.707 1.931v-2.533h-3.915v3.167h.685v-.634h3.23zm-3.147-5.586c-.093-.301-.28-.737-.488-1.09h3.24c-.145.353-.363.789-.54 1.09h-2.212zm5.607-1.09v-.706h-4.111v-.976h-.779v.976h-4.018v.706h1.983c.176.322.374.758.488 1.09h-2.035v6.687h.726v-6.012h1.859c-.104.966-.478 1.443-1.786 1.713.135.125.312.384.374.54 1.516-.363 1.983-1.007 2.108-2.253h1.235v1.038c0 .644.177.81.904.81h1.069c.55 0 .737-.207.81-1.038-.197-.042-.478-.135-.592-.239-.031.613-.072.685-.301.685h-.903c-.26 0-.301-.02-.301-.228v-1.028h2.17v5.067c0 .166-.052.218-.229.218-.187.011-.81.021-1.484-.01.114.197.228.55.259.747.852 0 1.423-.01 1.765-.124.332-.125.436-.374.436-.831v-5.742h-2.191c.187-.311.395-.695.592-1.09h1.952zm7.995 1.454h-4.122v-1.963h4.122v1.963zm.779-2.7h-5.648v3.437h5.648v-3.437zm-4.247 5.275v2.46h-2.17v-2.46h2.17zm-2.907 3.769h.737v-.561h2.17v.467h.758v-4.423h-3.665v4.517zm5.545-1.309v-2.46h2.357v2.46h-2.357zm-.748-3.208v4.517h.748v-.561h2.357v.488h.758v-4.444h-3.863zm8.836 3.385v-2.554h4.257v2.554h-4.257zm2.575-6.625c-.446.904-1.1 1.724-1.869 2.43-.477-.519-1.266-1.184-1.962-1.672.27-.238.509-.498.737-.758h3.094zm2.461 3.365h-4.247c1.205-1.018 2.222-2.295 2.835-3.832l-.509-.27-.145.042h-2.928c.218-.301.415-.602.592-.893l-.862-.177c-.602 1.122-1.786 2.451-3.489 3.375.177.135.436.415.54.592.498-.291.945-.613 1.36-.945.685.509 1.443 1.173 1.9 1.703-1.173.924-2.533 1.609-3.852 1.993.166.146.364.467.457.675.862-.28 1.724-.675 2.554-1.163v3.281h.758v-.415h4.257v.436h.779v-4.402zm5.285.508c-.197-.249-1.049-1.142-1.339-1.401v-.509h1.266v-.623c.177.093.395.208.499.28.374-.519.727-1.287.986-2.087 1.277-.114 2.721-.301 3.749-.56l-.582-.54c-.747.187-1.993.384-3.167.508l-.581-.124c-.229.903-.592 1.806-1.07 2.429h-1.1v-1.785c.467-.125.913-.26 1.277-.426l-.582-.54c-.675.332-1.91.623-2.99.81.093.156.197.405.228.571.426-.062.893-.145 1.34-.239v1.609h-1.516v.717h1.391c-.332 1.173-.945 2.533-1.516 3.271.135.186.322.488.405.706.436-.634.883-1.631 1.236-2.648v4.475h.727v-4.548c.332.416.727.956.882 1.236l.457-.582zm4.153-4.329c.426.602.862 1.453 1.049 1.993l.665-.301c-.198-.54-.644-1.339-1.08-1.942l-.634.25zm-.809 1.464c-.063-.395-.26-.987-.488-1.423l-.644.166c.218.457.405 1.059.446 1.444l.686-.187zm-.146 4.07v-.997h1.464v.997h-1.464zm-2.066-.997h1.36v.997h-1.36v-.997zm1.36-1.557v.976h-1.36v-.976h1.36zm2.17 0v.976h-1.464v-.976h1.464zm1.288 2.554h-.571v-3.177h-2.181v-.675h-.706v.675h-2.066v3.177h-.737v.644h.737v2.014h.706v-2.014h3.53v1.194c0 .124-.052.155-.187.166-.124 0-.571.01-1.059-.011.104.177.229.478.27.675.654 0 1.07-.01 1.329-.124.281-.114.364-.333.364-.706v-1.194h.571v-.644z"/>
    <path stroke="#999" stroke-width=".914" d="M169.6 108.359H198.857V137.367H169.6z"/>
    <path fill="#999" d="M121.689 147.863v1.329h-2.523v-1.329h2.523zm.706 1.931v-2.533h-3.914v3.167h.685v-.634h3.229zm-3.146-5.586c-.093-.301-.28-.737-.488-1.09h3.24c-.145.353-.363.789-.54 1.09h-2.212zm5.607-1.09v-.706h-4.111v-.976h-.779v.976h-4.018v.706h1.983c.176.322.374.758.488 1.09h-2.035v6.687h.726v-6.012h1.859c-.104.966-.478 1.443-1.786 1.713.135.125.312.384.374.54 1.516-.363 1.983-1.007 2.108-2.253h1.235v1.038c0 .644.177.81.904.81h1.069c.55 0 .737-.207.81-1.038-.197-.042-.478-.135-.592-.239-.031.613-.073.685-.301.685h-.903c-.26 0-.301-.02-.301-.228v-1.028h2.17v5.067c0 .166-.052.218-.229.218-.187.011-.81.021-1.485-.01.115.197.229.55.26.747.851 0 1.423-.01 1.765-.124.332-.125.436-.374.436-.831v-5.742h-2.191c.187-.311.395-.695.592-1.09h1.952zm7.995 1.454h-4.122v-1.963h4.122v1.963zm.779-2.7h-5.648v3.437h5.648v-3.437zm-4.247 5.275v2.46h-2.17v-2.46h2.17zm-2.907 3.769h.737v-.561h2.17v.467h.758v-4.423h-3.665v4.517zm5.545-1.309v-2.46h2.357v2.46h-2.357zm-.748-3.208v4.517h.748v-.561h2.357v.488h.758v-4.444h-3.863zm8.836 3.385v-2.554h4.257v2.554h-4.257zm2.575-6.625c-.446.904-1.1 1.724-1.869 2.43-.477-.519-1.266-1.184-1.962-1.672.27-.238.509-.498.737-.758h3.094zm2.461 3.365h-4.247c1.205-1.018 2.222-2.295 2.835-3.832l-.509-.27-.145.042h-2.928c.218-.301.415-.602.592-.893l-.862-.177c-.602 1.122-1.786 2.451-3.489 3.375.177.135.436.415.54.592.498-.291.945-.613 1.36-.945.685.509 1.443 1.173 1.9 1.703-1.173.924-2.533 1.609-3.852 1.993.166.146.364.467.457.675.862-.28 1.724-.675 2.554-1.163v3.281h.758v-.415h4.257v.436h.779v-4.402zm5.285.508c-.197-.249-1.049-1.142-1.339-1.401v-.509h1.266v-.623c.177.093.395.208.499.28.374-.519.727-1.287.986-2.087 1.277-.114 2.721-.301 3.749-.56l-.582-.54c-.748.187-1.993.384-3.167.508l-.581-.124c-.229.903-.592 1.806-1.07 2.429h-1.1v-1.785c.467-.125.913-.26 1.277-.426l-.582-.54c-.675.332-1.91.623-2.99.81.093.156.197.405.228.571.426-.062.893-.145 1.34-.239v1.609h-1.516v.717h1.391c-.332 1.173-.945 2.533-1.516 3.271.135.186.322.488.405.706.436-.634.883-1.631 1.236-2.648v4.475h.727v-4.548c.332.416.726.956.882 1.236l.457-.582zm4.153-4.329c.426.602.862 1.453 1.049 1.993l.665-.301c-.198-.54-.644-1.339-1.08-1.942l-.634.25zm-.81 1.464c-.062-.395-.259-.987-.488-1.423l-.643.166c.218.457.405 1.059.446 1.444l.685-.187zm-.145 4.07v-.997h1.464v.997h-1.464zm-2.066-.997h1.36v.997h-1.36v-.997zm1.36-1.557v.976h-1.36v-.976h1.36zm2.17 0v.976h-1.464v-.976h1.464zm1.288 2.554h-.571v-3.177h-2.181v-.675h-.706v.675h-2.066v3.177h-.737v.644h.737v2.014h.706v-2.014h3.53v1.194c0 .124-.052.155-.187.166-.124 0-.571.01-1.059-.011.104.177.229.478.27.675.654 0 1.07-.01 1.329-.124.281-.114.364-.333.364-.706v-1.194h.571v-.644z"/>
    <path stroke="#999" stroke-width=".914" d="M121.143 108.359H150.4V137.367H121.143z"/>
    <path fill="#999" d="M73.232 147.863v1.329H70.71v-1.329h2.523zm.706 1.931v-2.533h-3.914v3.167h.685v-.634h3.23zm-3.146-5.586c-.093-.301-.28-.737-.488-1.09h3.24c-.146.353-.364.789-.54 1.09h-2.212zm5.607-1.09v-.706h-4.112v-.976h-.778v.976H67.49v.706h1.984c.176.322.373.758.487 1.09h-2.035v6.687h.727v-6.012h1.859c-.104.966-.478 1.443-1.786 1.713.135.125.311.384.374.54 1.516-.363 1.983-1.007 2.107-2.253h1.236v1.038c0 .644.177.81.903.81h1.07c.55 0 .737-.207.81-1.038-.198-.042-.478-.135-.592-.239-.031.613-.073.685-.301.685h-.904c-.26 0-.3-.02-.3-.228v-1.028h2.17v5.067c0 .166-.053.218-.229.218-.187.011-.81.021-1.485-.01.114.197.229.55.26.747.851 0 1.422-.01 1.765-.124.332-.125.436-.374.436-.831v-5.742h-2.19c.186-.311.394-.695.591-1.09h1.952zm7.995 1.454h-4.122v-1.963h4.122v1.963zm.779-2.7h-5.649v3.437h5.649v-3.437zm-4.247 5.275v2.46h-2.17v-2.46h2.17zm-2.907 3.769h.737v-.561h2.17v.467h.758v-4.423H78.02v4.517zm5.544-1.309v-2.46h2.357v2.46h-2.357zm-.747-3.208v4.517h.747v-.561h2.357v.488h.758v-4.444h-3.862zm8.836 3.385v-2.554h4.257v2.554h-4.257zm2.575-6.625c-.447.904-1.1 1.724-1.869 2.43-.478-.519-1.267-1.184-1.962-1.672.27-.238.508-.498.737-.758h3.094zm2.46 3.365h-4.246c1.204-1.018 2.222-2.295 2.835-3.832l-.51-.27-.145.042h-2.927c.218-.301.415-.602.591-.893l-.861-.177c-.603 1.122-1.786 2.451-3.49 3.375.177.135.437.415.54.592.5-.291.946-.613 1.36-.945.686.509 1.444 1.173 1.901 1.703-1.173.924-2.534 1.609-3.852 1.993.166.146.363.467.457.675.861-.28 1.723-.675 2.554-1.163v3.281h.758v-.415h4.257v.436h.779v-4.402zm5.286.508c-.197-.249-1.049-1.142-1.34-1.401v-.509h1.267v-.623c.177.093.395.208.499.28.373-.519.726-1.287.986-2.087 1.277-.114 2.72-.301 3.748-.56l-.581-.54c-.748.187-1.994.384-3.167.508l-.582-.124c-.228.903-.591 1.806-1.069 2.429h-1.101v-1.785c.468-.125.914-.26 1.278-.426l-.582-.54c-.675.332-1.91.623-2.99.81.093.156.197.405.228.571.426-.062.893-.145 1.34-.239v1.609H98.39v.717h1.391c-.332 1.173-.945 2.533-1.516 3.271.135.186.322.488.405.706.436-.634.882-1.631 1.236-2.648v4.475h.726v-4.548c.333.416.727.956.883 1.236l.457-.582zm4.153-4.329c.426.602.862 1.453 1.049 1.993l.664-.301c-.197-.54-.643-1.339-1.08-1.942l-.633.25zm-.81 1.464c-.062-.395-.259-.987-.488-1.423l-.644.166c.218.457.405 1.059.447 1.444l.685-.187zm-.145 4.07v-.997h1.464v.997h-1.464zm-2.066-.997h1.36v.997h-1.36v-.997zm1.36-1.557v.976h-1.36v-.976h1.36zm2.17 0v.976h-1.464v-.976h1.464zm1.287 2.554h-.571v-3.177h-2.18v-.675h-.706v.675h-2.066v3.177h-.738v.644h.738v2.014h.706v-2.014h3.53v1.194c0 .124-.052.155-.187.166-.125 0-.571.01-1.059-.011.104.177.228.478.27.675.654 0 1.069-.01 1.329-.124.28-.114.363-.333.363-.706v-1.194h.571v-.644z"/>
    <path stroke="#999" stroke-width=".914" d="M72.685 108.359H101.94200000000001V137.367H72.685z"/>
    <path fill="#999" d="M24.775 98.899v1.329h-2.523v-1.33h2.523zm.706 1.931v-2.534h-3.914v3.167h.685v-.633h3.23zm-3.146-5.586c-.093-.301-.28-.737-.488-1.09h3.24c-.145.353-.363.789-.54 1.09h-2.212zm5.607-1.09v-.706h-4.111v-.976h-.78v.976h-4.017v.706h1.983c.176.322.373.758.488 1.09H19.47v6.687h.726v-6.012h1.859c-.104.965-.478 1.443-1.786 1.713.135.125.312.384.374.54 1.516-.364 1.983-1.007 2.108-2.253h1.235v1.038c0 .644.177.81.904.81h1.07c.55 0 .736-.208.809-1.038-.197-.042-.478-.135-.592-.24-.031.613-.073.686-.301.686h-.903c-.26 0-.301-.02-.301-.228v-1.028h2.17v5.067c0 .166-.052.218-.229.218-.187.01-.81.021-1.485-.011.115.198.229.551.26.748.851 0 1.422-.01 1.765-.125.332-.124.436-.373.436-.83v-5.742H25.4c.186-.312.394-.696.591-1.09h1.952zm7.995 1.453h-4.122v-1.962h4.122v1.962zm.779-2.7h-5.648v3.437h5.648v-3.436zm-4.247 5.275v2.461H30.3v-2.46h2.17zm-2.907 3.769h.737v-.56h2.17v.467h.758v-4.423h-3.665v4.516zm5.545-1.308v-2.46h2.357v2.46h-2.357zm-.748-3.208v4.516h.748v-.56h2.357v.488h.758v-4.444h-3.863zm8.836 3.385v-2.555h4.257v2.555h-4.257zm2.575-6.625c-.446.904-1.1 1.724-1.869 2.43-.477-.52-1.267-1.184-1.962-1.672.27-.239.509-.498.737-.758h3.094zm2.461 3.364h-4.247c1.205-1.017 2.222-2.294 2.835-3.831l-.509-.27-.145.041h-2.928c.218-.3.415-.602.591-.892l-.861-.177c-.602 1.121-1.786 2.45-3.489 3.374.176.135.436.416.54.592.498-.29.945-.612 1.36-.945.685.51 1.443 1.174 1.9 1.703-1.173.924-2.533 1.61-3.852 1.994.166.145.363.467.457.675.862-.28 1.723-.675 2.554-1.163v3.281h.758v-.415h4.257v.436h.779v-4.403zm5.285.509c-.197-.25-1.049-1.142-1.34-1.402v-.508h1.267v-.623c.177.093.395.207.499.28.373-.52.727-1.288.986-2.087 1.277-.114 2.72-.301 3.748-.56l-.581-.54c-.748.186-1.994.383-3.167.508l-.581-.125c-.229.904-.592 1.807-1.07 2.43h-1.1v-1.786c.467-.124.913-.26 1.277-.425l-.582-.54c-.675.332-1.91.623-2.99.81.093.155.197.404.228.57.426-.062.893-.145 1.34-.238v1.61h-1.516v.716h1.391c-.332 1.173-.945 2.533-1.516 3.27.135.187.322.488.405.706.436-.633.883-1.63 1.236-2.647v4.475h.727v-4.548c.332.415.726.955.882 1.236l.457-.582zm4.153-4.33c.426.603.862 1.454 1.049 1.994l.664-.301c-.197-.54-.643-1.34-1.08-1.942l-.633.25zm-.81 1.464c-.062-.394-.26-.986-.488-1.422l-.643.166c.218.457.405 1.059.446 1.443l.685-.187zm-.145 4.07v-.996h1.464v.996h-1.464zm-2.066-.996h1.36v.996h-1.36v-.996zm1.36-1.558v.976h-1.36v-.976h1.36zm2.17 0v.976h-1.464v-.976h1.464zm1.288 2.554h-.572v-3.177h-2.18v-.675h-.706v.675h-2.066v3.177h-.737v.644h.737v2.015h.706v-2.015h3.53v1.194c0 .125-.052.156-.187.166-.124 0-.57.011-1.059-.01.104.177.228.478.27.675.654 0 1.07-.01 1.33-.125.28-.114.363-.332.363-.706v-1.194h.57v-.644z"/>
    <path stroke="#999" stroke-width=".914" d="M24.229 59.395H53.486000000000004V88.403H24.229z"/>
    <path fill="#999" d="M218.604 98.899v1.329h-2.523v-1.33h2.523zm.706 1.931v-2.534h-3.915v3.167h.686v-.633h3.229zm-3.146-5.586c-.094-.301-.281-.737-.488-1.09h3.239c-.145.353-.363.789-.54 1.09h-2.211zm5.607-1.09v-.706h-4.112v-.976h-.779v.976h-4.018v.706h1.983c.177.322.374.758.488 1.09h-2.035v6.687h.727v-6.012h1.858c-.103.965-.477 1.443-1.786 1.713.135.125.312.384.374.54 1.516-.364 1.983-1.007 2.108-2.253h1.236v1.038c0 .644.176.81.903.81h1.069c.551 0 .738-.208.81-1.038-.197-.042-.477-.135-.592-.24-.031.613-.072.686-.301.686h-.903c-.26 0-.301-.02-.301-.228v-1.028h2.17v5.067c0 .166-.052.218-.228.218-.187.01-.81.021-1.485-.011.114.198.228.551.259.748.852 0 1.423-.01 1.765-.125.333-.124.437-.373.437-.83v-5.742h-2.191c.187-.312.394-.696.592-1.09h1.952zm7.995 1.453h-4.122v-1.962h4.122v1.962zm.778-2.7h-5.648v3.437h5.648v-3.436zm-4.246 5.275v2.461h-2.17v-2.46h2.17zm-2.908 3.769h.738v-.56h2.17v.467h.758v-4.423h-3.666v4.516zm5.545-1.308v-2.46h2.357v2.46h-2.357zm-.748-3.208v4.516h.748v-.56h2.357v.488h.758v-4.444h-3.863zm8.837 3.385v-2.555h4.257v2.555h-4.257zm2.575-6.625c-.447.904-1.101 1.724-1.869 2.43-.478-.52-1.267-1.184-1.963-1.672.27-.239.509-.498.737-.758h3.095zm2.46 3.364h-4.246c1.204-1.017 2.222-2.294 2.834-3.831l-.509-.27-.145.041h-2.928c.218-.3.415-.602.592-.892l-.862-.177c-.602 1.121-1.786 2.45-3.489 3.374.177.135.436.416.54.592.499-.29.945-.612 1.36-.945.686.51 1.444 1.174 1.901 1.703-1.174.924-2.534 1.61-3.853 1.994.167.145.364.467.457.675.862-.28 1.724-.675 2.555-1.163v3.281h.758v-.415h4.257v.436h.778v-4.403zm5.285.509c-.197-.25-1.048-1.142-1.339-1.402v-.508h1.267v-.623c.176.093.394.207.498.28.374-.52.727-1.288.987-2.087 1.277-.114 2.72-.301 3.748-.56l-.582-.54c-.747.186-1.993.383-3.166.508l-.582-.125c-.228.904-.592 1.807-1.069 2.43h-1.101v-1.786c.467-.124.914-.26 1.277-.425l-.581-.54c-.675.332-1.911.623-2.991.81.094.155.198.404.229.57.425-.062.893-.145 1.339-.238v1.61h-1.516v.716h1.392c-.333 1.173-.945 2.533-1.516 3.27.135.187.321.488.405.706.436-.633.882-1.63 1.235-2.647v4.475h.727v-4.548c.332.415.727.955.883 1.236l.456-.582zm4.154-4.33c.425.603.861 1.454 1.048 1.994l.665-.301c-.197-.54-.644-1.34-1.08-1.942l-.633.25zm-.81 1.464c-.063-.394-.26-.986-.488-1.422l-.644.166c.218.457.405 1.059.446 1.443l.686-.187zm-.146 4.07v-.996h1.464v.996h-1.464zm-2.066-.996h1.36v.996h-1.36v-.996zm1.36-1.558v.976h-1.36v-.976h1.36zm2.17 0v.976h-1.464v-.976h1.464zm1.288 2.554h-.571v-3.177h-2.181v-.675h-.706v.675h-2.066v3.177h-.737v.644h.737v2.015h.706v-2.015h3.53v1.194c0 .125-.051.156-.186.166-.125 0-.572.011-1.06-.01.104.177.229.478.27.675.655 0 1.07-.01 1.329-.125.281-.114.364-.332.364-.706v-1.194h.571v-.644z"/>
    <path stroke="#999" stroke-width=".914" d="M218.057 59.395H247.314V88.403H218.057z"/>
    <path fill="#999" d="M267.061 98.899v1.329h-2.523v-1.33h2.523zm.706 1.931v-2.534h-3.915v3.167h.686v-.633h3.229zm-3.146-5.586c-.094-.301-.281-.737-.488-1.09h3.239c-.145.353-.363.789-.54 1.09h-2.211zm5.607-1.09v-.706h-4.112v-.976h-.779v.976h-4.018v.706h1.983c.177.322.374.758.488 1.09h-2.035v6.687h.727v-6.012h1.858c-.103.965-.477 1.443-1.786 1.713.135.125.312.384.374.54 1.516-.364 1.983-1.007 2.108-2.253h1.236v1.038c0 .644.176.81.903.81h1.069c.551 0 .738-.208.81-1.038-.197-.042-.477-.135-.591-.24-.032.613-.073.686-.302.686h-.903c-.26 0-.301-.02-.301-.228v-1.028h2.17v5.067c0 .166-.052.218-.228.218-.187.01-.81.021-1.485-.011.114.198.228.551.259.748.852 0 1.423-.01 1.766-.125.332-.124.436-.373.436-.83v-5.742h-2.191c.187-.312.394-.696.592-1.09h1.952zm7.995 1.453h-4.122v-1.962h4.122v1.962zm.778-2.7h-5.648v3.437h5.648v-3.436zm-4.246 5.275v2.461h-2.17v-2.46h2.17zm-2.908 3.769h.738v-.56h2.17v.467h.758v-4.423h-3.666v4.516zm5.545-1.308v-2.46h2.357v2.46h-2.357zm-.748-3.208v4.516h.748v-.56h2.357v.488h.758v-4.444h-3.863zm8.837 3.385v-2.555h4.257v2.555h-4.257zm2.575-6.625c-.447.904-1.101 1.724-1.869 2.43-.478-.52-1.267-1.184-1.963-1.672.27-.239.509-.498.737-.758h3.095zm2.46 3.364h-4.246c1.204-1.017 2.222-2.294 2.834-3.831l-.508-.27-.146.041h-2.928c.218-.3.415-.602.592-.892l-.862-.177c-.602 1.121-1.786 2.45-3.489 3.374.177.135.436.416.54.592.499-.29.945-.612 1.36-.945.686.51 1.444 1.174 1.901 1.703-1.174.924-2.534 1.61-3.853 1.994.167.145.364.467.457.675.862-.28 1.724-.675 2.555-1.163v3.281h.758v-.415h4.257v.436h.778v-4.403zm5.285.509c-.197-.25-1.048-1.142-1.339-1.402v-.508h1.267v-.623c.176.093.394.207.498.28.374-.52.727-1.288.987-2.087 1.277-.114 2.72-.301 3.748-.56l-.582-.54c-.747.186-1.993.383-3.166.508l-.582-.125c-.228.904-.592 1.807-1.069 2.43h-1.101v-1.786c.467-.124.914-.26 1.277-.425l-.581-.54c-.675.332-1.911.623-2.991.81.094.155.198.404.229.57.425-.062.893-.145 1.339-.238v1.61h-1.516v.716h1.392c-.333 1.173-.945 2.533-1.516 3.27.135.187.322.488.405.706.436-.633.882-1.63 1.235-2.647v4.475h.727v-4.548c.332.415.727.955.883 1.236l.456-.582zm4.154-4.33c.425.603.862 1.454 1.048 1.994l.665-.301c-.197-.54-.644-1.34-1.08-1.942l-.633.25zm-.81 1.464c-.062-.394-.26-.986-.488-1.422l-.644.166c.218.457.405 1.059.447 1.443l.685-.187zm-.146 4.07v-.996h1.464v.996h-1.464zm-2.066-.996h1.36v.996h-1.36v-.996zm1.36-1.558v.976h-1.36v-.976h1.36zm2.17 0v.976h-1.464v-.976h1.464zm1.288 2.554h-.571v-3.177h-2.181v-.675h-.706v.675h-2.066v3.177h-.737v.644h.737v2.015h.706v-2.015h3.53v1.194c0 .125-.051.156-.186.166-.125 0-.571.011-1.059-.01.103.177.228.478.269.675.655 0 1.07-.01 1.33-.125.28-.114.363-.332.363-.706v-1.194h.571v-.644z"/>
    <path stroke="#999" stroke-width=".914" d="M266.514 59.395H295.771V88.403H266.514z"/>
    <path fill="#999" d="M170.146 98.899v1.329h-2.523v-1.33h2.523zm.707 1.931v-2.534h-3.915v3.167h.685v-.633h3.23zm-3.147-5.586c-.093-.301-.28-.737-.488-1.09h3.24c-.145.353-.363.789-.54 1.09h-2.212zm5.607-1.09v-.706h-4.111v-.976h-.779v.976h-4.018v.706h1.983c.176.322.374.758.488 1.09h-2.035v6.687h.726v-6.012h1.859c-.104.965-.478 1.443-1.786 1.713.135.125.312.384.374.54 1.516-.364 1.983-1.007 2.108-2.253h1.235v1.038c0 .644.177.81.904.81h1.069c.55 0 .737-.208.81-1.038-.197-.042-.478-.135-.592-.24-.031.613-.072.686-.301.686h-.903c-.26 0-.301-.02-.301-.228v-1.028h2.17v5.067c0 .166-.052.218-.229.218-.187.01-.81.021-1.484-.011.114.198.228.551.259.748.852 0 1.423-.01 1.765-.125.332-.124.436-.373.436-.83v-5.742h-2.191c.187-.312.395-.696.592-1.09h1.952zm7.995 1.453h-4.122v-1.962h4.122v1.962zm.779-2.7h-5.648v3.437h5.648v-3.436zm-4.247 5.275v2.461h-2.17v-2.46h2.17zm-2.907 3.769h.737v-.56h2.17v.467h.758v-4.423h-3.665v4.516zm5.545-1.308v-2.46h2.357v2.46h-2.357zm-.748-3.208v4.516h.748v-.56h2.357v.488h.758v-4.444h-3.863zm8.836 3.385v-2.555h4.257v2.555h-4.257zm2.575-6.625c-.446.904-1.1 1.724-1.869 2.43-.477-.52-1.266-1.184-1.962-1.672.27-.239.509-.498.737-.758h3.094zm2.461 3.364h-4.247c1.205-1.017 2.222-2.294 2.835-3.831l-.509-.27-.145.041h-2.928c.218-.3.415-.602.592-.892l-.862-.177c-.602 1.121-1.786 2.45-3.489 3.374.177.135.436.416.54.592.498-.29.945-.612 1.36-.945.685.51 1.443 1.174 1.9 1.703-1.173.924-2.533 1.61-3.852 1.994.166.145.364.467.457.675.862-.28 1.724-.675 2.554-1.163v3.281h.758v-.415h4.257v.436h.779v-4.403zm5.285.509c-.197-.25-1.049-1.142-1.339-1.402v-.508h1.266v-.623c.177.093.395.207.499.28.374-.52.727-1.288.986-2.087 1.277-.114 2.721-.301 3.749-.56l-.582-.54c-.747.186-1.993.383-3.167.508l-.581-.125c-.229.904-.592 1.807-1.07 2.43h-1.1v-1.786c.467-.124.913-.26 1.277-.425l-.582-.54c-.675.332-1.91.623-2.99.81.093.155.197.404.228.57.426-.062.893-.145 1.34-.238v1.61h-1.516v.716h1.391c-.332 1.173-.945 2.533-1.516 3.27.135.187.322.488.405.706.436-.633.883-1.63 1.236-2.647v4.475h.727v-4.548c.332.415.727.955.882 1.236l.457-.582zm4.153-4.33c.426.603.862 1.454 1.049 1.994l.665-.301c-.198-.54-.644-1.34-1.08-1.942l-.634.25zm-.809 1.464c-.063-.394-.26-.986-.488-1.422l-.644.166c.218.457.405 1.059.446 1.443l.686-.187zm-.146 4.07v-.996h1.464v.996h-1.464zm-2.066-.996h1.36v.996h-1.36v-.996zm1.36-1.558v.976h-1.36v-.976h1.36zm2.17 0v.976h-1.464v-.976h1.464zm1.288 2.554h-.571v-3.177h-2.181v-.675h-.706v.675h-2.066v3.177h-.737v.644h.737v2.015h.706v-2.015h3.53v1.194c0 .125-.052.156-.187.166-.124 0-.571.011-1.059-.01.104.177.229.478.27.675.654 0 1.07-.01 1.329-.125.281-.114.364-.332.364-.706v-1.194h.571v-.644z"/>
    <path stroke="#999" stroke-width=".914" d="M169.6 59.395H198.857V88.403H169.6z"/>
    <path fill="#999" d="M121.689 98.899v1.329h-2.523v-1.33h2.523zm.706 1.931v-2.534h-3.914v3.167h.685v-.633h3.229zm-3.146-5.586c-.093-.301-.28-.737-.488-1.09h3.24c-.145.353-.363.789-.54 1.09h-2.212zm5.607-1.09v-.706h-4.111v-.976h-.779v.976h-4.018v.706h1.983c.176.322.374.758.488 1.09h-2.035v6.687h.726v-6.012h1.859c-.104.965-.478 1.443-1.786 1.713.135.125.312.384.374.54 1.516-.364 1.983-1.007 2.108-2.253h1.235v1.038c0 .644.177.81.904.81h1.069c.55 0 .737-.208.81-1.038-.197-.042-.478-.135-.592-.24-.031.613-.073.686-.301.686h-.903c-.26 0-.301-.02-.301-.228v-1.028h2.17v5.067c0 .166-.052.218-.229.218-.187.01-.81.021-1.485-.011.115.198.229.551.26.748.851 0 1.423-.01 1.765-.125.332-.124.436-.373.436-.83v-5.742h-2.191c.187-.312.395-.696.592-1.09h1.952zm7.995 1.453h-4.122v-1.962h4.122v1.962zm.779-2.7h-5.648v3.437h5.648v-3.436zm-4.247 5.275v2.461h-2.17v-2.46h2.17zm-2.907 3.769h.737v-.56h2.17v.467h.758v-4.423h-3.665v4.516zm5.545-1.308v-2.46h2.357v2.46h-2.357zm-.748-3.208v4.516h.748v-.56h2.357v.488h.758v-4.444h-3.863zm8.836 3.385v-2.555h4.257v2.555h-4.257zm2.575-6.625c-.446.904-1.1 1.724-1.869 2.43-.477-.52-1.266-1.184-1.962-1.672.27-.239.509-.498.737-.758h3.094zm2.461 3.364h-4.247c1.205-1.017 2.222-2.294 2.835-3.831l-.509-.27-.145.041h-2.928c.218-.3.415-.602.592-.892l-.862-.177c-.602 1.121-1.786 2.45-3.489 3.374.177.135.436.416.54.592.498-.29.945-.612 1.36-.945.685.51 1.443 1.174 1.9 1.703-1.173.924-2.533 1.61-3.852 1.994.166.145.364.467.457.675.862-.28 1.724-.675 2.554-1.163v3.281h.758v-.415h4.257v.436h.779v-4.403zm5.285.509c-.197-.25-1.049-1.142-1.339-1.402v-.508h1.266v-.623c.177.093.395.207.499.28.374-.52.727-1.288.986-2.087 1.277-.114 2.721-.301 3.749-.56l-.582-.54c-.748.186-1.993.383-3.167.508l-.581-.125c-.229.904-.592 1.807-1.07 2.43h-1.1v-1.786c.467-.124.913-.26 1.277-.425l-.582-.54c-.675.332-1.91.623-2.99.81.093.155.197.404.228.57.426-.062.893-.145 1.34-.238v1.61h-1.516v.716h1.391c-.332 1.173-.945 2.533-1.516 3.27.135.187.322.488.405.706.436-.633.883-1.63 1.236-2.647v4.475h.727v-4.548c.332.415.726.955.882 1.236l.457-.582zm4.153-4.33c.426.603.862 1.454 1.049 1.994l.665-.301c-.198-.54-.644-1.34-1.08-1.942l-.634.25zm-.81 1.464c-.062-.394-.259-.986-.488-1.422l-.643.166c.218.457.405 1.059.446 1.443l.685-.187zm-.145 4.07v-.996h1.464v.996h-1.464zm-2.066-.996h1.36v.996h-1.36v-.996zm1.36-1.558v.976h-1.36v-.976h1.36zm2.17 0v.976h-1.464v-.976h1.464zm1.288 2.554h-.571v-3.177h-2.181v-.675h-.706v.675h-2.066v3.177h-.737v.644h.737v2.015h.706v-2.015h3.53v1.194c0 .125-.052.156-.187.166-.124 0-.571.011-1.059-.01.104.177.229.478.27.675.654 0 1.07-.01 1.329-.125.281-.114.364-.332.364-.706v-1.194h.571v-.644z"/>
    <path stroke="#999" stroke-width=".914" d="M121.143 59.395H150.4V88.403H121.143z"/>
    <path fill="#999" d="M73.232 98.899v1.329H70.71v-1.33h2.523zm.706 1.931v-2.534h-3.914v3.167h.685v-.633h3.23zm-3.146-5.586c-.093-.301-.28-.737-.488-1.09h3.24c-.146.353-.364.789-.54 1.09h-2.212zm5.607-1.09v-.706h-4.112v-.976h-.778v.976H67.49v.706h1.984c.176.322.373.758.487 1.09h-2.035v6.687h.727v-6.012h1.859c-.104.965-.478 1.443-1.786 1.713.135.125.311.384.374.54 1.516-.364 1.983-1.007 2.107-2.253h1.236v1.038c0 .644.177.81.903.81h1.07c.55 0 .737-.208.81-1.038-.198-.042-.478-.135-.592-.24-.031.613-.073.686-.301.686h-.904c-.26 0-.3-.02-.3-.228v-1.028h2.17v5.067c0 .166-.053.218-.229.218-.187.01-.81.021-1.485-.011.114.198.229.551.26.748.851 0 1.422-.01 1.765-.125.332-.124.436-.373.436-.83v-5.742h-2.19c.186-.312.394-.696.591-1.09h1.952zm7.995 1.453h-4.122v-1.962h4.122v1.962zm.779-2.7h-5.649v3.437h5.649v-3.436zm-4.247 5.275v2.461h-2.17v-2.46h2.17zm-2.907 3.769h.737v-.56h2.17v.467h.758v-4.423H78.02v4.516zm5.544-1.308v-2.46h2.357v2.46h-2.357zm-.747-3.208v4.516h.747v-.56h2.357v.488h.758v-4.444h-3.862zm8.836 3.385v-2.555h4.257v2.555h-4.257zm2.575-6.625c-.447.904-1.1 1.724-1.869 2.43-.478-.52-1.267-1.184-1.962-1.672.27-.239.508-.498.737-.758h3.094zm2.46 3.364h-4.246c1.204-1.017 2.222-2.294 2.835-3.831l-.51-.27-.145.041h-2.927c.218-.3.415-.602.591-.892l-.861-.177c-.603 1.121-1.786 2.45-3.49 3.374.177.135.437.416.54.592.5-.29.946-.612 1.36-.945.686.51 1.444 1.174 1.901 1.703-1.173.924-2.534 1.61-3.852 1.994.166.145.363.467.457.675.861-.28 1.723-.675 2.554-1.163v3.281h.758v-.415h4.257v.436h.779v-4.403zm5.286.509c-.197-.25-1.049-1.142-1.34-1.402v-.508h1.267v-.623c.177.093.395.207.499.28.373-.52.726-1.288.986-2.087 1.277-.114 2.72-.301 3.748-.56l-.581-.54c-.748.186-1.994.383-3.167.508l-.582-.125c-.228.904-.591 1.807-1.069 2.43h-1.101v-1.786c.468-.124.914-.26 1.278-.425l-.582-.54c-.675.332-1.91.623-2.99.81.093.155.197.404.228.57.426-.062.893-.145 1.34-.238v1.61H98.39v.716h1.391c-.332 1.173-.945 2.533-1.516 3.27.135.187.322.488.405.706.436-.633.882-1.63 1.236-2.647v4.475h.726v-4.548c.333.415.727.955.883 1.236l.457-.582zm4.153-4.33c.426.603.862 1.454 1.049 1.994l.664-.301c-.197-.54-.643-1.34-1.08-1.942l-.633.25zm-.81 1.464c-.062-.394-.259-.986-.488-1.422l-.644.166c.218.457.405 1.059.447 1.443l.685-.187zm-.145 4.07v-.996h1.464v.996h-1.464zm-2.066-.996h1.36v.996h-1.36v-.996zm1.36-1.558v.976h-1.36v-.976h1.36zm2.17 0v.976h-1.464v-.976h1.464zm1.287 2.554h-.571v-3.177h-2.18v-.675h-.706v.675h-2.066v3.177h-.738v.644h.738v2.015h.706v-2.015h3.53v1.194c0 .125-.052.156-.187.166-.125 0-.571.011-1.059-.01.104.177.228.478.27.675.654 0 1.069-.01 1.329-.125.28-.114.363-.332.363-.706v-1.194h.571v-.644z"/>
    <path stroke="#999" stroke-width=".914" d="M72.685 59.395H101.94200000000001V88.403H72.685z"/>
</svg>
