<svg xmlns="http://www.w3.org/2000/svg" width="320" height="175" fill="none" viewBox="0 0 320 175">
    <path fill="#fff" stroke="#999" stroke-width=".911" d="M0.456 0.456H319.545V174.545H0.456z"/>
    <path stroke="#999" stroke-width=".911" d="M26.557 92.257l-8.271 6.665 8.27 6.664M292.572 105.587l8.271-6.665-8.271-6.664"/>
    <path fill="#999" d="M40.64 139.473v1.208h-2.293v-1.208h2.293zm.642 1.755v-2.302h-3.557v2.878h.622v-.576h2.935zm-2.86-5.076c-.084-.274-.254-.67-.443-.991h2.944c-.132.321-.33.717-.49.991h-2.01zm5.096-.991v-.641h-3.736v-.887h-.708v.887h-3.652v.641h1.803c.16.293.34.689.443.991h-1.85v6.077h.661v-5.464h1.69c-.095.878-.435 1.312-1.624 1.557.123.114.283.349.34.491 1.378-.33 1.802-.915 1.915-2.048h1.123v.944c0 .585.16.736.821.736h.972c.5 0 .67-.189.736-.944-.18-.037-.434-.122-.538-.217-.028.557-.066.623-.273.623h-.822c-.235 0-.273-.019-.273-.207v-.935h1.972v4.605c0 .151-.047.198-.208.198-.17.01-.736.019-1.349-.009.104.179.208.5.236.679.774 0 1.293-.009 1.604-.113.302-.113.396-.34.396-.755v-5.218h-1.99c.17-.283.358-.632.537-.991h1.774zm7.266 1.321h-3.746v-1.783h3.746v1.783zm.707-2.453h-5.133v3.123h5.133v-3.123zm-3.859 4.793v2.237H45.66v-2.237h1.972zm-2.642 3.426h.67v-.51h1.972v.425h.689v-4.02h-3.33v4.105zm5.039-1.189v-2.237h2.142v2.237h-2.142zm-.68-2.916v4.105h.68v-.51h2.142v.443h.689v-4.038h-3.51zm8.03 3.076v-2.321h3.869v2.321h-3.869zm2.34-6.02c-.405.821-1 1.566-1.698 2.208-.434-.472-1.151-1.076-1.783-1.519.245-.217.462-.453.67-.689h2.811zm2.237 3.057h-3.86c1.095-.924 2.02-2.085 2.576-3.482l-.462-.245-.132.038h-2.661c.198-.274.377-.547.538-.812l-.783-.16c-.548 1.019-1.623 2.227-3.17 3.067.16.122.396.377.49.537.453-.264.859-.556 1.236-.858.623.462 1.312 1.066 1.727 1.547-1.066.84-2.303 1.463-3.5 1.812.15.132.33.425.414.613.783-.255 1.567-.613 2.322-1.057v2.982h.688v-.377h3.869v.396h.708v-4.001zm4.802.463c-.179-.227-.953-1.038-1.217-1.274v-.463h1.151v-.566c.16.085.359.189.453.255.34-.472.66-1.17.897-1.897 1.16-.103 2.472-.273 3.406-.509l-.528-.491c-.68.17-1.812.349-2.878.463l-.529-.114c-.207.821-.538 1.642-.972 2.208h-1v-1.623c.425-.113.83-.236 1.16-.386l-.528-.491c-.613.302-1.736.566-2.717.736.085.141.18.368.207.519.387-.057.812-.132 1.218-.217v1.462h-1.378v.651h1.264c-.301 1.067-.858 2.303-1.377 2.973.123.17.292.443.368.641.396-.575.802-1.481 1.123-2.406v4.067h.66v-4.133c.302.378.66.868.802 1.123l.415-.528zm3.775-3.935c.387.547.783 1.321.953 1.812l.604-.274c-.18-.491-.585-1.217-.982-1.765l-.575.227zm-.736 1.33c-.057-.358-.236-.896-.444-1.292l-.585.151c.198.415.368.962.406 1.311l.623-.17zm-.132 3.699v-.906h1.33v.906h-1.33zm-1.878-.906h1.236v.906h-1.236v-.906zm1.236-1.415v.887h-1.236v-.887h1.236zm1.972 0v.887h-1.33v-.887h1.33zm1.17 2.321h-.519v-2.887h-1.981v-.614h-.642v.614h-1.878v2.887h-.67v.585h.67v1.831h.642v-1.831h3.208v1.085c0 .113-.047.142-.17.151-.113 0-.519.01-.962-.009.094.16.207.434.245.613.595 0 .972-.009 1.208-.113.255-.104.33-.302.33-.642v-1.085h.52v-.585zM91.753 139.473v1.208H89.46v-1.208h2.293zm.642 1.755v-2.302h-3.558v2.878h.623v-.576h2.935zm-2.86-5.076c-.084-.274-.254-.67-.443-.991h2.944c-.132.321-.33.717-.49.991h-2.01zm5.096-.991v-.641h-3.737v-.887h-.707v.887h-3.652v.641h1.802c.16.293.34.689.444.991h-1.85v6.077h.66v-5.464h1.69c-.095.878-.434 1.312-1.623 1.557.123.114.283.349.34.491 1.377-.33 1.802-.915 1.915-2.048h1.123v.944c0 .585.16.736.82.736h.973c.5 0 .67-.189.736-.944-.18-.037-.434-.122-.538-.217-.028.557-.066.623-.274.623h-.82c-.237 0-.274-.019-.274-.207v-.935h1.972v4.605c0 .151-.047.198-.208.198-.17.01-.736.019-1.35-.009.105.179.209.5.237.679.773 0 1.293-.009 1.604-.113.302-.113.396-.34.396-.755v-5.218h-1.99c.169-.283.358-.632.537-.991h1.774zm7.265 1.321H98.15v-1.783h3.746v1.783zm.708-2.453h-5.133v3.123h5.133v-3.123zm-3.86 4.793v2.237h-1.971v-2.237h1.972zm-2.641 3.426h.67v-.51h1.972v.425h.689v-4.02h-3.331v4.105zm5.039-1.189v-2.237h2.142v2.237h-2.142zm-.68-2.916v4.105h.68v-.51h2.142v.443h.688v-4.038h-3.51zm8.03 3.076v-2.321h3.869v2.321h-3.869zm2.34-6.02c-.406.821-1 1.566-1.698 2.208-.434-.472-1.151-1.076-1.784-1.519.246-.217.463-.453.67-.689h2.812zm2.236 3.057h-3.859c1.095-.924 2.019-2.085 2.576-3.482l-.462-.245-.132.038h-2.661c.198-.274.377-.547.538-.812l-.784-.16c-.547 1.019-1.622 2.227-3.17 3.067.16.122.396.377.491.537.453-.264.858-.556 1.236-.858.623.462 1.311 1.066 1.727 1.547-1.067.84-2.303 1.463-3.501 1.812.151.132.33.425.415.613.783-.255 1.566-.613 2.321-1.057v2.982h.689v-.377h3.869v.396h.707v-4.001zm4.803.463c-.179-.227-.953-1.038-1.217-1.274v-.463h1.151v-.566c.161.085.359.189.453.255.34-.472.661-1.17.896-1.897 1.161-.103 2.473-.273 3.407-.509l-.529-.491c-.679.17-1.811.349-2.878.463l-.528-.114c-.208.821-.538 1.642-.972 2.208h-1v-1.623c.425-.113.83-.236 1.161-.386l-.529-.491c-.613.302-1.736.566-2.717.736.085.141.179.368.207.519.387-.057.812-.132 1.218-.217v1.462h-1.378v.651h1.264c-.302 1.067-.858 2.303-1.377 2.973.122.17.292.443.368.641.396-.575.802-1.481 1.123-2.406v4.067h.66v-4.133c.302.378.661.868.802 1.123l.415-.528zm3.775-3.935c.386.547.783 1.321.953 1.812l.603-.274c-.179-.491-.585-1.217-.981-1.765l-.575.227zm-.736 1.33c-.057-.358-.236-.896-.444-1.292l-.585.151c.198.415.368.962.406 1.311l.623-.17zm-.133 3.699v-.906h1.331v.906h-1.331zm-1.877-.906h1.236v.906H118.9v-.906zm1.236-1.415v.887H118.9v-.887h1.236zm1.972 0v.887h-1.331v-.887h1.331zm1.17 2.321h-.519v-2.887h-1.982v-.614h-.641v.614h-1.878v2.887h-.67v.585h.67v1.831h.642v-1.831h3.208v1.085c0 .113-.047.142-.17.151-.113 0-.519.01-.962-.009.094.16.207.434.245.613.594 0 .972-.009 1.208-.113.254-.104.33-.302.33-.642v-1.085h.519v-.585zM142.866 139.473v1.208h-2.293v-1.208h2.293zm.641 1.755v-2.302h-3.557v2.878h.623v-.576h2.934zm-2.859-5.076c-.085-.274-.255-.67-.443-.991h2.944c-.132.321-.331.717-.491.991h-2.01zm5.096-.991v-.641h-3.737v-.887h-.708v.887h-3.651v.641h1.802c.16.293.34.689.443.991h-1.849v6.077h.66v-5.464h1.689c-.094.878-.434 1.312-1.623 1.557.123.114.284.349.34.491 1.378-.33 1.802-.915 1.916-2.048h1.122v.944c0 .585.161.736.821.736h.972c.5 0 .67-.189.736-.944-.179-.037-.434-.122-.538-.217-.028.557-.066.623-.273.623h-.821c-.236 0-.274-.019-.274-.207v-.935h1.972v4.605c0 .151-.047.198-.207.198-.17.01-.736.019-1.35-.009.104.179.208.5.236.679.774 0 1.293-.009 1.604-.113.302-.113.397-.34.397-.755v-5.218h-1.991c.17-.283.358-.632.538-.991h1.774zm7.265 1.321h-3.746v-1.783h3.746v1.783zm.708-2.453h-5.133v3.123h5.133v-3.123zm-3.86 4.793v2.237h-1.972v-2.237h1.972zm-2.642 3.426h.67v-.51h1.972v.425h.689v-4.02h-3.331v4.105zm5.039-1.189v-2.237h2.142v2.237h-2.142zm-.679-2.916v4.105h.679v-.51h2.142v.443h.689v-4.038h-3.51zm8.03 3.076v-2.321h3.868v2.321h-3.868zm2.34-6.02c-.406.821-1 1.566-1.699 2.208-.434-.472-1.151-1.076-1.783-1.519.245-.217.462-.453.67-.689h2.812zm2.236 3.057h-3.859c1.094-.924 2.019-2.085 2.576-3.482l-.463-.245-.132.038h-2.661c.199-.274.378-.547.538-.812l-.783-.16c-.547 1.019-1.623 2.227-3.17 3.067.16.122.396.377.49.537.453-.264.859-.556 1.236-.858.623.462 1.312 1.066 1.727 1.547-1.066.84-2.302 1.463-3.501 1.812.151.132.331.425.416.613.783-.255 1.566-.613 2.321-1.057v2.982h.689v-.377h3.868v.396h.708v-4.001zm4.803.463c-.18-.227-.953-1.038-1.217-1.274v-.463h1.151v-.566c.16.085.358.189.453.255.339-.472.66-1.17.896-1.897 1.161-.103 2.472-.273 3.406-.509l-.528-.491c-.679.17-1.812.349-2.878.463l-.528-.114c-.208.821-.538 1.642-.972 2.208h-1v-1.623c.424-.113.83-.236 1.16-.386l-.528-.491c-.614.302-1.736.566-2.718.736.085.141.18.368.208.519.387-.057.811-.132 1.217-.217v1.462h-1.378v.651h1.265c-.302 1.067-.859 2.303-1.378 2.973.123.17.293.443.368.641.396-.575.802-1.481 1.123-2.406v4.067h.661v-4.133c.301.378.66.868.802 1.123l.415-.528zm3.774-3.935c.387.547.783 1.321.953 1.812l.604-.274c-.179-.491-.585-1.217-.981-1.765l-.576.227zm-.736 1.33c-.057-.358-.236-.896-.443-1.292l-.585.151c.198.415.368.962.405 1.311l.623-.17zm-.132 3.699v-.906h1.33v.906h-1.33zm-1.878-.906h1.236v.906h-1.236v-.906zm1.236-1.415v.887h-1.236v-.887h1.236zm1.972 0v.887h-1.33v-.887h1.33zm1.17 2.321h-.519v-2.887h-1.981v-.614h-.642v.614h-1.877v2.887h-.67v.585h.67v1.831h.641v-1.831h3.208v1.085c0 .113-.047.142-.169.151-.114 0-.519.01-.963-.009.094.16.208.434.245.613.595 0 .972-.009 1.208-.113.255-.104.33-.302.33-.642v-1.085h.519v-.585zM193.979 139.473v1.208h-2.293v-1.208h2.293zm.641 1.755v-2.302h-3.557v2.878h.623v-.576h2.934zm-2.859-5.076c-.085-.274-.255-.67-.443-.991h2.944c-.132.321-.331.717-.491.991h-2.01zm5.096-.991v-.641h-3.737v-.887h-.708v.887h-3.651v.641h1.802c.16.293.34.689.443.991h-1.849v6.077h.66v-5.464h1.689c-.094.878-.434 1.312-1.622 1.557.122.114.283.349.339.491 1.378-.33 1.802-.915 1.916-2.048h1.123v.944c0 .585.16.736.82.736h.972c.5 0 .67-.189.736-.944-.179-.037-.434-.122-.538-.217-.028.557-.066.623-.273.623h-.821c-.236 0-.274-.019-.274-.207v-.935h1.972v4.605c0 .151-.047.198-.207.198-.17.01-.736.019-1.35-.009.104.179.208.5.236.679.774 0 1.293-.009 1.604-.113.302-.113.397-.34.397-.755v-5.218h-1.991c.17-.283.358-.632.538-.991h1.774zm7.265 1.321h-3.746v-1.783h3.746v1.783zm.708-2.453h-5.133v3.123h5.133v-3.123zm-3.859 4.793v2.237h-1.973v-2.237h1.973zm-2.642 3.426h.669v-.51h1.973v.425h.688v-4.02h-3.33v4.105zm5.038-1.189v-2.237h2.142v2.237h-2.142zm-.679-2.916v4.105h.679v-.51h2.142v.443h.689v-4.038h-3.51zm8.03 3.076v-2.321h3.868v2.321h-3.868zm2.34-6.02c-.406.821-1 1.566-1.699 2.208-.434-.472-1.151-1.076-1.783-1.519.245-.217.462-.453.67-.689h2.812zm2.236 3.057h-3.859c1.094-.924 2.019-2.085 2.576-3.482l-.463-.245-.132.038h-2.661c.199-.274.378-.547.538-.812l-.783-.16c-.547 1.019-1.623 2.227-3.17 3.067.16.122.396.377.49.537.453-.264.859-.556 1.236-.858.623.462 1.312 1.066 1.727 1.547-1.066.84-2.302 1.463-3.501 1.812.151.132.331.425.416.613.783-.255 1.566-.613 2.321-1.057v2.982h.689v-.377h3.868v.396h.708v-4.001zm4.803.463c-.179-.227-.953-1.038-1.217-1.274v-.463h1.151v-.566c.16.085.358.189.453.255.339-.472.66-1.17.896-1.897 1.161-.103 2.472-.273 3.406-.509l-.528-.491c-.679.17-1.812.349-2.878.463l-.528-.114c-.208.821-.538 1.642-.972 2.208h-1v-1.623c.424-.113.83-.236 1.16-.386l-.528-.491c-.614.302-1.736.566-2.718.736.085.141.18.368.208.519.387-.057.811-.132 1.217-.217v1.462h-1.378v.651h1.265c-.302 1.067-.859 2.303-1.378 2.973.123.17.293.443.368.641.397-.575.802-1.481 1.123-2.406v4.067h.661v-4.133c.302.378.66.868.802 1.123l.415-.528zm3.774-3.935c.387.547.783 1.321.953 1.812l.604-.274c-.179-.491-.585-1.217-.981-1.765l-.576.227zm-.736 1.33c-.057-.358-.236-.896-.443-1.292l-.585.151c.198.415.368.962.405 1.311l.623-.17zm-.132 3.699v-.906h1.33v.906h-1.33zm-1.878-.906h1.236v.906h-1.236v-.906zm1.236-1.415v.887h-1.236v-.887h1.236zm1.972 0v.887h-1.33v-.887h1.33zm1.17 2.321h-.518v-2.887h-1.982v-.614h-.642v.614h-1.877v2.887h-.67v.585h.67v1.831h.641v-1.831h3.208v1.085c0 .113-.047.142-.169.151-.114 0-.519.01-.963-.009.095.16.208.434.245.613.595 0 .972-.009 1.208-.113.255-.104.331-.302.331-.642v-1.085h.518v-.585zM244.775 139.473v1.208h-2.293v-1.208h2.293zm.641 1.755v-2.302h-3.557v2.878h.623v-.576h2.934zm-2.859-5.076c-.085-.274-.255-.67-.443-.991h2.944c-.132.321-.331.717-.491.991h-2.01zm5.095-.991v-.641h-3.736v-.887h-.708v.887h-3.651v.641h1.802c.16.293.339.689.443.991h-1.849v6.077h.66v-5.464h1.689c-.094.878-.434 1.312-1.623 1.557.123.114.283.349.34.491 1.378-.33 1.802-.915 1.916-2.048h1.122v.944c0 .585.161.736.821.736h.972c.5 0 .67-.189.736-.944-.179-.037-.434-.122-.538-.217-.028.557-.066.623-.273.623h-.821c-.236 0-.274-.019-.274-.207v-.935h1.972v4.605c0 .151-.047.198-.207.198-.17.01-.736.019-1.35-.009.104.179.208.5.236.679.774 0 1.293-.009 1.604-.113.302-.113.397-.34.397-.755v-5.218h-1.991c.17-.283.358-.632.538-.991h1.773zm7.266 1.321h-3.746v-1.783h3.746v1.783zm.708-2.453h-5.133v3.123h5.133v-3.123zm-3.86 4.793v2.237h-1.972v-2.237h1.972zm-2.642 3.426h.67v-.51h1.972v.425h.689v-4.02h-3.331v4.105zm5.039-1.189v-2.237h2.142v2.237h-2.142zm-.679-2.916v4.105h.679v-.51h2.142v.443h.689v-4.038h-3.51zm8.03 3.076v-2.321h3.868v2.321h-3.868zm2.34-6.02c-.406.821-1.001 1.566-1.699 2.208-.434-.472-1.151-1.076-1.783-1.519.245-.217.462-.453.67-.689h2.812zm2.236 3.057h-3.859c1.094-.924 2.019-2.085 2.576-3.482l-.463-.245-.132.038h-2.661c.198-.274.378-.547.538-.812l-.783-.16c-.547 1.019-1.623 2.227-3.17 3.067.16.122.396.377.49.537.453-.264.859-.556 1.236-.858.623.462 1.312 1.066 1.727 1.547-1.066.84-2.302 1.463-3.501 1.812.151.132.331.425.416.613.783-.255 1.566-.613 2.321-1.057v2.982h.689v-.377h3.868v.396h.708v-4.001zm4.803.463c-.18-.227-.953-1.038-1.218-1.274v-.463h1.152v-.566c.16.085.358.189.453.255.339-.472.66-1.17.896-1.897 1.161-.103 2.472-.273 3.406-.509l-.528-.491c-.68.17-1.812.349-2.878.463l-.528-.114c-.208.821-.538 1.642-.972 2.208h-1.001v-1.623c.425-.113.831-.236 1.161-.386l-.528-.491c-.614.302-1.736.566-2.718.736.085.141.179.368.208.519.387-.057.811-.132 1.217-.217v1.462h-1.378v.651h1.265c-.302 1.067-.859 2.303-1.378 2.973.123.17.293.443.368.641.396-.575.802-1.481 1.123-2.406v4.067h.66v-4.133c.302.378.661.868.803 1.123l.415-.528zm3.774-3.935c.387.547.783 1.321.953 1.812l.604-.274c-.179-.491-.585-1.217-.981-1.765l-.576.227zm-.736 1.33c-.057-.358-.236-.896-.443-1.292l-.585.151c.198.415.368.962.405 1.311l.623-.17zm-.132 3.699v-.906h1.33v.906h-1.33zm-1.878-.906h1.236v.906h-1.236v-.906zm1.236-1.415v.887h-1.236v-.887h1.236zm1.972 0v.887h-1.33v-.887h1.33zm1.17 2.321h-.519v-2.887h-1.981v-.614h-.642v.614h-1.877v2.887h-.67v.585h.67v1.831h.641v-1.831h3.208v1.085c0 .113-.047.142-.169.151-.114 0-.519.01-.963-.009.094.16.208.434.245.613.595 0 .972-.009 1.208-.113.255-.104.33-.302.33-.642v-1.085h.519v-.585z"/>
    <path stroke="#999" stroke-width=".834" d="M35.161 75.677H80.707V125.53300000000002H35.161zM86.273 75.677H131.819V125.53300000000002H86.273zM137.385 75.677H182.93099999999998V125.53300000000002H137.385zM188.499 75.677H234.045V125.53300000000002H188.499zM239.294 75.677H284.84000000000003V125.53300000000002H239.294z"/>
    <path fill="#999" d="M32.543 23.077v-1.524h-8.281c.28-2.106.3-4.09.32-5.695h-1.604c-.02 1.584 0 3.59-.3 5.695h-7.64v1.524h7.399c-.822 3.79-2.827 7.64-7.8 9.805.421.3.902.822 1.123 1.223 4.872-2.226 7.038-6.076 8-9.925 1.584 4.551 4.131 8.1 7.98 9.925.262-.441.763-1.063 1.124-1.404-3.87-1.584-6.477-5.213-7.88-9.624h7.559zm15.52-3.75h-1.845v-1.384h1.845v1.384zm3.068 3.63h-1.965V20.49h1.965v2.466zm-7.82-2.467h1.804v2.466H43.31V20.49zm4.752 0v2.466h-1.865V20.49h1.865zm-3.068-1.163h-2.948v4.772h10.387v-4.772h-3.168v-1.384h3.69V16.7h-11.53v1.244h3.569v1.383zm6.938 7.118v-1.143h-9.364v1.143h9.364zm-10.507-.02c-.341-.541-1.825-2.767-2.386-3.509v-1.383h2.245v-1.384H39.04v-4.331h-1.364v4.331H34.87v1.384h2.647c-.582 2.727-1.805 5.855-3.048 7.519.24.34.601.902.762 1.283.922-1.303 1.784-3.409 2.446-5.594v9.364h1.364V24.68c.581.982 1.283 2.205 1.564 2.847l.822-1.103zm2.205 3.148c-.661 1.003-1.885 2.206-3.047 2.968.32.24.721.622.922.902 1.203-.842 2.466-2.045 3.268-3.248l-1.143-.622zm9.324-.46v-1.204h-11.63v1.203h5.073v3.53c0 .2-.06.28-.3.28h-1.965c.18.34.38.842.44 1.223 1.264 0 2.066-.02 2.587-.22.502-.201.622-.582.622-1.264v-3.549h5.173zm-3.73 1.202c1.003.963 2.186 2.306 2.768 3.148l1.103-.802c-.582-.842-1.825-2.125-2.828-3.027l-1.042.681zm21.315-8.24h-4.772V20.57h4.772v1.504zm0 2.526h-4.772v-1.484h4.772V24.6zm0 2.566h-4.772v-1.504h4.772v1.504zm-6.115-7.7v8.803h7.499v-8.803h-3.71c.18-.46.381-1.002.562-1.523h3.95V16.8h-9.063v1.143h3.73c-.121.5-.281 1.042-.442 1.523h-2.526zm4.431 9.705c1.103.742 2.406 1.885 3.068 2.687l1.083-.702c-.662-.762-1.965-1.864-3.128-2.566l-1.023.581zm-2.767-.561c-.762.922-2.045 1.825-3.309 2.406.301.2.782.702 1.003.942 1.263-.721 2.687-1.844 3.55-2.947l-1.244-.401zm-4.852-9.364h-3.91v-1.484h3.91v1.484zm0 2.566h-3.91V20.29h3.91v1.523zM62.6 16.66h-6.617v6.256H62.6V16.66zm-2.547 12.171h3.39V27.69h-3.39v-2.146h3.73V24.38H54.8v1.163h3.97v5.334c-.601-.482-1.103-1.123-1.484-1.945.08-.742.12-1.524.16-2.286h-1.242c-.1 2.446-.442 5.133-1.645 6.577.321.22.762.681.943.962.762-.922 1.243-2.206 1.524-3.65 1.804 2.688 4.792 3.169 9.123 3.169h6.437c.08-.401.32-.963.541-1.283-1.163.04-6.096.04-6.978.04-2.466-.02-4.511-.14-6.096-.822V28.83z"/>
</svg>
