<svg xmlns="http://www.w3.org/2000/svg" width="320" height="175" fill="none" style=""><rect id="backgroundrect" width="100%" height="100%" x="0" y="0" fill="none" stroke="none"/>
    
    
    
    
    
<g class="currentLayer" style=""><title>Layer 1</title><path fill="#fff" stroke="#999" stroke-width=".911" d="M0.456 0.456H319.545V174.545H0.456z" id="svg_1" class=""/><path fill="#fff" stroke="#999" stroke-width=".911" d="M0.456,0.456 H319.545 V174.545 H0.456 z" class="" id="svg_14"/><path fill="#fff" stroke="#999" stroke-width=".911" d="M0.456,0.456 H319.545 V174.545 H0.456 z" class="" id="svg_2"/><rect fill="" stroke="#999" stroke-width="0.834" stroke-dashoffset="" fill-rule="nonzero" x="16.894737243652344" y="75.65789031982422" width="89.4473648071289" height="49.342105865478516" style="color: rgb(0, 0, 0);" class="" id="svg_3"/><rect fill="" stroke="#999" stroke-width="0.834" stroke-dashoffset="" fill-rule="nonzero" x="113.86841905117035" y="75.92105102539062" width="89.4473648071289" height="49.342105865478516" style="color: rgb(0, 0, 0);" class="" id="svg_10"/><rect fill="" stroke="#999" stroke-width="0.834" stroke-dashoffset="" fill-rule="nonzero" x="210.18421936035156" y="76.18420732021332" width="89.4473648071289" height="49.342105865478516" style="color: rgb(0, 0, 0);" class="" id="svg_12"/><path fill="#999" d="M32.543 23.077v-1.524h-8.281c.28-2.106.3-4.09.32-5.695h-1.604c-.02 1.584 0 3.59-.3 5.695h-7.64v1.524h7.399c-.822 3.79-2.827 7.64-7.8 9.805.421.3.902.822 1.123 1.223 4.872-2.226 7.038-6.076 8-9.925 1.584 4.551 4.131 8.1 7.98 9.925.262-.441.763-1.063 1.124-1.404-3.87-1.584-6.477-5.213-7.88-9.624h7.559zm15.52-3.75h-1.845v-1.384h1.845v1.384zm3.068 3.63h-1.965V20.49h1.965v2.466zm-7.82-2.467h1.804v2.466H43.31V20.49zm4.752 0v2.466h-1.865V20.49h1.865zm-3.068-1.163h-2.948v4.772h10.387v-4.772h-3.168v-1.384h3.69V16.7h-11.53v1.244h3.569v1.383zm6.938 7.118v-1.143h-9.364v1.143h9.364zm-10.507-.02c-.341-.541-1.825-2.767-2.386-3.509v-1.383h2.245v-1.384H39.04v-4.331h-1.364v4.331H34.87v1.384h2.647c-.582 2.727-1.805 5.855-3.048 7.519.24.34.601.902.762 1.283.922-1.303 1.784-3.409 2.446-5.594v9.364h1.364V24.68c.581.982 1.283 2.205 1.564 2.847l.822-1.103zm2.205 3.148c-.661 1.003-1.885 2.206-3.047 2.968.32.24.721.622.922.902 1.203-.842 2.466-2.045 3.268-3.248l-1.143-.622zm9.324-.46v-1.204h-11.63v1.203h5.073v3.53c0 .2-.06.28-.3.28h-1.965c.18.34.38.842.44 1.223 1.264 0 2.066-.02 2.587-.22.502-.201.622-.582.622-1.264v-3.549h5.173zm-3.73 1.202c1.003.963 2.186 2.306 2.768 3.148l1.103-.802c-.582-.842-1.825-2.125-2.828-3.027l-1.042.681zm21.315-8.24h-4.772V20.57h4.772v1.504zm0 2.526h-4.772v-1.484h4.772V24.6zm0 2.566h-4.772v-1.504h4.772v1.504zm-6.115-7.7v8.803h7.499v-8.803h-3.71c.18-.46.381-1.002.562-1.523h3.95V16.8h-9.063v1.143h3.73c-.121.5-.281 1.042-.442 1.523h-2.526zm4.431 9.705c1.103.742 2.406 1.885 3.068 2.687l1.083-.702c-.662-.762-1.965-1.864-3.128-2.566l-1.023.581zm-2.767-.561c-.762.922-2.045 1.825-3.309 2.406.301.2.782.702 1.003.942 1.263-.721 2.687-1.844 3.55-2.947l-1.244-.401zm-4.852-9.364h-3.91v-1.484h3.91v1.484zm0 2.566h-3.91V20.29h3.91v1.523zM62.6 16.66h-6.617v6.256H62.6V16.66zm-2.547 12.171h3.39V27.69h-3.39v-2.146h3.73V24.38H54.8v1.163h3.97v5.334c-.601-.482-1.103-1.123-1.484-1.945.08-.742.12-1.524.16-2.286h-1.242c-.1 2.446-.442 5.133-1.645 6.577.321.22.762.681.943.962.762-.922 1.243-2.206 1.524-3.65 1.804 2.688 4.792 3.169 9.123 3.169h6.437c.08-.401.32-.963.541-1.283-1.163.04-6.096.04-6.978.04-2.466-.02-4.511-.14-6.096-.822V28.83z" id="svg_5" class="" opacity="0.38"/></g></svg>